<svg id="Layer_1" data-name="Layer 1" xmlns="http://www.w3.org/2000/svg" viewBox="0 0 372.14 135.64"><defs><style>.cls-1{fill:#010101}</style></defs><path class="cls-1" d="M64.62 53H48.5V27.72h-.42L43 53H28.12l-4.95-25.28h-.42V53H6.8L8.85 0h22.68l4 24h.77l3.93-24h22.43zm51.26 0H98l-1.71-8.19h-9.5L85 53H67.86l11-53h26zM95 33.77L91.74 16h-.34l-3.33 17.77zM163 53h-20l-5.37-17.57h-.94V53h-17.4V0h17.31v21h.94l6.73-21h19.53l-11 27.55zm37.13 0h-33.77V0h35l-1.19 14.07h-15.56v6.4h13.56v12.28h-13.56V40h16.71zm66.69 0h-17.4l-10.74-20.93h-.6V53h-16.2V0h18l10.06 21.58h.51V0h16.38zm40.59 0h-33.77V0h35l-1.2 14.07h-15.55v6.4h13.56v12.28h-13.56V40h16.72zm64.73-53l-5.63 53h-20.29l-4-21.49h-.68L338.11 53h-20.29l-6.57-53H328l2.13 24.31h.77L334.11 0h16.11l3.59 24.31h.59L356 0zM21.46 99.31a14.35 14.35 0 01-.29 2.67c4.25-4.15 9.79-7.91 12.95-7.91s5.25 3.56 5.25 7.71c4.45-4 9.69-7.32 12.85-7.22 2.87.1 4.46 2.77 4.46 6s-2.08 7.91-6.14 14.14c-2.77 4.25-5.34 8.61-5.34 12.07 0 2.27 1 3.85 2.57 3.85 3.07 0 7.92-6.92 11.57-13 .9-1.49 1.88-1.59 2.78-.69 1.08 1.08 1.18 4.84 0 7.12-2.78 5.73-9.8 10.68-15.93 10.68-6.72 0-10.39-3.66-10.39-9a16 16 0 011.49-6.43 132.7 132.7 0 017.12-12.26c2.18-3.27 4.55-6.24 3.76-6.24s-2.87 1-8.7 6.83c-7.72 7.8-12.47 17.2-16.62 26.37-1 1.88-2.38 2.17-4 .59a6.75 6.75 0 01-2.18-5.44 24.61 24.61 0 011.78-7.32c1.39-3.56 4.65-8.9 7.32-13 2.68-4.45 5.45-8.21 4.55-8.21s-4.64 2.17-10.58 8.7c-5.54 5.94-10.09 14.93-13.95 24-.69 1.58-1.78 2.17-3.46.69A6.78 6.78 0 010 128.78a16.44 16.44 0 011.09-5.34c2.08-5.93 9.2-19.68 15.23-28.88 1.29-1.88 2.77-1.78 3.76 0a9.4 9.4 0 011.38 4.75z"/><path class="cls-1" d="M76.16 119.79a12.77 12.77 0 01-7-2.18 21 21 0 00-.89 5.83c0 4.36 1.78 7.42 4.75 7.42 7.52 0 14.14-7.32 18.2-13.45 1.09-1.58 2.37-1.78 3.16.2A8.5 8.5 0 0193 124c-4.15 6-12.07 10.68-19.78 10.78C64 134.92 59 128.88 59 121a24.51 24.51 0 013-11.4c5.15-10.49 13.17-15.73 18.9-15.73a6.43 6.43 0 013.46.79 18.16 18.16 0 016.14 5.14 7.25 7.25 0 011 3.66c-.01 5.94-6.64 16.33-15.34 16.33zm-5.64-5.94a4 4 0 002.17.69c2.38 0 5.54-3 7.52-5.63 2.87-3.86 5-8.51 3.86-9.4-1.49-1.19-8.81 4.85-13.55 14.34z"/><path class="cls-1" d="M109 99.31a13.62 13.62 0 01-.3 2.67c4.26-4.15 9.8-7.91 13-7.91s5.24 3.56 5.24 7.71c4.45-4 9.7-7.32 12.86-7.22 2.87.1 4.45 2.77 4.45 6s-2.07 7.91-6.13 14.14c-2.77 4.25-5.34 8.61-5.34 12.07 0 2.27 1 3.85 2.57 3.85 3.07 0 7.91-6.92 11.57-13 .89-1.49 1.88-1.59 2.77-.69 1.09 1.08 1.19 4.84 0 7.12-2.77 5.73-9.79 10.68-15.92 10.68-6.73 0-10.39-3.66-10.39-9a16 16 0 011.49-6.43 132.7 132.7 0 017.12-12.26c2.17-3.27 4.55-6.24 3.76-6.24s-2.87 1-8.71 6.83c-7.71 7.71-12.46 17.11-16.62 26.31-1 1.88-2.37 2.17-4 .59a6.75 6.75 0 01-2.18-5.44 24.31 24.31 0 011.78-7.32c1.39-3.56 4.65-8.9 7.32-13 2.67-4.45 5.44-8.21 4.55-8.21s-4.65 2.17-10.58 8.7c-5.54 5.94-10.09 14.93-14 24-.69 1.58-1.78 2.17-3.46.69a6.78 6.78 0 01-2.37-5.25 16.38 16.38 0 011.08-5.34c2.08-5.93 9.2-19.68 15.24-28.88 1.28-1.88 2.77-1.78 3.75 0a9.32 9.32 0 011.45 4.83z"/><path class="cls-1" d="M212.84 124.63c-2.67 6-10 10.39-15.73 10.39-6.33 0-9.79-4.45-9.79-10.29 0-5 5.14-14.14 10.78-21a21.67 21.67 0 01-7.81 1.88c-2.67 4.15-6.53 7.12-11.77 7.71-2.28 9.5-11.57 21.17-19.59 21.17a11.73 11.73 0 01-9.59-4.94 14.8 14.8 0 01-2.67-8.61c0-4.35 1.58-9.3 4.05-13.84 3.76-6.83 10.29-12.37 16.42-12.87 3.46-.19 5.24.8 7.42 3.67.5.59 1 1 1.58 1.58 2 2.08 3.17 4.65 3.17 9.89 1.78-.69 3.46-2.18 5.14-4.85a4.38 4.38 0 01-2.45-4.12c0-5.24 6.62-12.47 9.89-12.56 2.18 0 3 1.38 3 3.46a27.24 27.24 0 01-1.89 8.31 29.77 29.77 0 008.5-4.26c1.69-1.18 3-1.48 4.36-.1a10.06 10.06 0 012.77 6.73 6 6 0 01-1.69 4c-4.15 4.84-8.9 11.47-10.68 16.61a14.25 14.25 0 00-.79 4.45c0 2.48.79 4.06 2.28 4.06 3.46 0 9.1-6.13 12.06-12.86.89-2 2.28-2.17 3.37-.2a5.2 5.2 0 01.59 2.87 8.77 8.77 0 01-.93 3.72zm-56.68 4.85c2.38 0 7.12-4.06 10.79-10.29a28.9 28.9 0 003.16-7.52 12.15 12.15 0 01-5.84-7.71 39.69 39.69 0 00-5.73 7.52c-2.48 4.64-4.16 10.28-4.16 13.84 0 2.48.62 4.16 1.78 4.16zm17-27c0-1.49-.8-2.08-1.49-2.08s-1.48.79-1.48 2.37c0 1.78.49 4.36 1.58 5.64a16.54 16.54 0 001.41-5.93z"/><path class="cls-1" d="M216.39 134.72c-6 0-8.7-3.46-8.7-8.41a22.34 22.34 0 011.19-6.52c2.47-6.93 8.8-18.4 12.46-23.55 1.48-2 2.67-2.17 4-.69 1.88 2 2.67 6.23.1 11.18-1.88 4.25-6.43 11.67-8.11 15.63a17.14 17.14 0 00-1.39 5.93c0 1.58.4 2.47 1.48 2.47 4 0 9.11-6.62 12.17-13.35.79-1.78 2.08-1.58 3 .2s.79 4.15-.5 6.72c-3.03 6.24-9.86 10.39-15.7 10.39zm12.67-50.45c2.77 0 5.44 3.57 5.44 6.43 0 2.68-1.49 5-4 5a6.15 6.15 0 01-5.83-6c.04-2.85 2.11-5.43 4.39-5.43z"/><path class="cls-1" d="M246.17 119.79a12.77 12.77 0 01-7-2.18 21 21 0 00-.89 5.83c0 4.36 1.78 7.42 4.75 7.42 7.52 0 14.14-7.32 18.2-13.45 1.09-1.58 2.37-1.78 3.16.2A8.5 8.5 0 01263 124c-4.15 6-12.07 10.68-19.78 10.78-9.22.14-14.22-5.9-14.22-13.78a24.53 24.53 0 013-11.4c5.14-10.49 13.16-15.73 18.89-15.73a6.43 6.43 0 013.46.79 18.16 18.16 0 016.14 5.14 7.25 7.25 0 011 3.66c0 5.94-6.62 16.33-15.32 16.33zm-5.64-5.94a4 4 0 002.17.69c2.38 0 5.54-3 7.52-5.63 2.87-3.86 4.94-8.51 3.86-9.4-1.49-1.19-8.81 4.85-13.55 14.34z"/><path class="cls-1" d="M261.59 113c2-1.68 3.46-1.19 3.76 1.19 3.26-4.65 6.73-9.79 9.3-14.05.39-3.56 1.58-5.84 3.86-7.71a7.65 7.65 0 014.84-2.08c2.67 0 3.27 2.17.2 7.22-.1 1.19-.2 2.87-.2 4.15 0 7 1.29 13.46 1.09 18.8a18.93 18.93 0 01-1.68 7.42 21.44 21.44 0 008.6-10.88c.89-2.28 2.38-1.59 3.07 0 .5 1 .79 3.75-1 6.82a21.18 21.18 0 01-18.1 11c-5.93.2-11.87-1.39-15.23-7.62a13.33 13.33 0 01-1.68-6.53 10 10 0 013.17-7.73zm13.41 5.8c0-3.17-.1-6.33-.3-9-2.38 3.76-5.14 8-8.11 12.27 1.18 4.65 3.26 8.11 5.44 8.11s2.97-4.96 2.97-11.38z"/></svg>