<svg data-name="Layer 1" xmlns="http://www.w3.org/2000/svg" viewBox="0 0 370.5 55.99"><path d="M42.27 15.64H30.74v39.47h-18.6V15.64H0L.79.87h42.53zm1.92 12q0-14.54 5.81-21.09T69.13 0q13.32 0 19 6.46t5.72 21Q93.89 42 88 49t-19 7q-13.15 0-19-6.9t-5.81-21.46zM74 17.25c-.78-1.48-2.41-2.25-4.91-2.25s-4.11.73-4.81 2.19-1.05 4.57-1.05 9.34v3.87q0 7.34 1.14 9.52t5 2.18q3.84 0 4.8-2.1c.64-1.39 1-4.51 1-9.34v-4c-.05-4.79-.44-7.92-1.17-9.41zm49.07 24.5a22.51 22.51 0 004.19-.52V36h-4.37V23.93h20.61v31.18h-13.19L129 52.32h-.34A16.64 16.64 0 01117.91 56q-20.43 0-20.44-27.6 0-13.8 5.55-21.1T121.76 0a62 62 0 0118.51 2.71l-2.88 16.42q-9.78-2.71-14-2.71c-2.82 0-4.69.93-5.59 2.8s-1.35 5-1.35 9.52.42 7.77 1.26 9.87 2.62 3.14 5.36 3.14zm62.36 13.36h-34.59V.87h35.81l-1.22 14.42h-15.9v6.55h13.89v12.57h-13.89v7.43h17.12zM229 15.64h-11.52v39.47h-18.6V15.64h-12.14l.78-14.77h42.54zm50.23 39.47H260.8V36h-9.43v19.11h-18.69V.87h18.69v20.27h9.43V.87h18.43zm41.58 0h-34.59V.87H322l-1.22 14.42h-15.9v6.55h13.92v12.57h-13.89v7.43H322zm48.56-36.77a17.27 17.27 0 01-1.71 8.34 15.54 15.54 0 01-5.28 5.46l8.12 23h-19.3l-5.41-18.69h-1.4v18.66h-17.91V.87h23.15q10.13 0 14.93 4.24t4.81 13.23zm-20.31 6.25a7.61 7.61 0 00.83-4.15q0-3-.87-4.11a3.22 3.22 0 00-2.71-1.13H344v10.57h2.18a3.24 3.24 0 002.88-1.18z" fill="#010101"/></svg>