<?xml version="1.0" encoding="utf-8"?>
<!-- Generator: Adobe Illustrator 25.2.1, SVG Export Plug-In . SVG Version: 6.00 Build 0)  -->
<svg version="1.1" id="Layer_1" xmlns="http://www.w3.org/2000/svg" xmlns:xlink="http://www.w3.org/1999/xlink" x="0px" y="0px"
	 viewBox="0 0 540.9 50.3" style="enable-background:new 0 0 540.9 50.3;" xml:space="preserve">
<style type="text/css">
	.st0{fill:#FFFFFF;}
</style>
<g>
	<path class="st0" d="M6.5,28.6H0l0.8-5h6.5L8.7,16H2.2l0.9-5h6.4L11.5,0H17l-1.9,10.9h7.5L24.5,0H30l-1.9,10.9h6.6l-0.8,5h-6.6
		l-1.4,7.6h6.5l-0.8,5h-6.6l-1.7,10.2h-5.6l1.7-10.2h-7.4l-1.8,10.2H4.8L6.5,28.6z M20.4,23.6l1.4-7.6h-7.5l-1.4,7.6H20.4z"/>
	<path class="st0" d="M47,33.4h4.6V5.7h-7.3v5.8h-6.1V0h34v11.6h-6.1V5.7h-7.4v27.7h4.7v5.4H47V33.4z"/>
	<path class="st0" d="M76,33.6h4V17.3c0-0.8-0.4-1.2-1.2-1.2h-3.1v-5.2H83c2.5,0,3.7,1,3.7,3.4V16c0,1-0.1,1.7-0.1,1.7h0.1
		c1.3-4,4.6-7.2,8.8-7.2c0.7,0,1.3,0.1,1.3,0.1v6.8c0,0-0.7-0.1-1.7-0.1c-5.6,0-8.1,4.9-8.1,10.2v6.1h4v5.2H76V33.6z"/>
	<path class="st0" d="M115,21.6h1.7v-0.9c0-3.6-2.2-4.8-5.1-4.8c-4.2,0-7.9,2.7-7.9,2.7l-2.6-4.8c0,0,4.3-3.4,11-3.4
		c7.5,0,11.5,3.9,11.5,11v11.1c0,0.8,0.4,1.2,1.2,1.2h2.5v5.2h-6.6c-2.6,0-3.6-1.4-3.6-2.9v-0.3c0-0.9,0.2-1.4,0.2-1.4h-0.1
		c0,0-2.3,5.4-8.8,5.4c-4.8,0-9.2-2.8-9.2-8.5C99.3,22.5,110.5,21.6,115,21.6z M110.4,34.3c3.8,0,6.4-4,6.4-7.5v-0.9h-1.1
		c-2.7,0-9.3,0.4-9.3,4.6C106.3,32.5,107.8,34.3,110.4,34.3z"/>
	<path class="st0" d="M128.5,10.9h13.4v5.2h-3.1l4.8,13.8c0.5,1.4,0.7,3.1,0.7,3.1h0.2c0,0,0.2-1.6,0.7-3.1l4.9-13.8h-3.2v-5.2h13.4
		v5.2h-3.3l-8.5,22.7h-8l-8.5-22.7h-3.4V10.9z"/>
	<path class="st0" d="M176.8,10.3c8,0,12.4,5.8,12.4,13.2c0,0.8-0.2,2.3-0.2,2.3h-19.3c0.4,5.1,4.2,7.8,8.4,7.8
		c4.5,0,8.1-2.9,8.1-2.9l2.7,4.9c0,0-4.3,3.9-11.3,3.9c-9.2,0-15-6.7-15-14.6C162.6,16.3,168.4,10.3,176.8,10.3z M182,21.7
		c-0.1-3.8-2.5-6.1-5.4-6.1c-3.6,0-6.1,2.5-6.7,6.1H182z"/>
	<path class="st0" d="M195.3,5.2H191V0h11.2v29.5c0,2.5,0.5,3.8,2.8,3.8c0.8,0,1.3-0.1,1.3-0.1v5.6c0,0-1.1,0.2-2.5,0.2
		c-4.4,0-8.5-1.5-8.5-9.1V5.2z"/>
	<path class="st0" d="M210.8,33.4h4.6v-28h-4.6V0h17.1c2.8,0,5.2,0.2,7.4,0.8c4.3,1.4,7.2,4.9,7.2,10.4c0,5.4-2.8,9.2-7.3,10.8v0.1
		c0,0,1.1,0.6,1.9,2l4.5,8.1c0.5,1,1.3,1.3,2.6,1.3h1.3v5.4h-4.5c-3.2,0-4.2-0.7-5.4-2.9l-5.5-10c-0.8-1.5-1.5-2-3.8-2h-3.6v9.5h4.5
		v5.4h-16.3V33.4z M229,18.2c3.8,0,6.2-2.2,6.2-6.4c0-2.5-0.9-4.5-3.1-5.4c-1.1-0.5-2.6-0.7-4.4-0.7h-5.2v12.5H229z"/>
	<path class="st0" d="M262.8,10.3c8,0,12.4,5.8,12.4,13.2c0,0.8-0.2,2.3-0.2,2.3h-19.3c0.4,5.1,4.2,7.8,8.4,7.8
		c4.5,0,8.1-2.9,8.1-2.9l2.7,4.9c0,0-4.3,3.9-11.3,3.9c-9.2,0-15-6.7-15-14.6C248.6,16.3,254.4,10.3,262.8,10.3z M268,21.7
		c-0.1-3.8-2.5-6.1-5.4-6.1c-3.6,0-6.1,2.5-6.7,6.1H268z"/>
	<path class="st0" d="M279.1,29.5h5.9v1.6c0,1.9,2.6,2.9,5.5,2.9c2.8,0,4.8-1,4.8-2.8c0-2.3-2.6-3-6.3-4.3c-4.1-1.4-8.8-3.3-8.8-8.6
		c0-5.9,5.9-8,11-8c4,0,10.1,1.6,10.1,5.8v3.6h-6V18c0-1.4-1.6-2.3-4.1-2.3c-2.2,0-4,0.8-4,2.5c0,2.3,2.7,3.2,5.8,4.2
		c4.3,1.4,9.3,3.1,9.3,8.6c0,5.6-5.4,8.5-11.7,8.5c-5.1,0-11.3-2.2-11.3-6.7V29.5z"/>
	<path class="st0" d="M310,44.5V17.3c0-0.8-0.4-1.2-1.2-1.2h-3.1v-5.2h7.2c2.6,0,3.4,1.2,3.4,2.6v0.2c0,0.7-0.1,1.3-0.1,1.3h0.1
		c0,0,2.4-4.7,9-4.7c7.5,0,12.3,6,12.3,14.6c0,8.8-5.4,14.6-12.7,14.6c-5.5,0-8-3.9-8-3.9h-0.1c0,0,0.2,1,0.2,2.4v6.6h4v5.2h-15
		v-5.2H310z M323.7,33.6c3.8,0,7-3.1,7-8.6c0-5.3-2.8-8.7-6.9-8.7c-3.6,0-7,2.6-7,8.8C316.8,29.3,319.2,33.6,323.7,33.6z"/>
	<path class="st0" d="M356.8,10.3c8.5,0,15.4,6.1,15.4,14.6c0,8.6-6.8,14.6-15.3,14.6c-8.5,0-15.3-6-15.3-14.6
		C341.5,16.3,348.3,10.3,356.8,10.3z M356.9,33.5c4.5,0,8.2-3.5,8.2-8.7c0-5.1-3.8-8.7-8.2-8.7c-4.5,0-8.3,3.6-8.3,8.7
		C348.6,30,352.3,33.5,356.9,33.5z"/>
	<path class="st0" d="M376.5,33.6h4V17.3c0-0.8-0.4-1.2-1.2-1.2h-3.1v-5.2h7.3c2.5,0,3.6,1.1,3.6,3.1v1.3c0,0.6-0.1,1.2-0.1,1.2h0.1
		c0.3-0.9,3.3-6.2,10.3-6.2c6,0,9.3,3.2,9.3,10.6v12.7h4v5.2h-10.9V22.3c0-3.4-0.9-5.7-4.4-5.7c-5,0-8,4.8-8,9.7v7.3h4v5.2h-15V33.6
		z"/>
	<path class="st0" d="M414,29.5h5.9v1.6c0,1.9,2.6,2.9,5.5,2.9c2.8,0,4.8-1,4.8-2.8c0-2.3-2.6-3-6.3-4.3c-4.1-1.4-8.8-3.3-8.8-8.6
		c0-5.9,5.9-8,11-8c4,0,10.1,1.6,10.1,5.8v3.6h-6V18c0-1.4-1.6-2.3-4.1-2.3c-2.2,0-4,0.8-4,2.5c0,2.3,2.7,3.2,5.8,4.2
		c4.3,1.4,9.3,3.1,9.3,8.6c0,5.6-5.4,8.5-11.7,8.5c-5.1,0-11.3-2.2-11.3-6.7V29.5z"/>
	<path class="st0" d="M441.5,33.6h4V16.1h-4.3v-5.2h11.3v22.7h4v5.2h-15V33.6z M445.5,0h7v6.2h-7V0z"/>
	<path class="st0" d="M462.5,5.2h-4.3V0h11.2v12.1c0,1.4-0.1,2.3-0.1,2.3h0.1c0,0,2.5-4.2,8.4-4.2c7.5,0,12.4,6,12.4,14.6
		c0,8.8-5.5,14.6-12.8,14.6c-6.1,0-8.3-4.4-8.3-4.4h-0.1c0,0,0.1,1,0.1,2.1v1.7h-6.6V5.2z M476.1,33.6c3.8,0,7-3.1,7-8.6
		c0-5.3-2.8-8.7-6.9-8.7c-3.6,0-7,2.6-7,8.8C469.2,29.3,471.5,33.6,476.1,33.6z"/>
	<path class="st0" d="M496.2,5.2h-4.3V0h11.2v29.5c0,2.5,0.5,3.8,2.8,3.8c0.8,0,1.3-0.1,1.3-0.1v5.6c0,0-1.1,0.2-2.5,0.2
		c-4.4,0-8.5-1.5-8.5-9.1V5.2z"/>
	<path class="st0" d="M516.1,44.6c2.2,0,4-1.2,4.9-3.2l0.8-1.7l-9.6-23.5h-3.3v-5.2h13.7v5.2h-3.3l5.1,14.1c0.5,1.4,0.6,2.9,0.6,2.9
		h0.2c0,0,0.2-1.5,0.8-2.9l5-14.1h-3.2v-5.2h13.2v5.2h-3.2l-10.3,26.3c-2.1,5.5-6.3,7.9-11,7.9c-4,0-6.8-1.9-6.8-1.9l2.2-5.1
		C511.9,43.3,513.5,44.6,516.1,44.6z"/>
</g>
</svg>
