<?xml version="1.0" encoding="utf-8"?>
<!-- Generator: Adobe Illustrator 24.2.1, SVG Export Plug-In . SVG Version: 6.00 Build 0)  -->
<svg version="1.1" id="Layer_1" xmlns="http://www.w3.org/2000/svg" xmlns:xlink="http://www.w3.org/1999/xlink" x="0px" y="0px"
	 viewBox="0 0 838.4 460.6" style="enable-background:new 0 0 838.4 460.6;" xml:space="preserve">
<style type="text/css">
	.st0{fill:#FFD82B;}
	.st1{fill:#FF8524;}
</style>
<path class="st0" d="M354.8,137.2c36.2,0,61.8,27,61.8,61.2s-25.6,61.2-61.8,61.2c-36.3,0-61.8-27-61.8-61.2
	S318.5,137.2,354.8,137.2z"/>
<path class="st1" d="M29.8,85c0,6.6,5.3,12,11.9,12.1c7.1,0,11.5-4,11.5-10c0-8.6-11.3-11.1-20.7-14.4c-19.3-6.9-30-15.9-30-35.6
	C2.5,16.8,19.9,0,41.5,0C67,0,79,16.3,80.5,37.5H54.1c0-6.5-4-11.9-11.9-11.9c-6.1,0-12.1,3.6-12.1,11.1c0,8.6,10.5,10.1,20.3,13
	c20.5,6.1,30,17.6,30,35.6c0,20.3-17.2,37.1-38.8,37.1c-25.1,0-39.2-16.8-39.2-37.5L29.8,85z"/>
<path class="st1" d="M145.4,0h5l56.3,118.6h-30.3l-5.7-11.9h-45.4l-5.6,11.9H89.6L145.4,0z M161.1,86.7l-13.2-29.1h-0.4l-13.4,29.1
	H161.1z"/>
<path class="st1" d="M218.9,3.8h29.7L293.2,72V3.8h27.9v114.8h-29.3l-44.8-68.3v68.3h-28.1V3.8z"/>
<path class="st1" d="M359.8,28.7h-25.6V3.8h80v24.9h-26v89.9h-28.4V28.7z"/>
<path class="st1" d="M459.7,0h5l56.3,118.6h-30.3l-5.7-11.9h-45.3l-5.5,11.9h-30.3L459.7,0z M475.3,86.7l-13.2-29.1h-0.4l-13.4,29.1
	H475.3z"/>
<path class="st1" d="M162.7,141.1h26.2l29.3,62l29.5-62h25.8v114.8h-27.9v-51.1l-25.1,54.9h-4.6l-25.1-55.3v51.5h-28.1V141.1z"/>
<path class="st1" d="M436.2,141.1h29.7l44.6,68.1v-68.1h27.9v114.8h-29.3l-44.8-68.3v68.3h-28.1V141.1z"/>
<path class="st1" d="M556.7,141.1h28.1v114.8h-28.1V141.1z"/>
<path class="st1" d="M666.6,137.2c21.8,0,36.9,8.2,49.2,21l-19.3,18.4c-8-7.9-18.4-12.8-29.8-12.8c-20.5,0-33.7,15.3-33.7,34.6
	s13.2,34.6,33.7,34.6c11.5,0,21.8-5,29.8-12.8l18.8,18.4c-11.5,12.1-27.4,21-48.6,21c-36.4,0-62.2-27-62.2-61.2
	S630.2,137.2,666.6,137.2z"/>
<path class="st1" d="M775.3,137.2h5l56.3,118.6h-30.3l-5.7-11.9h-45.3l-5.6,11.9h-30.2L775.3,137.2z M791,223.9l-13.2-29.1h-0.4
	L764,223.9H791z"/>
<path class="st0" d="M41.5,403.7c-0.1,10,8,18.2,18,18.3c10.8,0,17.4-6.1,17.4-15.1c0-13.1-17.1-16.8-31.4-21.8
	C16.3,374.7,0,361.1,0,331.2c0-30.8,26.4-56.3,59.2-56.3c38.6,0,56.9,24.7,59.2,56.9H78.4c0-9.9-6.1-18-18-18
	c-9.3,0-18.3,5.5-18.3,16.8c0,13.1,16,15.4,30.8,19.7c31.1,9.3,45.6,26.7,45.6,54c0,30.8-26.1,56.3-58.9,56.3
	c-38,0-59.5-25.5-59.5-56.9H41.5z"/>
<path class="st0" d="M147.2,280.6h42.7v68.5h68.2v-68.5h42.4v174.2h-42.4V386h-68.2v68.8h-42.7V280.6z"/>
<path class="st0" d="M328.3,280.6H371v174.2h-42.7V280.6z"/>
<path class="st0" d="M398.9,280.6h45L511.5,384V280.6h42.4v174.2h-44.4l-67.9-103.6v103.6h-42.7V280.6z"/>
<path class="st0" d="M581.8,280.6H697v37.7h-72.6v31.3h67.1v37.2h-67.1v31.3h75.8v36.6H581.8V280.6z"/>
<path class="st0" d="M761.4,403.7c-0.1,10,8,18.2,18,18.3c10.8,0,17.4-6.1,17.4-15.1c0-13.1-17.1-16.8-31.3-21.8
	c-29.3-10.5-45.6-24.1-45.6-54c0-30.8,26.4-56.3,59.2-56.3c38.6,0,56.9,24.7,59.2,56.9h-40.1c0-9.9-6.1-18-18-18
	c-9.3,0-18.3,5.5-18.3,16.8c0,13.1,16,15.4,30.8,19.7c31.1,9.3,45.6,26.7,45.6,54c0,30.8-26.1,56.3-58.9,56.3
	c-38,0-59.5-25.5-59.5-56.9H761.4z"/>
</svg>
