<?xml version="1.0" encoding="utf-8"?>
<!-- Generator: Adobe Illustrator 25.2.1, SVG Export Plug-In . SVG Version: 6.00 Build 0)  -->
<svg version="1.1" id="Layer_1" xmlns="http://www.w3.org/2000/svg" xmlns:xlink="http://www.w3.org/1999/xlink" x="0px" y="0px"
	 viewBox="0 0 369.3 208" style="enable-background:new 0 0 369.3 208;" xml:space="preserve">
<style type="text/css">
	.st0{fill:#099AAD;}
</style>
<path class="st0" d="M90.5,0h2.2l24.4,51.4H104l-2.5-5.1H81.8l-2.4,5.1H66.3L90.5,0z M97.3,37.6L91.6,25h-0.2l-5.8,12.6H97.3z"/>
<path class="st0" d="M137.7,1.7h20.8c10.7,0,17.7,6.5,17.7,15.8c0,8.7-4.4,13.6-11.8,15.4l13.4,18.5h-15.3l-12.7-18.6v18.6h-12.2
	V1.7z M159.7,23.2c2.7,0,4.6-2.8,4.6-5.7c0-2.9-2.2-5.5-4.9-5.5h-9.5v11.2H159.7z"/>
<path class="st0" d="M180.1,1.7h32.9v10.8h-20.7v9h19.2V32h-19.2v9H214v10.5h-33.9V1.7z"/>
<path class="st0" d="M239.4,0h2.2l24.4,51.4h-13.1l-2.5-5.1h-19.7l-2.4,5.1h-13.1L239.4,0z M246.2,37.6L240.5,25h-0.2l-5.8,12.6
	H246.2z"/>
<path class="st0" d="M269.2,1.7h12.2V41H303v10.5h-33.9V1.7z"/>
<path class="st0" d="M0,79.1h20.8c10.7,0,17.7,6.5,17.7,15.8c0,8.7-4.4,13.6-11.8,15.4l13.4,18.5H24.9l-12.7-18.6v18.6H0V79.1z
	 M22,100.7c2.7,0,4.6-2.8,4.6-5.7s-2.2-5.5-4.9-5.5h-9.5v11.2H22z"/>
<path class="st0" d="M42.4,79.1h32.9v10.8H54.6v9h19.2v10.6H54.6v9h21.7v10.5H42.4V79.1z"/>
<path class="st0" d="M107.5,77.4c9.5,0,16,3.6,21.3,9.1l-8.4,8c-3.5-3.4-8-5.6-12.9-5.6c-8.9,0-14.6,6.6-14.6,15
	c0,8.4,5.7,15,14.6,15c5,0,9.5-2.2,12.9-5.6l8.1,8c-5,5.2-11.9,9.1-21.1,9.1c-15.8,0-27-11.7-27-26.6
	C80.6,89.1,91.8,77.4,107.5,77.4z"/>
<path class="st0" d="M132.7,79.1h12.2v19.6h19.5V79.1h12.1v49.8h-12.1v-19.7h-19.5v19.7h-12.2V79.1z"/>
<path class="st0" d="M204,77.4h2.2l24.4,51.4h-13.1l-2.5-5.1h-19.7l-2.4,5.1h-13.1L204,77.4z M210.8,115l-5.7-12.6h-0.2l-5.8,12.6
	H210.8z"/>
<path class="st0" d="M233.7,79.1h20.8c10.7,0,17.7,6.5,17.7,15.8c0,8.7-4.4,13.6-11.8,15.4l13.4,18.5h-15.3l-12.7-18.6v18.6h-12.2
	V79.1z M255.7,100.7c2.7,0,4.6-2.8,4.6-5.7s-2.2-5.5-4.9-5.5h-9.5v11.2H255.7z"/>
<path class="st0" d="M302.9,77.4c9.2,0,15.6,3.4,20.8,8.7l-8.5,7.8c-3.4-3.1-7.6-5-12.4-5c-8.9,0-14.6,6.6-14.6,15
	c0,9.2,6.6,15,14.9,15c8.7,0,12.9-4.8,13.3-9.6h-14.2V98.9h27.4v4.7c0,14.7-8.6,27-26.7,27c-15.8,0-27-11.7-27-26.6
	C275.9,89.1,287.1,77.4,302.9,77.4z"/>
<path class="st0" d="M335.5,79.1h32.9v10.8h-20.7v9h19.2v10.6h-19.2v9h21.7v10.5h-33.9V79.1z"/>
<path class="st0" d="M81.9,191.7c0,2.9,2.3,5.2,5.1,5.2c3.1,0,5-1.7,5-4.3c0-3.7-4.9-4.8-9-6.2c-8.4-3-13-6.9-13-15.4
	c0-8.8,7.6-16.1,16.9-16.1c11,0,16.3,7.1,16.9,16.3H92.4c0-2.8-1.7-5.1-5.1-5.1c-2.7,0-5.2,1.6-5.2,4.8c0,3.7,4.6,4.4,8.8,5.6
	c8.9,2.7,13,7.6,13,15.4c0,8.8-7.5,16.1-16.8,16.1c-10.9,0-17-7.3-17-16.3H81.9z"/>
<path class="st0" d="M118,167.3h-11.1v-10.8h34.7v10.8h-11.3v39H118V167.3z"/>
<path class="st0" d="M159.2,154.9h2.2l24.4,51.4h-13.1l-2.5-5.1h-19.7l-2.4,5.1H135L159.2,154.9z M166,192.5l-5.7-12.6h-0.2
	l-5.8,12.6H166z"/>
<path class="st0" d="M189,156.5h20.8c10.7,0,17.7,6.5,17.7,15.8c0,8.7-4.4,13.6-11.8,15.4l13.4,18.5h-15.3l-12.7-18.6v18.6H189
	V156.5z M211,178.1c2.7,0,4.6-2.8,4.6-5.7s-2.2-5.5-4.9-5.5h-9.5v11.2H211z"/>
<path class="st0" d="M239.4,167.3h-11.1v-10.8h34.7v10.8h-11.3v39h-12.3V167.3z"/>
<path class="st0" d="M277.3,191.7c0,2.9,2.3,5.2,5.1,5.2c3.1,0,5-1.7,5-4.3c0-3.7-4.9-4.8-9-6.2c-8.4-3-13-6.9-13-15.4
	c0-8.8,7.6-16.1,16.9-16.1c11,0,16.3,7.1,16.9,16.3h-11.5c0-2.8-1.7-5.1-5.1-5.1c-2.7,0-5.2,1.6-5.2,4.8c0,3.7,4.6,4.4,8.8,5.6
	c8.9,2.7,13,7.6,13,15.4c0,8.8-7.5,16.1-16.8,16.1c-10.9,0-17-7.3-17-16.3H277.3z"/>
</svg>
