<?xml version="1.0" encoding="utf-8"?>
<!-- Generator: Adobe Illustrator 25.2.1, SVG Export Plug-In . SVG Version: 6.00 Build 0)  -->
<svg version="1.1" id="Layer_1" xmlns="http://www.w3.org/2000/svg" xmlns:xlink="http://www.w3.org/1999/xlink" x="0px" y="0px"
	 viewBox="0 0 296.6 211.4" style="enable-background:new 0 0 296.6 211.4;" xml:space="preserve">
<style type="text/css">
	.st0{fill:#099AAD;}
</style>
<path class="st0" d="M0,15.2h15.8v4.3h-5.7l8,25.7c0.5,1.4,0.6,3,0.6,3h0.2c0,0,0.2-1.6,0.6-3l9.6-29.8h5.1l9.6,29.8
	c0.4,1.4,0.6,3,0.6,3h0.2c0,0,0.2-1.6,0.5-3l8.1-25.7h-5.7v-4.3h15.8v4.3h-4.9l-10.9,34h-5.6l-9.4-28.7c-0.5-1.4-0.7-3-0.7-3h-0.2
	c0,0-0.2,1.7-0.7,3l-9.4,28.7h-5.6l-10.9-34H0V15.2z"/>
<path class="st0" d="M67.5,49.2h6.5V19.5h-6.8v-4.3h12v34h6.5v4.3H67.5V49.2z M73.6,0h5.9v6.5h-5.9V0z"/>
<path class="st0" d="M95.7,19.5h-6.8v-4.3h6.9V4.6h5.1v10.6h9.7v4.3h-9.7v19.6c0,9,5.7,10.2,8.7,10.2c1.1,0,1.7-0.2,1.7-0.2v4.5
	c0,0-0.9,0.2-2.2,0.2c-4.4,0-13.4-1.4-13.4-14.2V19.5z"/>
<path class="st0" d="M115.5,49.2h6.5V4.3h-6.8V0h12v21c0,1.7-0.3,3.1-0.3,3.1h0.2c1.5-3.6,6.7-9.8,15.4-9.8
	c9.4,0,12.8,5.4,12.8,14.8v20.1h6.5v4.3H150v-23c0-6-0.9-11.3-8.3-11.3c-8.2,0-14.5,6.8-14.5,16v14.1h6.5v4.3h-18.1V49.2z"/>
<path class="st0" d="M190.5,19.5h-6.8v-4.3h6.9V4.6h5.1v10.6h9.7v4.3h-9.7v19.6c0,9,5.7,10.2,8.7,10.2c1.1,0,1.7-0.2,1.7-0.2v4.5
	c0,0-0.9,0.2-2.2,0.2c-4.4,0-13.4-1.4-13.4-14.2V19.5z"/>
<path class="st0" d="M210.3,49.2h6.5V4.3H210V0h12v21c0,1.7-0.3,3.1-0.3,3.1h0.2c1.5-3.6,6.7-9.8,15.4-9.8c9.4,0,12.8,5.4,12.8,14.8
	v20.1h6.5v4.3h-11.7v-23c0-6-0.9-11.3-8.3-11.3c-8.2,0-14.5,6.8-14.5,16v14.1h6.5v4.3h-18.1V49.2z"/>
<path class="st0" d="M280.5,14.3c10.6,0,16,8.1,16,17.6c0,0.9-0.2,2.4-0.2,2.4H267c0.2,9.8,6.9,15.4,14.8,15.4
	c7,0,11.6-4.6,11.6-4.6l2.4,3.9c0,0-5.5,5.3-14.1,5.3c-11.4,0-20-8.2-20-20C261.7,21.8,270.2,14.3,280.5,14.3z M291.2,30.6
	c-0.3-8.1-5.2-11.9-10.8-11.9c-6.4,0-11.9,4.2-13.2,11.9H291.2z"/>
<path class="st0" d="M63.8,120.2h5.9V92.1c0-1.1-0.6-1.7-1.7-1.7h-5.2v-4.3h7.2c3.2,0,4.6,1.3,4.6,4.3v2.6c0,1.6-0.2,2.9-0.2,2.9
	h0.2c1.9-5.8,6.2-10.2,12.1-10.2c1.1,0,2.1,0.2,2.1,0.2v5.1c0,0-1-0.2-2-0.2c-8.6,0-12.1,9.7-12.1,17.3v11.9h5.9v4.3h-17V120.2z"/>
<path class="st0" d="M93.7,120.2h6.5V90.4h-6.8v-4.3h12v34h6.5v4.3H93.7V120.2z M99.9,71h5.9v6.5h-5.9V71z"/>
<path class="st0" d="M133.3,135.8c7.5,0,13.4-3.5,13.4-12.1v-3.8c0-1.4,0.2-2.7,0.2-2.7h-0.2c-2.3,4.3-6.2,7-12.2,7
	c-10.3,0-17-8.1-17-19.6s6.3-19.3,16.6-19.3c5.4,0,10.8,2.1,12.9,6.8h0.2c0,0-0.2-0.5-0.2-1.7c0-2.8,1.1-4.2,4.4-4.2h6.8v4.3h-4.7
	c-1.1,0-1.7,0.5-1.7,1.6v31.5c0,12.2-9,16.9-18.4,16.9c-4.3,0-8.7-1.1-12.5-3l2-4.2C122.9,133.2,127.6,135.8,133.3,135.8z
	 M146.7,104.6c0-11.2-5.3-14.7-12.1-14.7c-7.5,0-11.8,5.5-11.8,14.6c0,9.2,4.9,15.1,12.5,15.1C141.4,119.6,146.7,115.8,146.7,104.6z
	"/>
<path class="st0" d="M162.6,120.2h6.5V75.2h-6.8V71h12v21c0,1.7-0.3,3.1-0.3,3.1h0.2c1.5-3.6,6.7-9.8,15.4-9.8
	c9.4,0,12.8,5.4,12.8,14.8v20.1h6.5v4.3h-11.7v-23c0-6-0.9-11.3-8.3-11.3c-8.2,0-14.5,6.8-14.5,16v14.1h6.5v4.3h-18.1V120.2z"/>
<path class="st0" d="M218.1,90.4h-6.8v-4.3h6.9V75.6h5.1v10.6h9.7v4.3h-9.7v19.6c0,9,5.7,10.2,8.7,10.2c1.1,0,1.7-0.2,1.7-0.2v4.5
	c0,0-0.9,0.2-2.2,0.2c-4.4,0-13.4-1.4-13.4-14.2V90.4z"/>
<path class="st0" d="M43.9,156.2c10.6,0,16,8.1,16,17.6c0,0.9-0.2,2.4-0.2,2.4H30.4c0.2,9.8,6.9,15.4,14.8,15.4
	c7,0,11.6-4.6,11.6-4.6l2.4,3.9c0,0-5.5,5.3-14.1,5.3c-11.4,0-20-8.2-20-20C25.1,163.8,33.6,156.2,43.9,156.2z M54.6,172.5
	c-0.3-8.1-5.2-11.9-10.8-11.9c-6.4,0-11.9,4.2-13.2,11.9H54.6z"/>
<path class="st0" d="M65.1,191.2h6.5v-28.1c0-1.1-0.6-1.7-1.7-1.7h-5.2v-4.3H72c3.2,0,4.6,1.4,4.6,4.3v2.2c0,1.5-0.3,2.7-0.3,2.7
	h0.2c1.1-2.9,6-10.1,15.6-10.1c9.4,0,12.7,5.4,12.7,14.8v20.1h6.5v4.3H99.6v-23c0-6-1-11.3-8.4-11.3c-8.4,0-14.5,7.5-14.5,15.9v14.1
	h6.5v4.3H65.1V191.2z"/>
<path class="st0" d="M133.3,156.2c10.6,0,16,8.1,16,17.6c0,0.9-0.2,2.4-0.2,2.4h-29.4c0.2,9.8,6.9,15.4,14.8,15.4
	c7,0,11.6-4.6,11.6-4.6l2.4,3.9c0,0-5.5,5.3-14.1,5.3c-11.4,0-20-8.2-20-20C114.5,163.8,123,156.2,133.3,156.2z M144,172.5
	c-0.3-8.1-5.2-11.9-10.8-11.9c-6.4,0-11.9,4.2-13.2,11.9H144z"/>
<path class="st0" d="M154.9,191.2h5.9v-28.1c0-1.1-0.6-1.7-1.7-1.7h-5.2v-4.3h7.2c3.2,0,4.6,1.3,4.6,4.3v2.6c0,1.6-0.2,2.9-0.2,2.9
	h0.2c1.9-5.8,6.2-10.2,12.1-10.2c1.1,0,2.1,0.2,2.1,0.2v5.1c0,0-1-0.2-2-0.2c-8.6,0-12.1,9.7-12.1,17.3v11.9h5.9v4.3h-17V191.2z"/>
<path class="st0" d="M198.6,206.8c7.5,0,13.4-3.5,13.4-12.1v-3.8c0-1.4,0.2-2.7,0.2-2.7H212c-2.3,4.3-6.2,7-12.2,7
	c-10.3,0-17-8.1-17-19.6c0-11.5,6.3-19.3,16.6-19.3c5.4,0,10.8,2.1,12.9,6.8h0.2c0,0-0.2-0.5-0.2-1.7c0-2.8,1.1-4.2,4.4-4.2h6.8v4.3
	h-4.7c-1.1,0-1.7,0.5-1.7,1.6v31.5c0,12.2-9,16.9-18.4,16.9c-4.3,0-8.7-1.1-12.5-3l2-4.2C188.2,204.2,193,206.8,198.6,206.8z
	 M212,175.6c0-11.2-5.3-14.7-12.1-14.7c-7.5,0-11.8,5.5-11.8,14.6c0,9.2,4.9,15.1,12.5,15.1C206.7,190.5,212,186.8,212,175.6z"/>
<path class="st0" d="M233.6,206.8c3.4,0,5.9-2.7,7.3-6.1l2.1-5.1l-13.7-34.2h-5v-4.3h16v4.3h-5.6l10,26.1c0.5,1.4,0.6,2.7,0.6,2.7
	h0.2c0,0,0.2-1.3,0.8-2.7l10-26.1H251v-4.3h15.8v4.3h-5l-16.3,41.1c-2.2,5.5-6.4,8.9-11.7,8.9c-4.3,0-7.2-2.3-7.2-2.3l2-4.1
	C228.5,205,230.8,206.8,233.6,206.8z"/>
<path class="st0" d="M265.4,189.1h6.2v6.3h-6.2V189.1z"/>
</svg>
