<svg id="Layer_1" data-name="Layer 1" xmlns="http://www.w3.org/2000/svg" viewBox="0 0 250 200"><defs><style>.cls-1{fill:#1b242f;}.cls-2{fill:#fff;}</style></defs><rect class="cls-1" width="250" height="200"/><path class="cls-2" d="M50.3,88.22h4.52a6.27,6.27,0,0,1,3.9,1A4.48,4.48,0,0,1,60.6,93a3.67,3.67,0,0,1-2.17,3.42v0a4,4,0,0,1,3.38,4.18,5,5,0,0,1-5.23,4.91H50.3Zm4.93,7.56c1.78,0,3.17-1,3.17-2.72a2.83,2.83,0,0,0-.86-2.12,4,4,0,0,0-2.74-.8H52.49v5.64Zm.59,7.88c3,0,3.79-1.4,3.79-3,0-1.37-.84-3-3.79-3H52.49v6Z"/><path class="cls-2" d="M71.94,97.61c0-2-2-2.4-3.56-2.4A7.2,7.2,0,0,0,65.1,96l-.9-1.71a10.92,10.92,0,0,1,4.3-.91c2.85,0,5.5,1.21,5.5,4v8.13H72.08V104.3a4.81,4.81,0,0,1-3.79,1.55c-2.9,0-5.18-1.61-5.18-4.27,0-2.17,1.85-4.09,5.16-4.09A5.43,5.43,0,0,1,72,98.84ZM68.66,99.3c-2.52,0-3.36,1.22-3.36,2.38s.84,2.37,3.36,2.37S72,102.84,72,101.68,71.17,99.3,68.66,99.3Z"/><path class="cls-2" d="M79,88.22v13.64c0,1.34.66,1.8,1.32,1.8h.62v1.92h-.85c-1.89,0-3.15-1.07-3.15-3.56V88.22Z"/><path class="cls-2" d="M82.9,88.22H85v7.33h0a5.52,5.52,0,0,1,4.53-2.14,6.15,6.15,0,0,1,6.19,6.09,6.26,6.26,0,0,1-6.29,6.35,5.2,5.2,0,0,1-4.43-2.1h0v1.83H82.9Zm6.26,7.1a4.31,4.31,0,1,0,4.36,4.21A4.25,4.25,0,0,0,89.16,95.32Z"/><path class="cls-2" d="M103.82,93.41a6.27,6.27,0,0,1,6.44,6.23,6.44,6.44,0,0,1-12.88,0A6.27,6.27,0,0,1,103.82,93.41Zm-4.25,6.23a4.25,4.25,0,1,0,8.5,0,4.25,4.25,0,0,0-8.5-.13Z"/><path class="cls-2" d="M120.4,97.61c0-2-2-2.4-3.56-2.4a7.27,7.27,0,0,0-3.29.82l-.9-1.71a10.92,10.92,0,0,1,4.3-.91c2.85,0,5.5,1.21,5.5,4v8.13h-1.92V104.3a4.81,4.81,0,0,1-3.79,1.55c-2.9,0-5.17-1.61-5.17-4.27,0-2.17,1.84-4.09,5.16-4.09a5.4,5.4,0,0,1,3.67,1.35Zm-3.29,1.69c-2.51,0-3.36,1.22-3.36,2.38s.85,2.37,3.36,2.37,3.36-1.21,3.36-2.37S119.62,99.3,117.11,99.3Z"/><path class="cls-2" d="M129.67,88.22h4.52a6.27,6.27,0,0,1,3.9,1A4.48,4.48,0,0,1,140,93a3.67,3.67,0,0,1-2.17,3.42v0a4,4,0,0,1,3.38,4.18,5,5,0,0,1-5.23,4.91h-6.28Zm4.93,7.56c1.78,0,3.17-1,3.17-2.72a2.83,2.83,0,0,0-.86-2.12,4,4,0,0,0-2.74-.8h-2.31v5.64Zm.59,7.88c2.95,0,3.79-1.4,3.79-3,0-1.37-.84-3-3.79-3h-3.33v6Z"/><path class="cls-2" d="M151.43,97.61c0-2-2-2.4-3.56-2.4a7.27,7.27,0,0,0-3.29.82l-.89-1.71a10.88,10.88,0,0,1,4.29-.91c2.86,0,5.5,1.21,5.5,4v8.13h-1.92V104.3a4.81,4.81,0,0,1-3.79,1.55c-2.9,0-5.17-1.61-5.17-4.27,0-2.17,1.84-4.09,5.15-4.09a5.41,5.41,0,0,1,3.68,1.35Zm-3.29,1.69c-2.51,0-3.36,1.22-3.36,2.38s.85,2.37,3.36,2.37,3.36-1.21,3.36-2.37S150.65,99.3,148.14,99.3Z"/><path class="cls-2" d="M159.53,105.4l-4.95-11.72h2.33l3.81,9.18,3.86-9.18h2.19L156,118.76H153.8Z"/><path class="cls-2" d="M180.53,90.87h0l.41.27Z"/><path class="cls-2" d="M194.15,99a39,39,0,0,0-9.32-5.63l-.16-.07s4.45,2.26,3.93,4.48c-.35,1.5-2.87,1.92-2.87,1.92s2.85.73,2.72,2.6-4,2.8-4,2.8a49.13,49.13,0,0,1,7.51-.66c3.73,0,7.75,3.45,7.75,3.45S200.22,103.92,194.15,99Z"/><path class="cls-2" d="M180.94,91.15l.17.1Z"/><path class="cls-2" d="M181.1,91.26l-.16-.11-.41-.27a27.2,27.2,0,0,1-5.25-3.83,33.24,33.24,0,0,1-1.94,9.81,22.23,22.23,0,0,1-6.2,8.72,58,58,0,0,0,7.63,1,12.82,12.82,0,0,0,1.64,0l.34,0a4.51,4.51,0,0,0,3.89-2.66c1.46-2.86-2.6-5.41-2.6-5.41s4.44.22,5.43-2.47C184.27,93.82,183,92.54,181.1,91.26Z"/><path class="cls-2" d="M175.77,81.21a2,2,0,0,0-2.35,3l-14.89,34.59h2.18L175.24,85a2,2,0,0,0,.54-3.79Z"/><path class="cls-2" d="M101.88,114.44v4.32h-1.32V108.62h3c2,0,3.52,1.12,3.52,3.07a3.11,3.11,0,0,1-3.19,3l4.09,4h-1.86Zm0-.79c.18,0,.38,0,1.17,0,2,0,2.73-.86,2.73-2a2,2,0,0,0-2.22-2h-1.68Z"/><path class="cls-2" d="M110,108.63h5.43v1.2h-4.1V113h4.1v1.2h-4.1v3.32h4.1v1.2H110Z"/><path class="cls-2" d="M122.73,111.52a2,2,0,0,0-2-1.93c-1.49,0-1.89.94-1.89,1.64s.5,1.24,1.53,1.61l1.33.49c1.67.6,2.44,1.54,2.44,2.77,0,1.64-1.35,2.83-3.37,2.83a3.08,3.08,0,0,1-3.42-3h1.32a1.91,1.91,0,0,0,2.17,1.88,1.78,1.78,0,0,0,2-1.6c0-.79-.68-1.3-1.63-1.66l-1.34-.5c-1.56-.59-2.34-1.47-2.34-2.78,0-1.75,1.51-2.8,3.24-2.8a3.06,3.06,0,0,1,3.25,3Z"/><path class="cls-2" d="M131.09,108.46a5.24,5.24,0,1,1-5.57,5.23A5.33,5.33,0,0,1,131.09,108.46Zm0,9.26a4,4,0,1,0-4.16-4A4.08,4.08,0,0,0,131.09,117.72Z"/><path class="cls-2" d="M139.86,114.44v4.32h-1.33V108.62h3c2,0,3.52,1.12,3.52,3.07a3.1,3.1,0,0,1-3.19,3l4.09,4h-1.86Zm0-.79c.18,0,.37,0,1.16,0,2,0,2.73-.86,2.73-2a2,2,0,0,0-2.22-2h-1.67Z"/><path class="cls-2" d="M149.55,109.83h-2.63v-1.2h6.58v1.2h-2.63v8.93h-1.32Z"/><path class="cls-2" d="M164.18,116.3h-.84V116h2v.3h-.85v2.46h-.36Z"/><path class="cls-2" d="M168,117.55c0-.38,0-.85,0-1.19h0c-.1.32-.21.67-.35,1l-.49,1.34h-.27l-.45-1.32c-.13-.39-.24-.75-.32-1.08h0c0,.35,0,.81-.05,1.22l-.07,1.19h-.34l.19-2.77h.46l.47,1.34a9.52,9.52,0,0,1,.28.94h0c.07-.28.17-.59.29-.94l.5-1.34h.45l.17,2.77h-.35Z"/></svg>