<svg id="Layer_1" data-name="Layer 1" xmlns="http://www.w3.org/2000/svg" viewBox="0 0 250 200"><defs><style>.cls-1{fill:#1b242f;}.cls-2{fill:#fff;}</style></defs><rect class="cls-1" width="250" height="200"/><polygon class="cls-2" points="72.94 91.17 72.94 108.83 88.25 108.83 88.25 106.41 75.69 106.41 75.69 100.41 80.59 100.41 80.59 98.05 75.69 98.05 75.69 93.59 87.88 93.59 87.88 91.17 72.94 91.17"/><path class="cls-2" d="M102,100.45c3.5,0,5.15-.87,5.15-3.49s-1.7-3.37-5.15-3.37H97.12v6.86Zm.1,2.37H97.12v6H94.37V91.17h7.7c4.88,0,7.66,2,7.66,5.79s-2.9,5.85-7.66,5.85"/><polyline class="cls-2" points="105.37 102.46 109.73 108.83 106.56 108.83 102.3 102.71"/><path class="cls-2" d="M61.84,106.41a2.81,2.81,0,0,0,3.15-3c0-1.77-1.09-3-3.27-3H52.44v6Zm-.44-8.36a2.11,2.11,0,0,0,2.41-2.23c0-1.32-.75-2.24-2.46-2.24H52.44v4.47ZM49.69,91.17H61.53c3.3,0,5,2,5,4.44A3.35,3.35,0,0,1,64.13,99a4.36,4.36,0,0,1,3.61,4.5c0,3-2,5.32-5.74,5.32H49.69Z"/><polygon class="cls-2" points="124.36 100.95 115.3 91.08 115.3 108.92 117.92 108.92 117.92 97.92 124.36 104.69 130.8 97.92 130.8 108.92 133.43 108.92 133.43 91.08 124.36 100.95"/><path class="cls-2" d="M138.67,102.51V91.05h2.75v11.3c0,2.86,2.82,4.13,5.39,4.13s4.71-1.27,4.71-4.13V91.05h2.72v11.46c0,4.28-3.61,6.44-7.43,6.44s-8.14-2.16-8.14-6.44"/><path class="cls-2" d="M168,106.41c4.59,0,7-2.64,7-6.41s-2.42-6.41-7-6.41H162.4v12.82Zm-8.3-15.24h8.48c5.66,0,9.42,3.53,9.42,8.83s-3.73,8.83-9.42,8.83h-8.48Z"/><path class="cls-2" d="M189.68,96.2l5.89,10.1H183.79Zm-10.32,12.65H200l-10.32-17.7Z"/></svg>