<svg id="Layer_1" data-name="Layer 1" xmlns="http://www.w3.org/2000/svg" viewBox="0 0 250 200"><defs><style>.cls-1{fill:#1b242f;}.cls-2{fill:#fff;}</style></defs><rect class="cls-1" width="250" height="200"/><path class="cls-2" d="M64.92,81V94.15h0a11.4,11.4,0,0,0,11.4-11.34V81Z"/><path class="cls-2" d="M76.32,108V94.92h0a11.39,11.39,0,0,0-11.4,11.34V108Z"/><path class="cls-2" d="M61,108a13.77,13.77,0,0,1,0-27Z"/><path class="cls-2" d="M95.7,105.46A11.77,11.77,0,0,1,86.79,102a10.61,10.61,0,0,1-2.94-7.6A11.45,11.45,0,0,1,87,86.29a12.61,12.61,0,0,1,9.55-3.78A14.36,14.36,0,0,1,103,83.92a.25.25,0,0,1,.13.22v4.67A.24.24,0,0,1,103,89h0a.23.23,0,0,1-.21-.15c-1.13-2.8-3.35-4.16-6.79-4.16a7.84,7.84,0,0,0-6.33,2.8,9.41,9.41,0,0,0-2.14,6.25,9.69,9.69,0,0,0,2.2,6.41,8.23,8.23,0,0,0,6.62,2.91,9.49,9.49,0,0,0,7-3.27.25.25,0,0,1,.26-.06.23.23,0,0,1,.15.22v2.09a.24.24,0,0,1-.06.17A10.61,10.61,0,0,1,95.7,105.46Z"/><path class="cls-2" d="M140.67,84.69a10.66,10.66,0,0,0-7.8,3,10.24,10.24,0,0,0-3,7.56,9.94,9.94,0,0,0,2.85,7.29,10.05,10.05,0,0,0,7.42,2.86,10.57,10.57,0,0,0,7.83-3.09,10.29,10.29,0,0,0,2.94-7.49,9.72,9.72,0,0,0-10.2-10.15Zm7,10.81a8,8,0,0,1-1.94,5.56,6.49,6.49,0,0,1-5,2.11,7,7,0,0,1-5.53-2.42,9.34,9.34,0,0,1-2.12-6.31A7.73,7.73,0,0,1,135,89a6.57,6.57,0,0,1,5-2,7,7,0,0,1,5.55,2.39A9.11,9.11,0,0,1,147.68,95.5Z"/><path class="cls-2" d="M158.62,87.23s0-.11,0-.16a1.53,1.53,0,0,1,1.21-1.26h0a.33.33,0,0,0,.26-.34.34.34,0,0,0-.33-.31h-5.57a.33.33,0,0,0-.32.34.32.32,0,0,0,.26.31h0a1.56,1.56,0,0,1,1.24,1.5v.11h0v15.4a1.54,1.54,0,0,1-1.24,1.49h0a.21.21,0,0,0-.14.07.41.41,0,0,0-.09.26.33.33,0,0,0,.33.31h5.55a.33.33,0,0,0,.33-.33h0a.29.29,0,0,0-.23-.3h0a1.54,1.54,0,0,1-1.28-1.5V87.32A.78.78,0,0,0,158.62,87.23Z"/><path class="cls-2" d="M181,100.14a.34.34,0,0,0-.37.08,8.34,8.34,0,0,1-6.21,2.89,7.23,7.23,0,0,1-5.82-2.56,8.5,8.5,0,0,1-2-5.65,8.33,8.33,0,0,1,1.89-5.52,6.89,6.89,0,0,1,5.57-2.47c3,0,5,1.19,6,3.65a.33.33,0,0,0,.38.2.33.33,0,0,0,.26-.33V86.27a.32.32,0,0,0-.18-.29,12.84,12.84,0,0,0-5.82-1.28A11.37,11.37,0,0,0,166,88.12a10.32,10.32,0,0,0-2.87,7.36,9.58,9.58,0,0,0,2.65,6.88,10.65,10.65,0,0,0,8.06,3.09,9.59,9.59,0,0,0,7.2-2.89.28.28,0,0,0,.09-.23v-1.87A.32.32,0,0,0,181,100.14Z"/><path class="cls-2" d="M199.76,99.93a.33.33,0,0,0-.4.19l-.06.12a4,4,0,0,1-3.71,2.6h-6.41v-7h5.94c1.24,0,1.9.35,2,1.07a.32.32,0,0,0,.32.28h0a.32.32,0,0,0,.3-.32V92.81a.33.33,0,0,0-.65-.07c-.16.74-.83,1.09-2.06,1.09h-5.9V87.05h6.7a2.8,2.8,0,0,1,2.73,2.26v0a.36.36,0,0,0,.33.28h0a.35.35,0,0,0,.33-.33V85.49a.34.34,0,0,0-.33-.34H184.64a.33.33,0,0,0,0,.66h0A1.53,1.53,0,0,1,186,87.32V102.8a1.54,1.54,0,0,1-1.2,1.49h-.05a.34.34,0,0,0-.28.38.34.34,0,0,0,.32.29h14.2a.35.35,0,0,0,.33-.28l.73-4.4A.33.33,0,0,0,199.76,99.93Z"/><path class="cls-2" d="M125.7,87.32a1.55,1.55,0,0,1,1.22-1.5h0a.32.32,0,0,0,.25-.35.33.33,0,0,0-.33-.31h-5.57a.33.33,0,0,0-.33.33.32.32,0,0,0,.27.32h0a1.52,1.52,0,0,1,1.21,1.5v6.51H111.59V87.39h0v-.06a1.54,1.54,0,0,1,1.26-1.51h0a.33.33,0,0,0,.24-.34.33.33,0,0,0-.33-.32h-5.61a.33.33,0,0,0-.09.65l.15,0a1.54,1.54,0,0,1,1.11,1.27s0,.1,0,.15V102.8a1.56,1.56,0,0,1-1.19,1.5h0l-.13,0a.32.32,0,0,0-.2.32.32.32,0,0,0,.33.31h5.6a.33.33,0,0,0,.13-.63l-.13,0v0a1.53,1.53,0,0,1-1.18-1.49V95.94h10.86v6.7a1.79,1.79,0,0,1-.08.69,1.49,1.49,0,0,1-1.09,1l-.12.06a.34.34,0,0,0-.19.32.33.33,0,0,0,.33.31h5.58a.33.33,0,0,0,.33-.33.31.31,0,0,0-.19-.29l-.13-.07h0a1.53,1.53,0,0,1-1.18-1.49Z"/><path class="cls-2" d="M116.73,116.28v2.57h-1.07v-6.11h1.07v2.54h2.92v-2.54h1.07v6.11h-1.07v-2.57Z"/><path class="cls-2" d="M128.4,119a3.16,3.16,0,1,1,3.21-3.18,3.11,3.11,0,0,1-3,3.18Zm0-5.34a2.06,2.06,0,0,0-2.05,2.17,2.09,2.09,0,0,0,2.07,2.18,2.06,2.06,0,0,0,2.06-2.16A2.1,2.1,0,0,0,128.4,113.62Z"/><path class="cls-2" d="M138.24,118.85h-1.08v-5.11h-1.94v-1h5v1h-1.94Z"/><path class="cls-2" d="M149.33,113.7h-3.45v1.59h3.06v1h-3.06v1.64h3.5v1H144.8v-6.11h4.53Z"/><path class="cls-2" d="M154.74,112.74h1.07v5.13H159v1h-4.28Z"/><path class="cls-2" d="M165.06,115.31c1.29.31,2,.77,2,1.8s-.9,1.83-2.18,1.83a3.82,3.82,0,0,1-2.55-1l.65-.77a2.8,2.8,0,0,0,1.93.8c.66,0,1.08-.31,1.08-.78s-.25-.68-1.38-.93c-1.31-.32-2-.7-2-1.84a1.86,1.86,0,0,1,2.08-1.78,3.43,3.43,0,0,1,2.22.77l-.58.81a2.86,2.86,0,0,0-1.65-.63c-.63,0-1,.33-1,.74S163.89,115,165.06,115.31Z"/><path class="cls-2" d="M168.16,113.09a.45.45,0,0,1,0-.2,1,1,0,0,1,.11-.17.62.62,0,0,1,.17-.11.49.49,0,0,1,.41,0,.62.62,0,0,1,.17.11,1,1,0,0,1,.11.17.45.45,0,0,1,0,.2.52.52,0,0,1,0,.21.55.55,0,0,1-.28.28.58.58,0,0,1-.41,0,.63.63,0,0,1-.28-.28A.52.52,0,0,1,168.16,113.09Zm.09,0a.47.47,0,0,0,0,.17.39.39,0,0,0,.23.23.38.38,0,0,0,.33,0,.34.34,0,0,0,.14-.09.42.42,0,0,0,.09-.14.33.33,0,0,0,0-.17.45.45,0,0,0-.13-.3.5.5,0,0,0-.14-.1.47.47,0,0,0-.33,0,.71.71,0,0,0-.14.1.38.38,0,0,0-.09.13A.59.59,0,0,0,168.25,113.09Zm.23-.3h.24a.2.2,0,0,1,.16,0,.19.19,0,0,1,.05.13.19.19,0,0,1,0,.12.21.21,0,0,1-.11,0l.16.26h-.11l-.15-.25h-.08v.25h-.11Zm.11.26h.18s0,0,0,0,0,0,0,0,0,0,0,0l0,0h-.18Z"/></svg>