<svg id="Layer_1" data-name="Layer 1" xmlns="http://www.w3.org/2000/svg" viewBox="0 0 250 200"><defs><style>.cls-1{fill:#1b242f;}.cls-2{fill:#fff;}</style></defs><rect class="cls-1" width="250" height="200"/><polygon class="cls-2" points="200 107.3 197.21 104.54 194.44 107.3 197.21 110.07 200 107.3"/><path class="cls-2" d="M198.87,87.42c-.18-.66-1.66.28-4.85,3.14,1.27,1.4,1.91.6,2.92.23.83,1.54,1.15,8.53-4.18,10.64.15-7,.22-14.57.22-14.57a.24.24,0,0,0-.24-.25h-.08c-1.46.2-4.06,2.78-6.07,4.94,1.11,1.82,2.51.19,3.62-.27,0,.31-.27,5.5-.15,10.78-5.48.41-4.6-10.76-4.29-12.19.14-1.14-3.54,1.38-5.36,3.08.58,1,1.39.82,2.39.43-.37,5,3.17,9.58,7.28,9.47.14,5.16.69,10.18,2.18,10.53.2,0,.37-5.24.48-11.11,9.88-3.06,6.12-14.86,6.12-14.86"/><path class="cls-2" d="M78.18,105.58V90.86H74.29V105.7c0,3.17,1.55,4.93,5.37,4.93H82.1V107.8H80.53c-1.7,0-2.35-.48-2.35-2.22"/><path class="cls-2" d="M136.78,91.06,131,106l-5.74-15h-5.59v19.57h3.88V99c0-.76,0-2-.12-2.86h.12l5.61,14.54h3.59l5.58-14.54h.11c-.06.83-.09,2.1-.09,2.86v11.68h3.87V91.06Z"/><path class="cls-2" d="M89.67,110.83c4.88,0,7.33-1.71,7.33-6.33V95.67H93.12v8.83c0,2.67-1.64,3.64-3.45,3.64s-3.43-1-3.43-3.64V95.67H82.36v8.83c0,4.62,2.45,6.34,7.31,6.34"/><path class="cls-2" d="M114.45,101.89v2.38c0,4.62-2.81,6.56-7.69,6.56s-7.67-1.71-7.67-6.33V90.85H103v5.58a10.31,10.31,0,0,1,4.37-1c5,0,7.12,2.76,7.12,6.42M103,104.5c0,2.67,2.11,3.64,3.91,3.64s3.93-1,3.93-3.64v-2.69c0-2.67-2.12-3.65-3.93-3.65s-3.91,1-3.91,3.65Z"/><path class="cls-2" d="M168.17,95.47a10.54,10.54,0,0,1,4.38,1V90.85h3.87V104.5c0,4.62-2.8,6.33-7.66,6.33s-7.69-1.94-7.69-6.56v-2.38c0-3.66,2.09-6.42,7.1-6.42m4.38,6.34c0-2.67-2.11-3.65-3.91-3.65s-3.92,1-3.92,3.65v2.69c0,2.67,2.11,3.64,3.92,3.64s3.91-1,3.91-3.64Z"/><path class="cls-2" d="M156.73,106.65a7.57,7.57,0,0,1-4.72,1.49c-2.29,0-4.15-1.25-4.15-3.64v-.33h11.59V103c0-4.63-2.8-7.5-7.68-7.5s-7.67,2.87-7.67,7.5v.6c0,4.47,2.67,7.26,7.88,7.26a10.7,10.7,0,0,0,7.12-2.32Zm-8.87-4.78a3.92,3.92,0,0,1,7.83,0Z"/><path class="cls-2" d="M64,110.83c-6,0-9.28-3.22-9.28-8.43V99.75c0-5.43,3.36-8.9,9.28-8.9,5.15,0,8.26,2.59,9,6.08H68.85A4.61,4.61,0,0,0,64,93.51c-3.35,0-5.24,2-5.24,6.29v2c0,3.88,1.4,6.42,5.24,6.42a4.59,4.59,0,0,0,4.87-3.41H73c-.73,3.49-3.85,6.07-9,6.07"/><path class="cls-2" d="M54.69,93a2.17,2.17,0,0,1-2.15,2.16A2.09,2.09,0,0,1,51,94.53a2.13,2.13,0,0,1,0-3v0a2.08,2.08,0,0,1,1.52-.63,2,2,0,0,1,1.52.63A2.08,2.08,0,0,1,54.69,93Zm-.3,0a1.86,1.86,0,0,0-1.85-1.85,1.86,1.86,0,0,0-1.32,3.15h0a1.86,1.86,0,0,0,2.62,0A1.83,1.83,0,0,0,54.39,93Zm-.84,1.26h-.4l-.49-1.07H52v1.07h-.37v-2.5h1.06a.83.83,0,0,1,.64.22.65.65,0,0,1,.21.49.73.73,0,0,1-.11.38.65.65,0,0,1-.37.26ZM52,92.91h.65a.49.49,0,0,0,.38-.13.43.43,0,0,0,.12-.31.33.33,0,0,0-.13-.29.51.51,0,0,0-.33-.1H52Z"/></svg>