<svg id="Layer_1" data-name="Layer 1" xmlns="http://www.w3.org/2000/svg" viewBox="0 0 250 200"><defs><style>.cls-1{fill:#1b242f;}.cls-2,.cls-3{fill:#fff;}.cls-3{fill-rule:evenodd;}</style></defs><rect class="cls-1" width="250" height="200"/><path class="cls-2" d="M122.19,109.69a.47.47,0,0,0-.65,0,5.34,5.34,0,0,1-3.9,1.79,4.78,4.78,0,0,1,0-9.53,5.35,5.35,0,0,1,3.8,1.7.45.45,0,0,0,.65,0h0l1.66-1.91a.48.48,0,0,0,0-.65,8.12,8.12,0,0,0-6.08-2.41,8.07,8.07,0,0,0-.11,16.13,8.09,8.09,0,0,0,6.31-2.74.48.48,0,0,0,0-.66Z"/><path class="cls-2" d="M132.77,98.64a8,8,0,0,0-8.17,8.1,7.9,7.9,0,0,0,8.13,8,8,8,0,0,0,8.17-8.11,7.9,7.9,0,0,0-8.13-8m0,12.83a4.56,4.56,0,0,1-4.53-4.81,4.51,4.51,0,0,1,4.49-4.72,4.56,4.56,0,0,1,4.53,4.81,4.5,4.5,0,0,1-4.49,4.71"/><path class="cls-2" d="M149.24,105.08c-3-.71-3.13-1.17-3.13-1.9s.78-1.28,1.93-1.28a6.21,6.21,0,0,1,3.71,1.42.45.45,0,0,0,.35.09.46.46,0,0,0,.31-.19l1.39-2a.47.47,0,0,0-.09-.63,8.67,8.67,0,0,0-5.63-1.95c-3.18,0-5.48,2-5.48,4.77,0,3,1.92,4,5.25,4.84,2.75.64,3,1.15,3,1.84,0,1-1.1,1.38-2.14,1.38a6.25,6.25,0,0,1-4.33-1.8.48.48,0,0,0-.34-.11.52.52,0,0,0-.33.16l-1.55,1.85a.48.48,0,0,0,0,.65,9.61,9.61,0,0,0,6.44,2.47c3.48,0,5.72-1.91,5.72-4.9s-2.44-4.12-5.08-4.76"/><path class="cls-2" d="M168.18,101.75v-2.4a.47.47,0,0,0-.47-.46H155.79a.47.47,0,0,0-.47.46v2.4a.47.47,0,0,0,.47.46H160v11.84a.47.47,0,0,0,.47.47h2.61a.47.47,0,0,0,.46-.47V102.21h4.2a.47.47,0,0,0,.46-.46"/><path class="cls-2" d="M176.48,99.06a.48.48,0,0,0-.43-.28h-2.4a.46.46,0,0,0-.42.28l-6.47,14.81a.47.47,0,0,0,.24.61.41.41,0,0,0,.19,0h2.64a.46.46,0,0,0,.43-.29l1.4-3.26H178l1.37,3.26a.46.46,0,0,0,.43.29h2.73a.47.47,0,0,0,.47-.47.37.37,0,0,0,0-.18Zm.16,8.69H173l1.81-4.23Z"/><path class="cls-2" d="M120.77,127.91a4.82,4.82,0,0,0,3.23-4.73,4.9,4.9,0,0,0-1.36-3.5,6.39,6.39,0,0,0-4.57-1.6h-6.55a.46.46,0,0,0-.47.46h0v14.7a.46.46,0,0,0,.47.46h2.58a.46.46,0,0,0,.47-.46h0v-4.66h2.52l3.47,4.92a.46.46,0,0,0,.38.2h3a.47.47,0,0,0,.38-.74Zm-6.2-6.55h3.29c1.18,0,2.58.34,2.58,2,0,1.23-1,2-2.55,2h-3.32Z"/><path class="cls-2" d="M129.64,118.08h-2.58a.45.45,0,0,0-.47.46h0v14.7a.46.46,0,0,0,.47.46h2.58a.46.46,0,0,0,.47-.46v-14.7a.45.45,0,0,0-.47-.46h0"/><path class="cls-2" d="M145.13,128.88a.46.46,0,0,0-.65,0,5.33,5.33,0,0,1-3.9,1.78,4.78,4.78,0,0,1,0-9.52,5.33,5.33,0,0,1,3.8,1.7.46.46,0,0,0,.66,0v0l1.66-1.91a.47.47,0,0,0,0-.64,8.06,8.06,0,0,0-6.08-2.42,8.07,8.07,0,0,0-.1,16.14,8.05,8.05,0,0,0,6.29-2.75.46.46,0,0,0,0-.65Z"/><path class="cls-2" d="M163.68,133.05l-6.47-14.8a.46.46,0,0,0-.43-.28h-2.39a.47.47,0,0,0-.43.28l-6.47,14.8a.48.48,0,0,0,.25.62.57.57,0,0,0,.18,0h2.65a.47.47,0,0,0,.43-.28l1.39-3.26h6.33l1.37,3.26a.45.45,0,0,0,.43.28h2.73a.47.47,0,0,0,.47-.46.65.65,0,0,0,0-.19m-6.31-6.11h-3.64l1.82-4.24Z"/><path class="cls-3" d="M149.54,78.44c0-.28-.45-.27-.43-.65-.18,0-.22-.23-.34-.32s-.28,0-.27-.15c-.24,0-.3-.08-.51-.09-.47,0-1.21.06-1.45.46,0,.13,0,.17,0,.23-.1,0-.13.14-.15.26s.14.16.05.36c.24.12.1.58.51.61,0,.09-.06.07,0,.14s.18,0,.31,0c.34.47,1.15-.11,1.71.1.15-.09.21-.28.39-.34,0-.3.18-.38.17-.59"/><path class="cls-3" d="M139.24,71.5c0-.06,0-.12,0-.18s-.09,0-.09,0,.14,0,.13-.14-.1,0,0-.13.06-.14.16-.14,0-.22.13-.26c0-.71.71-.64,1.12-.44.1-.13,0-.24.25-.21,0-.15-.06-.07-.11-.12s.08-.07.12-.11c-.13,0-.28-.16-.25-.23.28.08.75-.24.67-.24s.12-.16-.06-.19c0,.12-.35,0-.42-.09.16,0,.19,0,.29.07-.16-.35-.85-.26-.94-.66-.13,0-.12,0-.24,0,0-.14-.08-.16-.11-.25a1.27,1.27,0,0,0-1.19.41c-.08.37-.39.75-.47,1.18a.46.46,0,0,0-.15.4c-.28.19-.27.59-.33.85a.75.75,0,0,1-.14.17l0,.32c-.11.21-.18.61-.29.88,0,.08-.24.65-.16.65,0,.26-.13.64-.2,1a5.48,5.48,0,0,1-.18,1.11c-.07.23-.16.82-.19.92h0a7.85,7.85,0,0,0-.27,1.24.76.76,0,0,1-.05.33c-.1.17,0,.19,0,.29a3.89,3.89,0,0,0,0,.42,5.44,5.44,0,0,0-.12.85s0,0-.06.13a6.41,6.41,0,0,1-1.7,0,2.1,2.1,0,0,1-.64,0,3.08,3.08,0,0,0-.53,0c-.17,0-.55,0-.79,0s-.41-.16-.66-.17h-.3c-.44,0-.65-.1-1,.11-.17.38-.25.73,0,1-.06,0-.14,0-.12.14s.36.13.16.31c.19,0,.07.1.12.15s.22.16.41.22a8.08,8.08,0,0,0,1.21.1,6.13,6.13,0,0,0,1,.11,15.47,15.47,0,0,0,2.36,0c-.05.11,0,.1.12.08-.05.17.08.15.18.25a.38.38,0,0,0-.23.11,2.22,2.22,0,0,1-.08.68c0,.08.13.06.16.09s-.09,0-.14,0a8.42,8.42,0,0,0,0,1.13c0,.1-.07.22-.07.32a3.39,3.39,0,0,1,0,.55c0,.1,0,.27,0,.36s-.07,0-.08.07a1.86,1.86,0,0,0,.09.47,5.19,5.19,0,0,1-.06.52c0,.2.09.39.08.58s-.07.35,0,.45c0,.45,0,.9,0,1.35,0-.11.31,1.67.47,2.22-.06.24.06.3.1.44.12.37.14.86.27,1.17,0,.08.1.11.12.18s.05.35.11.51.33.51.43.78a2.17,2.17,0,0,0,.19.33c.07.13.13.3.18.38s.23.36.35.52c.09,0,.1,0,.21,0-.05.21.28.25.28.5.51.1.68.55,1.24.61.08,0,.07-.12.18-.11s.38.16.57.11.06-.15.12-.2a5.09,5.09,0,0,0,.59-.14s.11-.14.14-.2l.14,0a.13.13,0,0,1,.14-.13c0-.3.37-.38.41-.71-.11,0-.3-.32-.22-.37s-.12-.16,0-.23a2.17,2.17,0,0,1-.09-.86c0,.1-.07,0-.14,0s-.16.1-.08.23c-.22.12-.7.18-.57.47-.31.13-.51.47-1,.36a3.42,3.42,0,0,1-1.05-1.82,1.08,1.08,0,0,1-.26-.82c-.08,0-.1,0-.13-.08,0-.43-.26-.62-.23-1.09a7.35,7.35,0,0,1-.38-1.67c0-.24-.05-.34-.06-.51a.9.9,0,0,0,0-.23c0-.06-.08-.09-.08-.15,0-.23.07-.53-.08-.67l-.07-2.32c.1-.35,0-.66,0-1a1,1,0,0,0,0-.25c0-.35,0-.73,0-1,0-.42.14-.78.11-1.14.13,0,0-.15.15-.11s0,.12.14,0c.06.21.44,0,.69,0s.46.09.53.09c.22,0,.41-.08.55,0s.11-.16.22-.18,0,.06,0,.16.12-.08.22-.08a7.56,7.56,0,0,0,2.16.16c.08-.17.22-.11.36-.16,0,.13-.15,0-.15.14a1.53,1.53,0,0,1,1,.15c.34-.07.67.13,1,0,0,0-.1.13,0,.12s.19-.15.22-.08-.08,0-.08.08c.26,0,.26.16.53.11-.05.14.1.1,0,.23.11,0,.12,0,.2,0,.3.36-.13,1.5-.27,2-.08.29-.57,2.29-.64,2.59s-.16.5-.19.69,0,.07,0,.13-.07,0-.08.09,0,.28,0,.42a3.39,3.39,0,0,0,0,.45c0,.57.11,2.3.47,2.46a2.89,2.89,0,0,0,.18.44c.17,0,.13,0,.31.07a1.41,1.41,0,0,1,.29.05,4,4,0,0,1,.58,0c.13,0,.19-.23.24-.37.11-.33.62-.91.19-1.11,0-.12-.06-.15,0-.23a.21.21,0,0,1-.1-.06c.09-.09,0-.14,0-.25a18.17,18.17,0,0,0,.05-2.08,3.88,3.88,0,0,0,.29-.83s0,0,0-.12.11-.2.14-.3.5-2.21.56-2.46c.21-.92.44-1.93-.08-2.47.06-.07,0,0,0-.13-.22-.11-.29-.36-.51-.47,0-.18-.21-.18-.35-.23s-.07-.1-.12-.13a12.56,12.56,0,0,0-1.44-.14c-.08,0-.15-.09-.22-.11a8.07,8.07,0,0,1-1.14-.14.87.87,0,0,1-.32.06,2.53,2.53,0,0,0-.83-.13c-.53-.07-1.42-.05-1.83-.08,0,.05-.05.12-.13.14s0-.12,0-.16a9.14,9.14,0,0,0-1.68.07c-.08-.3-.61,0-.83-.16l0-.23c0-.08.12-.35.05-.55-.09,0-.09-.14,0-.16s.05-.24,0-.39a.12.12,0,0,1-.11.07c-.08-.27.26-.26.23-.6,0-.07-.07-.06,0-.06.06-.18,0-.67.08-.77s.07,0,.09-.08a.69.69,0,0,0,0-.35,8.47,8.47,0,0,1,.24-1.41c-.06,0,0-.15-.06-.22.18-.15.13-.27.14-.39,0-.31.42-1.65.43-1.67.09-.28.07-.59.15-.91,0,0,.08-.12.1-.17s0-.21,0-.32"/><path class="cls-3" d="M101.69,84.61c.09.41-.37.2-.47.39-.08-.09.27-.35.47-.39"/><path class="cls-3" d="M103,99.55c-.12,0-.16,0-.27,0s.15,0,.11-.1c-.23,0-.46.17-.75.14-.08,0-.14-.1-.25-.12s-.17.05-.25.05c-.32,0-.65-.1-.71-.23.14-.09.34,0,.47,0,0-.11-.2,0-.09-.14a1.7,1.7,0,0,0-.53-.11.3.3,0,0,1-.11-.24,5.27,5.27,0,0,1-.56-.15c.12-.18-.24-.14-.17-.38-.06,0-.09-.11-.19-.11,0-.21-.19-.22-.12-.48.13,0,.12.12.29.09a.31.31,0,0,1,0,.1c.2.08.42,0,.52.18.16-.24.42,0,.61,0s.13,0,.21,0,.43,0,.63,0a3.38,3.38,0,0,0,.62-.18,6.37,6.37,0,0,0,1.27-.66,4.36,4.36,0,0,1,.58-.55,4.45,4.45,0,0,0,.72-.9s0-.12,0-.17a4.77,4.77,0,0,0,.25-.54s0-.12,0-.17a6.86,6.86,0,0,0,.13-.69c0-.13,0-.23-.06-.37a7.4,7.4,0,0,0-.25-1.42c-.1-.31-.26-.61-.35-.92,0-.1,0-.21,0-.31a3,3,0,0,0-.23-.48c0-.11,0-.13,0-.23a.93.93,0,0,1-.13-.15c-.17-.77-.47-1.44-.64-2.21a.18.18,0,0,1,0-.16c-.06,0-.13-.17-.1-.34a8.72,8.72,0,0,1-.23-1.22.28.28,0,0,1,0-.13c0-.1-.06-.2-.07-.3a8.25,8.25,0,0,1,0-1.23,3.41,3.41,0,0,1,.07-1.16c-.1-.2.14-.45,0-.56.1,0,.06-.16.1-.33s.16-.33.07-.36c.23-.42.32-1,.53-1.45,0,0,.09-.07.11-.12s0-.13,0-.17.18-.2.23-.31,0-.18.09-.29.22-.36.36-.57.21-.27.3-.41a2.43,2.43,0,0,1,.2-.35c.06-.08.11-.12.18-.22s.38-.37.52-.55,0-.07,0-.1.08,0,.09,0,.05-.12.09-.16a2.43,2.43,0,0,1,.71-.51.64.64,0,0,0,.08-.19c.16,0,.19.2.33.06.22.19.59.24.66.56.31,0,.32.24.47.37a2.73,2.73,0,0,1,0,.53c.09.12.1-.13.18,0s0,.25-.19.18a2.83,2.83,0,0,1-.18.58.18.18,0,0,1-.14,0c-.09.34-.3.54-.41.86a.51.51,0,0,0-.33.31,1.22,1.22,0,0,0-.27,0,2.59,2.59,0,0,1-.49.56c0-.29.42-.37.41-.77-.23.08-.33.47-.61.38a1.73,1.73,0,0,0-.19.28c0,.12.1-.11.1,0s-.17.08-.26.21.11,0,.06.14a13.41,13.41,0,0,0-1,2.61,9.74,9.74,0,0,0-.13,2.65,4.12,4.12,0,0,0,.26,1.22,5.92,5.92,0,0,0,.34,1.49c0,.14.09.35.15.55s.24.52.33.78c0,0,0,.1,0,.14s.15.27.2.41.07.33.12.48.11.39.22.65a3.64,3.64,0,0,1,.28,1c0,.06.08.12.08.17s0,.08,0,.09a8.83,8.83,0,0,1,.18,1.45,9,9,0,0,1-.32,1.4.22.22,0,0,0,0,.14s-.09.06-.12.12,0,.25-.12.32a2,2,0,0,0,0,.23,1.4,1.4,0,0,0-.33.61,6,6,0,0,1-1.13,1.06,130.07,130.07,0,0,0-.57.39c-.25.13-.51.39-.81.37a1.39,1.39,0,0,1-.56,0c0-.08-.28,0-.32.11"/><path class="cls-3" d="M133.51,89.31c0-.1.13-.12,0-.15a1.25,1.25,0,0,1,.3-.39.25.25,0,0,0-.07-.23,4.2,4.2,0,0,0,.29-.44c-.19,0,.08-.24-.12-.35,0-.07,0-.13.06-.19-.14-.13,0-.27-.2-.4-.09.09,0,.16-.14.25l.06,0c-.09.17-.28.26-.24.44-.25-.06-.3.23-.42.36s-.11,0-.17.1-.27.29-.42.4a3.71,3.71,0,0,1-.53.26,6.28,6.28,0,0,1-1.18.39,6.63,6.63,0,0,1-1.26,0c-.28,0-.54-.3-.85-.31-.17-.2-.43-.25-.61-.42a4.25,4.25,0,0,1-.81-1.8c.1-.19-.08-.3-.1-.45s0-.21,0-.32c0-.28-.15-.46,0-.72-.06,0-.08,0-.07-.07.05-.42,0-.73,0-1.11,0-.22.12-.44.14-.67a1.72,1.72,0,0,1,.11-.5c.08-.24.09-.53.18-.77s.14-.22.18-.32a3.23,3.23,0,0,0,.21-.81c0-.09,0-.17,0-.28-.12,0-.11-.15-.24-.16s-.15.11-.15,0-.15-.15,0-.39c-.08-.08-.31,0-.27-.19-.17,0-.23,0-.31-.12-.13.13-.17-.07-.29-.06a1.14,1.14,0,0,0-.89,1.13c-.05.08-.13.12-.17.22,0,.53-.48,1.31-.43,1.79a3.43,3.43,0,0,0-.77,1.33c-.07,0-.1.08-.15.12-.14.4-.3.64-.45,1-.16,0-.18.18-.24.26-.2.27-.56,1-.85,1-.62,0-1.19-4.08-1.3-4,0-.24-.11-.54-.13-.76-.17,0-.2,0-.32,0-.51-.42-1.15.22-1.4.63,0,0,.09,0,.07.07s-.17.08-.26.12a1.68,1.68,0,0,1-.51.75,1.75,1.75,0,0,1-.3.58c-.23,0-.48.5-.52.51s-.1.17-.1.25a.36.36,0,0,1-.22.16,5.1,5.1,0,0,1-.45.69.66.66,0,0,0-.19.09c-.1.11-.19.23-.3.33s-.71.94-.75,1a6.83,6.83,0,0,1-.79.69,9.22,9.22,0,0,1-1.76,1.59,2.51,2.51,0,0,1-2.64.42c-.18-.17-.54-.39-.58-.56a2.78,2.78,0,0,1-.07-.57c0-.06,0-.33,0-.39a1.45,1.45,0,0,1,.13-.71,1.38,1.38,0,0,1,.57-.91c.22-.07.69-.33.91-.18.13-.08.33-.25.45-.15,1.26-.9,2.84-1.24,3.94-2.31a7.47,7.47,0,0,0,.68-.61,2.82,2.82,0,0,1,.49-.76,1.48,1.48,0,0,1,.27-.5c.25-1,.61-2-.21-2.49,0-.07.06-.08.06-.14-.36-.1-.78-.64-1.12-.61,0-.09-.43-.07-.68-.11a8.26,8.26,0,0,0-3.21,1.79c0,.08-.45.33-.43.43a6.49,6.49,0,0,0-.7.62l-.1.12-.23.24c-.07.08-.17.28-.22.35s-.26.21-.32.29-.18.27-.25.35,0,.08,0,.11-.16.15-.21.21,0,.26-.19.28c-.24.67-.73,1.09-.85,1.74-.27.26-.06.72-.33,1a1.64,1.64,0,0,1-.3.77,12.59,12.59,0,0,1-.15,1.44,2.3,2.3,0,0,0,.15.69,3.56,3.56,0,0,0,.23,1,4.36,4.36,0,0,0,.35.4,3.63,3.63,0,0,0,.64.71c.17.09.36.13.44.29a6.25,6.25,0,0,0,2.26.17,9.52,9.52,0,0,0,1.69-.59,6.29,6.29,0,0,0,1.19-.88c-.08,0,.47-.2.39-.32s.51-.37.63-.43a2.92,2.92,0,0,1,.52-.48l0,.07a1.68,1.68,0,0,1,.24-.29,9.45,9.45,0,0,0,.89-.9s.28-.4.34-.46l1.1-1.31.07-.08a5.54,5.54,0,0,1,.48-.52c0,.12.3.52.24.63a3.23,3.23,0,0,1,.22.52,1.6,1.6,0,0,1,.2.57c.12,0,.08.27.23.45a13,13,0,0,1,.66,1.26c.08.15.57.79.66.77.31.26.87-.08,1.28-.45a20.18,20.18,0,0,0,1.72-2.13.61.61,0,0,1,0-.12s.06-.23.07-.23a.19.19,0,0,1,.07.12c0,.07,0,.16,0,.17a4.57,4.57,0,0,0,1.78,3c.36.57,1.31.72,1.82,1,.22,0,.29-.06.41,0v0l.06,0,.35,0s0,0,0,0c.2-.06.2.07.48,0h0a2.36,2.36,0,0,0,.59,0v0l.16,0a3.59,3.59,0,0,0,.47-.12c.24-.07.51,0,.69-.25s.31-.19.37-.31.19-.17.28-.12c.06-.1.13-.08.19-.15s-.08.11-.13,0c.13-.17.41-.17.59-.37.05,0,0-.16.1-.24s.14-.07.19-.11c.22-.21.39-.47.35-.59s-.22.21-.34.27m-22.21-5.11a11.08,11.08,0,0,1,1.46-1.36c.33-.47.3-.44,1-.92l.22-.19.23-.13s.1,0,.19-.14.11-.11.43-.34.58-.45.91-.45c.09,0,.29.2.12.7a3.28,3.28,0,0,1-.44,1c-.16.2-.46.41-.62.61s-.53.36-.86.62a8.77,8.77,0,0,1-.92.57,4,4,0,0,1-.81.39,7,7,0,0,1-1.12.6c-.29,0-.29-.2.18-1"/><path class="cls-3" d="M102.54,84.46c-.05,0-.09,0-.13,0s-.2,0-.22-.09l-.3.16a.15.15,0,0,0-.14,0,.78.78,0,0,1-.24.16l0,0h-.14c0-.06.14-.1.16-.18s-.25.07-.39.2-.05.09-.08.12-.12,0-.16,0-.14.29-.25.36,0-.05,0-.08,0,.08-.1.11a.25.25,0,0,1,0,.16l0,0a0,0,0,0,1,0,0,.44.44,0,0,0-.15.12c-.2.12-.49.29-.52.44H100s.05.12-.06.12-.1,0-.19-.1a7.83,7.83,0,0,1-1.13.94c-.06.07,0,0,0,.14-.49.26-.71.83-1.3,1-.21-1.21-.56-2.32-.69-3.61.5-.75,1.33-1.65,1.09-2.67.29-.69-.28-.9-.49-1.23A1.31,1.31,0,0,0,96,80a3.77,3.77,0,0,0-1.37,3.53c-.28.36-.85.71-1.07,1.13a38,38,0,0,1-3.63,2.61c-.69.32-1.25.68-1.9,1-.36.17-.76.35-1.16.51A8.52,8.52,0,0,1,86,89a15.39,15.39,0,0,1-5.11.93c-.2-.11-.47-.16-.68-.27,0,0,0-.07,0-.13-.22,0-.41-.37-.45-.61a2.65,2.65,0,0,1,.9-2c.58,0,.87-.36,1.34-.35a12.58,12.58,0,0,1,1.49-.54c.08,0,.11-.1.21-.06.91-.35,1.69-.68,2.36-.9,0,0,2.17-1,2.45-1.19,1-.35,1.84-.94,2.71-1.32,0,0,.1-.12.1,0-.29.31.38,0,.86-.58.26-.3.63-.69.66-1s-.15-.37,0-.57c-.15-.07-.13-.29-.19-.43a4.72,4.72,0,0,0-1.34-1.08,2.55,2.55,0,0,0-.82-.17c-.16,0-.32.09-.48.09a10.42,10.42,0,0,0-5.14,1.55c-.07.09,0,.12-.08.19a3.52,3.52,0,0,0-1.2.65,20.28,20.28,0,0,0-2.2,1.56,15.42,15.42,0,0,0-2.47,2.74,4.59,4.59,0,0,1-.49.26c.09,0,.12,0,.09.1a10.4,10.4,0,0,0-1.7.31c-.22.32-.87.12-1,.38-.38,0-2.77.7-2.92.72s-4.43,1.06-4.56,1.06a16.67,16.67,0,0,1-2.6.53,11.1,11.1,0,0,1-1.73.3,23.44,23.44,0,0,0-3.89.64c-.1-.17-.29.06-.44.06s-1.41,0-1.25.15c-.17-.12-.1.16-.27,0,0,0,.08,0,.07-.1a.8.8,0,0,0-.42.16s.06-.05.08-.09c-2.43.22-5.51.25-7.24-1-.08,0-.08.06-.17,0s-.09-.1-.2-.1c-.29.47.09.72.21,1-.11,0-.1-.06-.16,0,0,.32.37.36.24.58a8.44,8.44,0,0,0,4.85,1.25.14.14,0,0,0,0,.14,10.1,10.1,0,0,1,1.41-.08,3.62,3.62,0,0,0,1.62-.15c0,.16.83-.16,1.13-.14,0,0-.09.12,0,.1a5.63,5.63,0,0,1,1.36-.15c.09.07,1.27,0,1-.15.23,0,.35,0,.51-.13-.1,0,1.15-.28,1-.11A2.73,2.73,0,0,0,64,91a10.59,10.59,0,0,1,2.24-.24c-.1-.18.51-.21.28-.09a8,8,0,0,0,1.5-.34c.25,0,1.59-.23,1.63-.22s1.32-.46,1.32-.44a10.87,10.87,0,0,1,2.19-.47L74,89.1c-.13,0,1.87-.65,1.85-.48a1.07,1.07,0,0,0,.38-.13c0-.08,1.38-.47,1.34-.34.15,0,.23-.08.38-.09a2.14,2.14,0,0,0,.21,1.33c0,.06-.1,0-.08.12a5.45,5.45,0,0,0,1.36,2c1.11.7,3,.54,4.35.36a23.12,23.12,0,0,0,3.46-1.08c.5-.2,1-.47,1.5-.61A16.15,16.15,0,0,1,90.83,89c.74-.63,2.2-1.13,2.84-1.87.4-.21.89-.82,1.33-1a26.84,26.84,0,0,1,.8,4c-.12.15-.2.35-.31.5.12,0,.13-.22.21-.1-.27.3-.36.8-.67,1,0,.07,0,.07,0,.13s-.06,0-.13,0c-.33.78-.83,2-.29,2.71a2.18,2.18,0,0,0,.69,1.23c.14,0,.15.07.26.07s0,.07,0,.1A.46.46,0,0,1,96,96c.3,0,.46-.3.69-.12a6.51,6.51,0,0,0,.77-.72A6.7,6.7,0,0,1,97.78,94a13.35,13.35,0,0,0-.07-3.54c.38-.71,1-1.2,1.36-1.9,0,0,.12,0,.17,0s.14-.28.17-.43c.49-.23.65-.85,1.17-1,0-.12.1-.16.06-.27a3.85,3.85,0,0,0,.88-.78h-.13l.23-.27c.66-.48.65-.6.34-.59l0,0s0-.08.07-.11.28-.09.25-.25c.12,0,.18-.09.29-.14l0,0c.06-.08.11,0,.16-.08s-.17-.06-.24-.15m-19.9-.38a16.91,16.91,0,0,1,2.42-1.85l.26-.29c.12,0,.67-.21.84-.29A6.34,6.34,0,0,1,88,80.91a1.28,1.28,0,0,1,.93-.27c.45-.29,1-.1,1.57,0a23.55,23.55,0,0,1-4.74,2.8c-.24.09-1.92.78-2.6.94-.49.11-.81-.06-.48-.31"/><path class="cls-2" d="M192.28,90.59l0,.16c-.09-.06-.14,0-.25,0s.12-.1.08-.22-.17,0-.19-.07c.14-.1.08-.05.24-.05,0,0,.11,0,.06-.15s-.38.21-.57.08c.07,0,.06-.11.09-.16a.91.91,0,0,0-.61.22.47.47,0,0,0-.49.13c.11,0,.09.09.22,0s.1-.1.16-.14.16,0,.2.1a2,2,0,0,1-.59.15s0-.06,0-.1a1,1,0,0,1-.42,0s.09,0,.09-.06c-.16,0-.15,0-.16.1a.91.91,0,0,0-.65.26c0-.06,0-.07.06-.11a1,1,0,0,0-.54.24c-.05,0-.15,0-.16-.11-1,.35-2.19.37-3.05.72a1.66,1.66,0,0,0-.95.12A8.43,8.43,0,0,0,183,92c-.11,0-.25,0-.33-.07-.31.11-.61,0-.95.11-.69,0-1.4,0-2.08,0-.42,0-.82-.08-1.23-.11s-.67,0-1-.06c-.1,0-.2-.09-.3-.11s-.18,0-.25,0a6.92,6.92,0,0,0-1.25-.25c-.27-.18-.72-.13-.94-.37a2.47,2.47,0,0,1-1.17-.48,7.48,7.48,0,0,1-2.1-1.26c-.09,0-.11,0-.18,0a.33.33,0,0,0-.36-.24c.09-.12-.08-.09-.06-.23-.33-.09-.44-.48-.73-.63A12.06,12.06,0,0,1,169,86.7c-.08,0-.11,0-.15-.07a9.68,9.68,0,0,1-.93-1.94l-.12,0c0-.27-.27-.55-.25-.82,0-.06-.1,0-.11,0,0-.37-.21-.4-.18-.83.15,0,.07-.22.1-.3s0,.1.11,0,0-.25.21-.35c-.08-.17.27-.31.21-.57.28-.09.08-.51.42-.56,0-.07,0-.07,0-.13a.1.1,0,0,1,.14,0h0c0-.33.42-.43.26-.75.38-.14.15-.69.52-.72.06-.17,0-.41.18-.52,0-.11-.08-.11-.06-.23a.31.31,0,0,1,.12-.16c-.06-.37.52-1,.47-1.37.07-.13.27-.64.29-.68a3.2,3.2,0,0,0,.3-.93s.13-.14.13-.19.09-.21.1-.35l.1-.24,0-.28.22-.83s0,0,0,0,.05-.21.09-.32v-.05l0,0,.1-.62a8.58,8.58,0,0,0,.18-1.43c0-.14,0-.53,0-.66s-.1-.9-.08-1.09a1.84,1.84,0,0,0-.09-.57c-.08-.48-.08-.13-.27-.59a1.37,1.37,0,0,0-.07-.29c0-.1-.14-.11-.16-.19s-.08-.16-.15-.31-.19-.42-.35-.49-.32-.42-.32-.47c-.3-.2-.29-.12-.59-.3,0,0,0-.07,0-.1a3,3,0,0,0-1.41-.16.28.28,0,0,1-.2.21c-.07,0-.05-.08-.14,0-.31.08-.45.27-.75.35a10.64,10.64,0,0,0-1,1.87c.08,0-.07.14,0,.25-.23.21-.16.62-.35.86a.18.18,0,0,0,0,.1,5,5,0,0,0-.3,1.2,9.87,9.87,0,0,0-.21,1.4c0,.45-.12.79-.14,1.21a1.59,1.59,0,0,1-.06.6c.1.12,0,.26,0,.39-.05.75,0,1.53-.06,2.33,0,0,0,.06-.06.08a6.2,6.2,0,0,1,0,1.49c.14.18,0,.48,0,.69s.09.49.1.75c0,0,0,.06,0,.11,0,.76.22,1.63.29,2.55-.26.35-.26.81-.66,1.06-.1.32-.39.49-.58.77-.26.13-.3.59-.59.73h0l0,0h0c-.35.28-1.39,1.46-1.59,1.3-.13,0-.56.4-.95-.33a8.43,8.43,0,0,1-.66-1.47c-.06-.67-.16-1.26-.18-2a1.17,1.17,0,0,0-.13-.44,6.54,6.54,0,0,0,.23-1.26.82.82,0,0,0,0-.35l0-.27s0-.6,0-.6l-.34-.08a3.84,3.84,0,0,0-.59,0l-.32,0-.52,0a.88.88,0,0,1-.48.11l-.33.38-.62.09-1.18.46-1.81,1.14-.94.62a2.76,2.76,0,0,1-.81.69l-.7.66a6.64,6.64,0,0,1-1.13,1.32c-.23.57-1.51,2.87-1.24,3-.34,1.5-.48,1.6,1,3,1,1,2.64.21,3.23,0a4.21,4.21,0,0,0,.52-.4,6,6,0,0,0,2.9-2.32v.13l.28-.7c.71-.73.57-1.21,1.31-2l.08-.12s0,0,0,0a7.46,7.46,0,0,1,.41,1.18A6.83,6.83,0,0,0,160,88.79a1.93,1.93,0,0,0,1.81.07c.65-.24,1.65-1.63,1.79-1.68l0-.1a.88.88,0,0,0,.18-.25c.45-.36.84-1.16.95-1.15s.22-.27.42-.3c-.06-.1.17-.38.31-.4s.14.17.22.06a5,5,0,0,1,.47,1.13A17.79,17.79,0,0,0,168,89c.21.51.49.48.69,1,.21,0,.2.24.36.28.07.27.48.37.69.59-.05.08,0,.05,0,.14s.07.14.22.06c0,0,0,.06,0,.11a.43.43,0,0,1,.26.09,7.19,7.19,0,0,0,2.52,1.5s-.07,0-.07,0c.51.21,1,.45,1.55.64,0-.13-.2-.1-.12-.16s.27.06.34.18c.07-.12,0,0,.08,0,.67,0,1.27.4,2.05.38,0,.12.34,0,.24.23.17-.13.5.1.59-.15.17.13.24,0,.47,0,0,.15.18.13.27.19s.12,0,.17-.06c.28.11.73,0,.91.13a.7.7,0,0,0-.44.12c.15,0,.4,0,.54,0,.08-.08-.1-.16,0-.22,0,.17.06,0,.14,0s.11.06.12.15l-.24,0c.18.13.53,0,.8.06,0-.07-.12-.1,0-.14a.92.92,0,0,0,.59-.08c.14.08.32,0,.41.1.2-.14.54,0,.82,0-.05-.1.11-.07.12-.13.13.13.52.07.69,0a2.54,2.54,0,0,0,1.16-.12c0-.12,0-.1,0-.2s-.05.12-.14,0,0,.13-.05.15a2.39,2.39,0,0,1-.53,0s0,0,0-.11c-.32.15-.47,0-.76.21.12-.26-.17,0-.21-.23a.33.33,0,0,1,.14,0c-.05-.17-.22-.08-.24,0s.09,0,0,0-.17-.07-.16-.19.29,0,.48-.08c0-.16.13-.18.14-.31.05.19.3.08.44.06,0,.21-.37.08-.41.18s.07.12.16.11.23-.1.24,0-.2.07-.19.18.21-.2.31-.06c0-.08,0-.2.11-.23s.56.07.7-.13c0,.13.12,0,.12.07s-.13.22-.19.18c0,.13.14,0,.21,0,0-.22.09-.31.18-.28s0,.11.05.1,0-.16,0-.14.22.07.32,0,0,.13.06.13,0,0,0,0h0c.12,0-.11,0,0-.06s.38,0,.56-.11c0,0,0-.12,0-.14a.69.69,0,0,1,.25,0c0,.08-.22,0-.16.17h0c.15-.12.37-.24.53-.17,0,0-.07,0,0,.11l.14,0s0,0,0,0-.06,0,0-.13a6.4,6.4,0,0,0,2-.35s0-.1,0-.11.09,0,.08-.09,0,.09,0,.11.15.06.27,0a.18.18,0,0,1,.11-.17c.06,0,.15-.08.13-.19a.11.11,0,0,1,.1.06h0s.11.06.12.14,0,0-.06.06-.07,0-.11-.06l-.06.06a.47.47,0,0,1,.1.32.44.44,0,0,1,.24-.11c0-.07-.06-.06-.09-.09.37-.14.76-.36,1.09-.45,0,0,0,.06,0,.1a.36.36,0,0,0,.36-.24c.1.16.28,0,.4.06,0-.08,0-.18.16-.21s-.05.07,0,.07.17,0,.42-.08c0-.12.12-.16,0-.24s.05.18-.15.2-.14-.1-.25,0c0-.12-.07-.1-.13-.12s.07.13-.08.16,0-.11,0-.18l-.09.06c-.11.13-.26.12-.43.23,0-.07,0-.11-.07-.12l0,0s.07.06,0,.08,0,0,0,0-.08,0-.1,0A.76.76,0,0,0,190,92s.07.09,0,.08-.06,0-.12-.12h0a0,0,0,0,1,0,0c-.08,0,.08.14-.09.16,0-.06,0-.1-.07-.09v0c0,.09-.19.13-.17.1a.38.38,0,0,1,0-.15.32.32,0,0,1-.17,0s0,0,0,0-.06,0-.12-.1c0,.19-.25.16-.44.16,0,.08-.13.17-.17.1.16-.06.12-.06.06-.15.12-.17.49-.1.5-.24s0,.11.15,0a.68.68,0,0,1,.48-.17c0-.09.3,0,.33-.23.11,0,.11-.09.24-.08,0,.06-.11.12,0,.14s.06-.19.19-.22,0,.12.09.12a.25.25,0,0,0,.08-.18c.08.1.13,0,.19.06a.18.18,0,0,1,.15-.19c.09.11,0,.06,0,.2.25,0,.44-.37.64-.26,0-.07,0-.15.12-.19s.1.11.16.14.24,0,.34-.1,0-.21-.09-.19m-35.07-6.93c-.3.66-.26,1.38-.81,1.62l0,.29c-.09.51-.52.76-.82,1.11l.1.13a1.81,1.81,0,0,1-.75.84,20.59,20.59,0,0,1-1.86,1.61c-.82,0-.58.38-1.6.28a1.08,1.08,0,0,1-.29-1.64,7.62,7.62,0,0,1,1.15-2.26c.72-1.08,2.33-1.94,2.79-2.54a7,7,0,0,1,2.29-1.22Zm9.52-3.75c-.21-1.77,0-3.13-.12-4.77,0,0,0-.06.1-.06a21.75,21.75,0,0,1,.2-3.13c.3-.28-.09-1.22.33-1.31,0-.22.23-.59.06-.6a3.18,3.18,0,0,1,.52-1.28l0-.17a3,3,0,0,1,1.1-.79c.11,0-.12.46.07.38.18.18.23.52.44.66l.06.34c.18.18,0,.77.22.84a1.64,1.64,0,0,0,0,.45c-.07,1,.13.71,0,1.61,0,.11.12.08,0,.58,0,0-.07.26-.1.26s0,.22-.07.21,0,.26-.05.43c0,0,.06,0,.1,0l0,.11s-.09.06-.11.13.05,0,.07,0a.42.42,0,0,0-.07.36.5.5,0,0,1,0,.12c-.07.06-.14,0-.22.13s.06.28-.14.31c.1.09,0,.26.08.33-.09,0-.15,0-.13.13s-.16.43-.33.54c.14.08,0,.37.2.38-.07.06-.14.14-.21,0-.15.3-.29.6-.42.92.1-.06.08.06.09.12a.76.76,0,0,0-.22.18c0,.16-.09.31-.13.44s-.15.42-.23.43a3.51,3.51,0,0,1-.4.77c-.12,0-.12.17-.14.27-.32.09-.2.48-.46.61m15.12,13.84s.05,0,.11,0a.08.08,0,0,0,0,.07.16.16,0,0,1-.1,0m.11,0a.12.12,0,0,1,0-.05.12.12,0,0,1,0,.05m.12-.18a.42.42,0,0,1,.32-.24s-.05,0,0,0,.13,0,.15.08c-.13,0-.21.15-.46.2m1.91-.4c.13-.06.09.09.18.08s-.2,0-.18-.08m.71.12c0-.08.08-.09.14,0s-.09,0-.14,0m.17,0c0-.07,0-.07.1-.08a.11.11,0,0,1-.1.08m.28-.36c0-.11.1-.08.16-.1s-.07.09-.16.1m.43.09a.08.08,0,0,1,.08-.08l.06,0c0,.06-.09,0-.14.06m.19-.24c.05-.06.19-.14.27-.08a.3.3,0,0,1-.27.08m.32.08c0-.08.28-.18.27,0a.37.37,0,0,0-.27,0m.45-.32c.11,0,.23-.07.22.06s-.21,0-.22-.06m.43.41c-.16-.11-.21.06-.38,0,.08-.18.3-.11.46-.25,0,.06.05.06.05.13s-.17,0-.13.09m.4-.6c-.12,0-.14,0-.16-.11a.28.28,0,0,0,.18,0,.14.14,0,0,0,0,.11m0,.38s0,0,0-.07l.07,0c0,.08,0,.08-.1.09m.3-.47h-.06c0-.14-.06,0-.12,0s.15,0,.2-.07,0,.06,0,.11m.42.38s-.06-.05-.11-.05.09,0,.14-.06a.2.2,0,0,0,0,.11m.05-.19c-.08,0,0-.11,0-.14s0,.07.08.06-.07,0-.07.08m.06-.15c0-.12.22-.19.27-.08s-.2.13-.27.08m.86-.19v.07H189v-.06l.07,0m-.39,0s0,.1,0,.14-.15-.13,0-.14"/><path class="cls-2" d="M196.93,91.07a2.74,2.74,0,0,1-1.1-.23,3.2,3.2,0,0,1-.89-.61,3,3,0,0,1-.59-.9,2.93,2.93,0,0,1-.21-1.09,2.87,2.87,0,0,1,1.74-2.59,2.85,2.85,0,0,1,1.08-.21,2.79,2.79,0,0,1,2,.84,2.82,2.82,0,0,1,.57,3.08,2.72,2.72,0,0,1-.61.89,2.84,2.84,0,0,1-.9.6,2.68,2.68,0,0,1-1.08.22Zm0-5.29a2.41,2.41,0,0,0-1,.19,2.61,2.61,0,0,0-.79.53,2.42,2.42,0,0,0-.52.78,2.37,2.37,0,0,0-.19,1,2.48,2.48,0,0,0,.17,1,2.44,2.44,0,0,0,.51.79,2.58,2.58,0,0,0,.77.53,2.51,2.51,0,0,0,1,.2,2.35,2.35,0,0,0,1-.19,2.47,2.47,0,0,0,1.51-2.26,2.69,2.69,0,0,0-.18-1,2.55,2.55,0,0,0-.51-.79A2.58,2.58,0,0,0,198,86a2.34,2.34,0,0,0-1-.2l0,0Zm.88,3.86-.85-1.1h-.67v1.07h-.48l0-2.91h1.31a1.69,1.69,0,0,1,.5.08A1.1,1.1,0,0,1,198,87a1.14,1.14,0,0,1,.18.25.92.92,0,0,1,.06.33.78.78,0,0,1-.23.59,1.18,1.18,0,0,1-.5.28l.89,1.16Zm-.73-1.52a.94.94,0,0,0,.47-.12.45.45,0,0,0,.09-.63.23.23,0,0,0-.07-.07.68.68,0,0,0-.46-.14h-.81v1Z"/><path class="cls-2" d="M197,85.47h0a2.77,2.77,0,0,1,1.09.23,2.61,2.61,0,0,1,.87.6,2.82,2.82,0,0,1,.59.89,2.66,2.66,0,0,1,.2,1.08h0a2.81,2.81,0,0,1-.83,2,2.85,2.85,0,0,1-.89.6A2.8,2.8,0,0,1,197,91h0a2.76,2.76,0,0,1-2-.83,2.88,2.88,0,0,1-.57-.89,2.47,2.47,0,0,1-.21-1.07v0a2.63,2.63,0,0,1,.22-1.07,3.12,3.12,0,0,1,.6-.88,2.94,2.94,0,0,1,.89-.59,2.68,2.68,0,0,1,1.08-.22m0,5.29a2.42,2.42,0,0,0,1-.19,2.57,2.57,0,0,0,.8-.54,2.44,2.44,0,0,0,.73-1.75v0A2.43,2.43,0,0,0,198,86a2.33,2.33,0,0,0-1-.21h0a2.46,2.46,0,0,0-1,.2,2.38,2.38,0,0,0-.8.53,2.49,2.49,0,0,0-.53.79,2.63,2.63,0,0,0-.2,1h0a2.5,2.5,0,0,0,.19,1,2.33,2.33,0,0,0,.51.8,2.59,2.59,0,0,0,1.77.74h0m-1.08-4h1.28a1.37,1.37,0,0,1,.49.09.84.84,0,0,1,.36.22.81.81,0,0,1,.17.24.7.7,0,0,1,.05.32h0a.69.69,0,0,1-.21.55,1,1,0,0,1-.53.28l.87,1.16h-.52L197,88.53h-.74V89.6h-.42l0-2.85m1.23,1.4a.88.88,0,0,0,.47-.13.43.43,0,0,0,.2-.38h0a.44.44,0,0,0-.18-.36.71.71,0,0,0-.47-.14h-.84v1h.83M197,85.4a2.87,2.87,0,0,0-2.62,1.73,2.78,2.78,0,0,0-.23,1.1,2.64,2.64,0,0,0,.21,1.11,2.83,2.83,0,0,0,2.6,1.76h0a2.77,2.77,0,0,0,1.1-.22,2.86,2.86,0,0,0,1.55-3.72,2.81,2.81,0,0,0-1.49-1.52A3,3,0,0,0,197,85.4Zm0,5.3h0a2.43,2.43,0,0,1-1-.2,2.67,2.67,0,0,1-.76-.53,2.22,2.22,0,0,1-.5-.78,2.53,2.53,0,0,1-.18-.94,2.46,2.46,0,0,1,.2-1,2.23,2.23,0,0,1,.52-.77A2.38,2.38,0,0,1,196,86a2.54,2.54,0,0,1,.94-.19h0a2.38,2.38,0,0,1,.95.2,2.58,2.58,0,0,1,.77.53,2.49,2.49,0,0,1,.68,1.72,2.56,2.56,0,0,1-.2.95,2.38,2.38,0,0,1-.52.77,2.27,2.27,0,0,1-.78.52,2.17,2.17,0,0,1-.94.19m-1.13-4v.06l0,2.85v.07h.55V88.57H197l.8,1.06,0,0h.68l-.08-.11-.82-1.08a1.15,1.15,0,0,0,.48-.27.82.82,0,0,0,.23-.6.84.84,0,0,0-.07-.35.68.68,0,0,0-.18-.26.91.91,0,0,0-.37-.24,1.52,1.52,0,0,0-.51-.09h-1.34Zm.53,1.4v-.89h.78a.66.66,0,0,1,.43.13.35.35,0,0,1,.15.31.39.39,0,0,1-.16.34.76.76,0,0,1-.44.11v.06l0-.06Z"/></svg>