<svg id="Layer_1" data-name="Layer 1" xmlns="http://www.w3.org/2000/svg" viewBox="0 0 250 200"><defs><style>.cls-1{fill:#1b242f;}.cls-2{fill:#fff;}</style></defs><rect class="cls-1" width="250" height="200"/><path class="cls-2" d="M97.34,82.26a.43.43,0,0,0,.48.33h1.69a.45.45,0,0,0,.47-.3c.57-4.08,1.21-8.21,1.8-12.25v0s0-.11,0-.14c0-.24-.13-.26-.35-.26h-1.36a.45.45,0,0,0-.45.37L99,74.83l-.33,2.82-1-7.63c0-.31,0-.37-.3-.37H95.83c-.26,0-.33,0-.33.2a.55.55,0,0,0,0,.18Z"/><path class="cls-2" d="M104,82.65h1.24c.33,0,.5-.13.5-.39V70.15c0-.31-.17-.43-.5-.43H104c-.3,0-.48.13-.48.43V82.26C103.55,82.52,103.72,82.65,104,82.65Z"/><path class="cls-2" d="M110.58,82.72c1.73,0,2.89-1,2.89-2.45a8.83,8.83,0,0,0-1.87-4.83,7,7,0,0,1-1.62-3.8c0-.37.18-.52.66-.52s.55.11.55.33V72c0,.27.19.41.5.41H113c.33,0,.47-.14.47-.41v-.54c0-1.23-1.23-2-2.87-2-1.86,0-2.93,1-2.93,2.45a8.11,8.11,0,0,0,1.88,4.7,6.79,6.79,0,0,1,1.55,3.91c0,.44-.19.55-.56.55s-.6-.11-.6-.35v-.61c0-.27-.17-.42-.5-.42h-1.37c-.3,0-.45.15-.45.42v.61C107.65,81.91,108.72,82.72,110.58,82.72Z"/><path class="cls-2" d="M116.37,82.65h1.23c.34,0,.5-.13.5-.39V70.15c0-.31-.16-.43-.5-.43h-1.23c-.31,0-.48.13-.48.43V82.26C115.89,82.52,116.06,82.65,116.37,82.65Z"/><path class="cls-2" d="M120.08,71.27h1.62V82.19c0,.28.17.41.5.41h1.18c.35,0,.51-.13.51-.41V71.27h1.6c.35,0,.52-.13.52-.41v-.79c0-.28-.17-.4-.52-.4h-5.41c-.31,0-.48.12-.48.4v.79C119.6,71.14,119.76,71.27,120.08,71.27Z"/><rect class="cls-2" x="95.5" y="85.95" width="30.64" height="1.74"/><path class="cls-2" d="M121.39,110.34l-.09-.12S121.34,110.3,121.39,110.34Z"/><path class="cls-2" d="M171.29,110l.16.08a1.87,1.87,0,0,0-.08-.32.3.3,0,0,1,.08-.16v-1.78a2.4,2.4,0,0,0-.81-1v.08c-.24,0-.49-.25-.81-.25v-.15H170c-.08,0-.08-.08-.08-.16A7.28,7.28,0,0,1,169,106h.57a2.08,2.08,0,0,0-.65-.17h-.08a1.8,1.8,0,0,1-.65.09l-.24-.25c0-.08-.16-.08-.16-.16s.08-.08.08-.16c0-1-1.7-1.46-2.35-1.62v.08c-.32,0-.56-.16-.88-.16v.08a1.76,1.76,0,0,1-.49.16h-.08l.16-.16-.24-.24.16-.08c-.08,0-.32-.09-.4-.09h-.25l.25.09c-.33,0-.81.4-1,.4l-.08-.08c.08,0,.17-.16.25-.24-2.27,0-5.26,5.58-6,7,.08,0,.08,0,.08.08h0l0,.07c0,.56-.48,1.25-.48,1.87a8.55,8.55,0,0,0,.4,2.51H157l-.16-.16V115c0,1.29,1.22,2,1.78,3h-.16l.16.16c.08,0,.16-.09.24-.09h.08l.08.09c-.08,0-.16,0-.16.08s.16.08.24.08v.16c.41,0,.49.4.73.4h.08c-.16-.08-.08-.08-.08-.16.16,0,.57,0,.49.24.16-.08.32-.24.4-.24.24,0,.24.32.24.41-.24,0-.08-.09-.4.08a2.16,2.16,0,0,0,1,.16,1.69,1.69,0,0,0,1.13-.24l-.08-.09C164.57,119.52,171.69,112.64,171.29,110Zm-5-1.21c-.16-.08-.24-.33-.32-.4v.07a7.25,7.25,0,0,1,.24,1.3v.16c0,2.11-3.31,5.75-5.58,5.75-.48,0-.57-.24-.57-.73,0-2.74,2.44-5.75,4.29-7.45h.49a1.37,1.37,0,0,1,1.34.75.77.77,0,0,1,.11.3Z"/><path class="cls-2" d="M157.79,102h-.73a.54.54,0,0,1,.56-.16c-.16-.32-.16-.16-.32-.16,0-.32.89-.57,1.94-.65-.08,0-.08,0-.08-.08v-.08a.08.08,0,0,1,.08-.08h0c-.08-.25-.08-.25-.24-.25-.48,0-1.05.17-1.54.17v-.24c1.7-.17,3.48-.09,5.17-.33a1.77,1.77,0,0,0,.4-.08v-.16c-.32,0-2.83-.33-3.31.16v-.24c1.13,0,2.26-.25,3.48-.25.08,0,.64,0,.8.17-.32.08-.64,0-.64.32.16,0,.64-.08.73.08l.07.16c-.07,0-.48-.08-.64-.08-.81,0-1.62.49-2.51.49-.4,0-.65-.08-1.21-.08,0,.08.16.08.16.16l.08.08h-.65v.16c1.14-.08,2.51-.08,3.08-.08h.16l-.49.16h.33a6.26,6.26,0,0,0,.73-.08V101c.24,0,.64-.24.8-.16l-.08-.16h.33a7.64,7.64,0,0,1,1.94-.81h.16c.08.08.49.16.56.24.33,0,.73-1,.73-1.29,0-3.49-7.29-3.32-9.22-3.32v-.08a6.35,6.35,0,0,0,.17-1.3c0-.65-.81-2.43-1.62-2.43h-.09a1.19,1.19,0,0,1,.48.41h-.24a.08.08,0,0,1-.08.08h0c-.08,0-.08-.17,0-.17l-.35-.14a.09.09,0,0,1,0,.06l-.17.08a.08.08,0,0,1-.08-.07h0c0-.08.08-.08.08-.16-.24-.08-.4-.24-.4-.32l-.24.24c0-.08,0-.24-.16-.24,0,.32-.33.56-.33.89a.35.35,0,0,0,.16.08c-.32.08-.16.4-.4.57-.41,1-.73,3.07-2,3.31-1.14.25-3.89.73-3.89.73h-.08l-6.47,1.62-2.51,1a.3.3,0,0,1-.16.08v-.08l-.32.08c.08,0,.08.17,0,.17s-.07,0,0-.07l-.19.07c0,.07,0,.16-.09.16s-.16-.09-.08-.16l-1.21.4a2,2,0,0,0-.33.08c-.08,0-.32-.08-.4-.08h-.08a1.46,1.46,0,0,0,.57.81v.08l-.17-.08c.17.24.41.89.73.89a1.76,1.76,0,0,1-.4-.65c.16.24.89.73.89.89h-.08l-.17-.08h-.08a5,5,0,0,0,.65.65c-.08-.08-.08-.16,0-.16s.16.16.08.16a6,6,0,0,0,3.56.89l.24-.08h1l3.72-.41c0-.08,0-.16.09-.16v.16l.8-.08V103h.64c.53,0,1-.08,1.63-.08,0,.33-.16.57-.16.81h-.16a.16.16,0,0,0,.16.16c-.09.09-.25.09-.25.25h.09c0,.16-.09.32-.09.48l-.16-.16c-.16.24.08.57-.16.81l-.16-.08v.16c-1.54,4-3,8.81-3,13.19,0,2,.65,5.26,3.24,5.26,0-.08.16-.16.33-.24h.16c0,.16-.25.16-.33.32h.08c.16,0,.65-.4.65-.4a.35.35,0,0,1-.08-.16l.08-.17.08.17c.57-.25.57-2.11.57-2.59,0-.33-.08-.49-.08-.81,0-.49.24-1.06.24-1.54l-.08-.16v-.16c.16,0,.16-.17.24-.41a13.47,13.47,0,0,0,.57-2.43l-.08-.08c.08,0,.16-.16.16-.25.56-1.37.81-2.1,1.37-3.88,1.3-.32.89-5.9,2.19-6.55C156.88,102.93,156.57,102.61,157.79,102Z"/><path class="cls-2" d="M156.7,91.87l0,0Z"/><path class="cls-2" d="M200,92.33c0-.49-1.13-.89-1.52-.89h-.16l.16.16c-.25.24-.32.49-.57.65v-.08c0-.08.08-.49.08-.57h-.32c-1.62,0-2.43,2-3.16,3.08-.72,1.62-1.29,3.15-1.94,4.77l-2.18,7c-.41,1.7-1.22,4.29-1.54,5.5,0,.09-.08.09-.08.17h-.08c-.24-.73-1-2.75-1.62-3.08v.25c-.16-.09-.24-.17-.24-.25s.16-.16.16-.24v-.08l-.42-.66v.08l.08.25c.08.08.08.32.08.32s-.08.24-.16.24c0-.48,0-.73-.32-.81.16-.08.16-.16.16-.32v-.16c-.24-.49-1-2.76-1.62-3.08l-.08.08a2.52,2.52,0,0,1-.48-1.05l-.57-.71c-.16,0-.16-.09-.08-.17a1.75,1.75,0,0,0-.32-.48v.16c-.08,0-.08-.24,0-.24l-.24-.41a.08.08,0,0,1-.09-.07h0a3.29,3.29,0,0,1-.4-1.37c0-.82.81-1.3.89-2.11h-.16c0-.08.08-.16-.08-.24l-.09.16a2.33,2.33,0,0,0-1.37-1l-.08-.08a.08.08,0,0,0-.08.07h0a.48.48,0,0,0-.33-.08c-.08,0-.16.08-.24.08-.24,0-.81-.33-1.13-.33-.08.09-.08.09-.16.09h-.09a.47.47,0,0,1,.17-.33l-.41,0v0l-.25.16-.16-.16h-.24a.17.17,0,0,1,0,.22l-.05,0c-.09,0-.09-.24,0-.24h-.16l-.73.73a.9.9,0,0,1-.25.81l-5,12.07a25.89,25.89,0,0,0-2.19,9.55c0,1.86.17,7.29,3.24,7.29,2,0,2.91-4.45,2.91-6.14a7.06,7.06,0,0,0-.08-1.38c-.73,1-1.29,4.93-2.75,4.93v-.16c0-.24.08-.81.08-.81l1.86-6.31c2-3.48,2.59-7.69,4.61-11.17l.25.17,1.21,3.31c.16.49,4.93,12.55,5.1,12.55h.16a1.68,1.68,0,0,1,.32-.09V122l-.08.08c.32,0,0,.16.41.32a.15.15,0,0,0,.21,0s0,0,0,0c-.24.48.4.16.4.16v.25c.33,0,.65.48,1,.48h.17l.08-.08c.32,0,.64.4,1.05.4v-.24l.32.24.16-.08c0,.17.16.17.25.17s.24,0,.24-.09.24.17.32.17h.08v-.25c.08,0,.4.33.48.33.4,0,.89-1.22,1.38-1.38.48-2.67.8-5.42,1.05-8.17-.08-1,.48-1.94.4-2.83l.82-4.57c1.85-3.89,2.51-9.47,3.88-13.68C199.76,92.9,200,92.66,200,92.33Z"/><path class="cls-2" d="M146.46,111.51l-.08.16a3.88,3.88,0,0,0-.65-2.26v.48a1.13,1.13,0,0,1-.08-.48c0-.08-.08-.25.08-.25l-.32-.24v.16c.08.08.08.25.16.25h-.16l-.17-.49.09-.08c.16-.16-.57-.73-1.14-1.22h-.08c-.24-.24-.56-.49-.56-.56h.24a11.38,11.38,0,0,0-7-2,49.66,49.66,0,0,0-9.79,1.22h-.56c1.29-1,2.1-2.59,3.48-3.65,2.5-1.86,8.41-6.88,11.89-6.88h2.75a1,1,0,0,1,.81.41V96c0-.08-.08-.24-.08-.32h.08c.32,0,.89.49,1.13.73,0-.24-.48-.65-.57-.73a3,3,0,0,0,1.22.24h.17a4.47,4.47,0,0,0-1.21-2.67c.08.08.08.16,0,.16s-.08-.24,0-.24c-.49-.48-.89-1-1.38-1.38,0,.08,0,.08-.08.08s-.08-.24,0-.24c-.32-.08-.65-.56-1.05-.56l.08-.08a2.14,2.14,0,0,0-.81-.65c-.16-.08-.32-.08-.4-.16h.24l-.73-.65a1.43,1.43,0,0,0-.24-.16,1.7,1.7,0,0,0-.81-.33c-.16,0-.32.25-.48.33a15.25,15.25,0,0,0-1.7.89.35.35,0,0,1-.16.08L136,91.76c-.16.08-.08,0-.08.17h-.24V92c-.17,0-.17-.08-.33.08L132,94.27c-.24.09-.48.16-.48.41h-.16l-5.52,4,.08.08h-.16c.08,0,.08.24,0,.24h-.08v.08c-.07,0-.08-.17,0-.23a3.3,3.3,0,0,0-.86.71v.08h-.16s-.65.57-.89.82-.33.32-.33.4a.08.08,0,0,1,.08-.08h0c.08,0,.08.16,0,.16-.57,0-1.2.57-1.74,1.34,1.17-2,2.8-4.63,2.8-4.9a.46.46,0,0,0-.11-.3h0a.41.41,0,0,0-.13-.1s.09,0,0-.08c-.8-.81-3.55-1.22-3.8-1.38h-.16c0,.08.08.08.08.16h-.08c-.08,0-.24.16-.24-.16-.48.4-.48.89-1,1.3v.24l-2.6,4.93-5.58,7.85-.08.08-.49.73-5,6.88c-.33.32-1.86,2.59-2.51,2.59a32.92,32.92,0,0,1,.73-4l2-6.88a12.76,12.76,0,0,0,.65-1.79l3.4-9.3a9.09,9.09,0,0,0,1.13-2.75c0-1-3.07-1.78-3.72-1.78h-.2A1.94,1.94,0,0,0,105.46,95c-2.27,1.29-6,4.28-8.91,4.28H96.4c-.16-.24-.4-.8-.72-1a10.06,10.06,0,0,0-4.78-1,3,3,0,0,0-1.36.57c-1.05-2.65-5.27-2.87-5.27-3.16l.09-.16c.07-.08.16-.24.24-.24l2.67-5.83a1,1,0,0,0,.08-.24c.16-.41,1-2.51,1.21-3C89,82.18,91,79.67,91,76.44a2.92,2.92,0,0,0-1.86-2.51c-.48,0-1.45-.16-2.18-.16h-.24l-.08.16c-.49-.16-.17,0-.49,0,0-.08-.24-.16-.08-.24-.24.08-.57.24-.73.16a24,24,0,0,0-2.59,3.08l-11.5,15.9-.08.16-2.35,3.64-4.69,1.46H64l-.15-.18c.16.25-.25.25-.33.25v-.08c.33,0,0-.65.41-.81-.08-3.08,1.93-5.1,2.18-6a2.78,2.78,0,0,1,.08-.49l-.08-.09a4.49,4.49,0,0,1-.17-.81v-.16c0-.24.17-.49.17-.73h.08c0-1,1-3,1.37-4l.08.09c-.08.08-.08.4-.08.48s0,.16.08.16a1.14,1.14,0,0,1,.16-.47,25.78,25.78,0,0,0,1.29-5.74,1.77,1.77,0,0,1-.08-.4c-.4,0,.08-.73-.32-.73h-.08v.16c-.64-.09-.81-.41-1.53-.64a.1.1,0,0,1-.09-.08h0l-1.37-.24v.08c-.33,0-.57-.16-1-.16a1.5,1.5,0,0,0-1.21.73,2.25,2.25,0,0,1,.08.24v.08l-.25.41-7.59,21.93H55.3c-.48,0-.8-.08-1.29-.08a.08.08,0,0,0-.08.07h-.81c0,.81,1.46,1.54,1.86,2a44.14,44.14,0,0,1-1.62,4.7l-2.26,7.29c-.16,1.21-.65,2.19-.73,3.32v.48c.16,0,.16.16.08.16.08.09.08.17-.08.17v.16a.12.12,0,1,1,0,.24l-.08,1.38c.08.16.16.73.24.81V122l-.32-1.07v.24c0,.49,1,3.56,1.94,3.56h.08l-.08-.16s.4.08.49.24h-.17v.08a2,2,0,0,0,.33.09c.16.07.64.07.73.16V125l.3.14s0-.23,0-.23.08.25,0,.25c.16,0,1,.16,1.21.16a.68.68,0,0,1,.57-.08l-.08-.08c.81-.25.24-.09.72-.09v.17c.33-.24,1.3-1.3,1.54-1.3a.3.3,0,0,0,.08.16c.65.08,1,.33,1,.08v-.08l-.08-.08H59l.65-.64V123c.33,0,.33-.08.33-.4.32,0,.89-1.06,1-1.22v-.16l.25.08v-.24h.16c.32-4.7,4.86-10.2,4.37-15l.81-2.27c.08,0,.32-.24.4-.32v-.09H66.8c3.07-1,6.51-2.55,9.24-2.07l-1.68,6.49L71.7,118.92c0,.16-.08.33-.08.49l-1.22,6.23c-.08.32-.24,1.21-.24,1.3a5.36,5.36,0,0,0,.73,2.66c.24-.08.72.25.72.49h-.16c.16.08.16.32.32.32h.17l-.17-.08h.32l.16-.08c.16,0,.08.16.08.24s-.08-.16-.16,0l.16.08c.24,0,.24-.16.49-.24,0,.16.08.24.16.24a6.78,6.78,0,0,0,1.35-.53v-.48c.24,0,.32-.24.32-.41l-.16-.16a.64.64,0,0,1,.33-.16s.16,0,.16.08c-.08-.49-.08-.56,0-.56-.08,0-.08-.17,0-.17s.08.17,0,.17c.08,0,.32.4.32,0v-.09l-.08-.24v-.08l.24.24.16-.16.74-5.41a5.06,5.06,0,0,1,.09-2.19.24.24,0,0,0,.16.09v-1.3a9.47,9.47,0,0,0,.16-1.29l-.08.08c1.11-4.75,1.75-7,2.09-8.67a3.86,3.86,0,0,1,.69-1.18,2.25,2.25,0,0,1,.08-.73l.16.08v-.57l.08.16c.09-.28.25-.65.39-1h0v0a3.33,3.33,0,0,0,.23-.82c0-.12.07-.24.1-.36v0l.1-.48h0c.13-.61.47-1.26.52-1.52,3.53-3.27,3.38-2.82,4.25-2.82h.73a.25.25,0,0,1,.24.24,3.51,3.51,0,0,1,1-.08h.2c-1,1.57-1.69,3.4-2.23,4.44-.8,3-2.34,5.42-2.34,8.66,0,1.94,1,6.23,3.88,6.23l-.24-.16v-.08a2.36,2.36,0,0,0,.81.4l0,0a3.87,3.87,0,0,0,1.66.47h.41c-.08,0-.08-.16.08-.16s.08.16,0,.16c.89-.08,2.59-.41,2.59-.81v-.24h.16c0-.08,0-.25.08-.25s.08.17,0,.25c3-.73,5.1-13.11,5.5-16.43.41-.32,4.86-2.59,5.58-2.59v.16c0,.08-.56,1.38-.64,1.86l-1.94,5.42c-.17,1.06-1.22,2.11-1.06,3.08A25.34,25.34,0,0,0,98,119.49c0,1.78.24,2.75,1.3,3.73,0-.09,0-.17.08-.17s.08.17,0,.25a4,4,0,0,0,.57.32c.08,0,.16.16.16.16a.08.08,0,0,1,.07-.08h0a1.1,1.1,0,0,1,.56.16.34.34,0,0,1,.17-.08c.07,0,.07.08,0,.16a2.14,2.14,0,0,0,.8.32v.09h-.4c.32.08.73.4,1,.4,0-.24-.32-.24-.48-.32h.9l.16-.08.09.08-.09.08h-.4c-.08.24.08.24.16.24.33,0,1.7-.32,1.86-.65a.11.11,0,0,0,0-.08h.17c.16,0,.16-.16.08-.32l.25.08v-.24l.16.08v-.16c.08,0,.08.08.16-.08l-.08-.08h.16c0-.17.16-.17.08-.33.08.08.16.16.24.16v-.32c0,.08.08.16.16.08s.17-.16.17-.24l4.12-5.51.08-.07c.08,0,1.38-1.95,1.94-2.76a1.3,1.3,0,0,1,.25-.48h.08c0,1.45-.24,7.36,2.73,7.36h.25a1.1,1.1,0,0,0,.72-.24l.08.32H116l.32.16H116a.34.34,0,0,1,.08.17h.08a1.35,1.35,0,0,0,1.22-1.38l-.08-.16a.25.25,0,0,0-.16.08h-.17l-.08-.16v-.81c0-4.38,2.13-8.42,3.24-12.54,0,.51.15,1,.15,1.45v.08a3.68,3.68,0,0,1-.24-.89v.24c0,.25.24.65.16.89a12,12,0,0,0,1,1.62v-.16l.41.57a.79.79,0,0,0-.15-.12,2.93,2.93,0,0,0,2.17,1.41c.24,0,.32-.08.57-.08-.09,0-.09-.16,0-.16s.08.16,0,.16h.08l3.39-.73a34.31,34.31,0,0,1,7.2-1.78v-.08c1.14,0,2.19-.16,3.24-.16a13.17,13.17,0,0,1,2.43.08.08.08,0,0,1,.08-.08h0c.08,0,.08.08.08.16.24.08.41.17.41.33,0,4-12.3,10.68-16.26,10.68a9.16,9.16,0,0,1-2.27-1.38l-.08.08c.08.17.32.17.32.49-.48,0-.89-1-1-1.54h-.08a4,4,0,0,0-.65,1.94,5.83,5.83,0,0,1,.09,1.22l.72,1.7c1,2.18,4.53,2.27,6.38,2.27,1.14,0,4.29-1.22,5-1,.57-.24,2.18-.72,2.18-1.53h.09c-.09,0-.09-.17,0-.17s.08.17,0,.17c1.05,0,2.18-1,3-1.46,1.62.24,8.09-6.72,7.68-8.25l.24.16a.85.85,0,0,1-.07-.41v-.08Zm-81.93-7.69s-1.62,2.83-2.35,4c-2.51,4-2.91,4.69-3.15,4.86,0-.17-.17-.33-.17-.49l.25.16.08-.08v-.08l1.86-6.47h.08s.16,0,.16.08v-.08c0-.24-.24-.33-.24-.57h.24c0-.89,1.29-1.21,2.27-1.21v-.08s.88-.09,1-.25Zm17.79-22-4.2,13c-.09.16-.49.16-.49.16l-7.29,1.29h-.17v-.07c0-.09.33-.57.33-.65,9.54-12.63,10.59-12.87,10.59-13v-.08h.08c-.08,0-.08-.17.09-.17l.08.09c.08-.09.24-.16.24-.33h.16l.58-.39Zm10.76,25.91c.4,1.61-3.16,8.17-4.77,8.17a12,12,0,0,1,.16-3l1.45-6.16a13.8,13.8,0,0,1,1.46-3.4s.16-.4.32-.4V103a2.27,2.27,0,0,1,.57.32h.65c.32,0,.56-.07.89-.07.16,0,.16.07.16.24A16.09,16.09,0,0,1,93.08,107.72Z"/></svg>