<svg id="Layer_1" data-name="Layer 1" xmlns="http://www.w3.org/2000/svg" viewBox="0 0 250 200"><defs><style>.cls-1{fill:#1b242f;}.cls-2{fill:#fff;}</style></defs><rect class="cls-1" width="250" height="200"/><path class="cls-2" d="M115.2,93.75v2.78h3.44v1.84H115.2V103H113V91.93h6.29v1.82Z"/><path class="cls-2" d="M124.43,100.44A4.42,4.42,0,1,1,129,96,4.42,4.42,0,0,1,124.43,100.44Zm0-7.34a3,3,0,1,0,2.83,3A2.84,2.84,0,0,0,124.43,93.1Z"/><path class="cls-2" d="M137.84,104.41l-.86-1.16-3.41-4.86h-1V103h-2.13V91.93h3.7a3.24,3.24,0,0,1,3.45,3.23A3,3,0,0,1,135.78,98l3.55,5,1,1.39Zm-4-10.65h-1.23v2.91h1.23a1.47,1.47,0,1,0,0-2.92Z"/><path class="cls-2" d="M143.59,93.75V103H141.4V93.75H138V91.93H147v1.82Z"/><path class="cls-2" d="M162.53,103l-.4-4.55c-.06-.68-.13-1.51-.14-2.27h0a24.81,24.81,0,0,1-1.09,2.32l-2.33,4.57h-.86l-2.35-4.57c-.35-.68-.74-1.54-1.07-2.31h0c0,.78-.09,1.63-.14,2.26l-.4,4.55h-2l.95-11.08h1.63L157,97.1c.4.76.92,1.81,1.25,2.61h0c.31-.78.8-1.79,1.22-2.61l2.64-5.17h1.57l1,11.07Z"/><path class="cls-2" d="M170.75,98v5h-2.14V98l-4.18-6.08h2.36l2,2.9c.3.41.64,1,.92,1.44h0c.27-.47.66-1.06.93-1.44l2-2.9h2.2Z"/><path class="cls-2" d="M175.61,103V91.93h6.18v1.82h-4v2.78h3.33v1.84h-3.33v2.81h4.56V103Z"/><path class="cls-2" d="M190.86,104.39l-1.67-2.33-2.62-3.66h-1V103h-2.14V91.93h3.69a3.25,3.25,0,0,1,3.46,3.23A3,3,0,0,1,188.79,98l2.81,3.91,1.75,2.51Zm-4.05-10.64h-1.22v2.92h1.22a1.47,1.47,0,1,0,0-2.92Z"/><path class="cls-2" d="M195.82,103.13a5.73,5.73,0,0,1-2.95-.75l-.23-2.13a5.41,5.41,0,0,0,3.13,1c1.07,0,1.78-.53,1.78-1.36s-.49-1.29-1.65-1.64c-2.06-.6-3.07-1.71-3.07-3.35s1.25-3.14,3.61-3.14a5.27,5.27,0,0,1,2.59.63l-.42,1.79a4.33,4.33,0,0,0-2.09-.61c-1,0-1.58.55-1.58,1.22s.52,1.06,1.52,1.37c2,.62,3.27,1.58,3.27,3.54S198.39,103.13,195.82,103.13Z"/><path class="cls-2" d="M115.73,85V89.8h-1.14V85h-1.75V84h4.65v1Z"/><path class="cls-2" d="M123.63,89.8V87.39H121V89.8h-1.14V84H121v2.39h2.61V84h1.14V89.8Z"/><path class="cls-2" d="M127.63,89.8V84h3.22v1h-2.09v1.45h1.74v1h-1.74v1.47h2.39v1Z"/><path class="cls-2" d="M139.41,89.8h-2V84h1.76a1.55,1.55,0,0,1,1.65,1.52,1.13,1.13,0,0,1-.5,1,1.54,1.54,0,0,1,1,1.49A1.78,1.78,0,0,1,139.41,89.8ZM139,84.92h-.52v1.37H139c.41,0,.77-.2.77-.68a.69.69,0,0,0-.77-.7Zm.22,2.23h-.74v1.79h.74a.91.91,0,1,0,0-1.8Z"/><path class="cls-2" d="M144,89.8V84h3.23v1h-2.1v1.45h1.75v1h-1.75v1.47h2.38v1Z"/><path class="cls-2" d="M153.85,89.8l-.55-1.39h-2l-.55,1.39h-1.09L152,84h.64L155,89.8Zm-1.36-3.53c-.06-.17-.14-.4-.21-.62h0a4.48,4.48,0,0,1-.2.62l-.48,1.24H153Z"/><path class="cls-2" d="M161.51,85.3a2.63,2.63,0,0,0-1.32-.35,2,2,0,1,0,0,3.94,2.56,2.56,0,0,0,1.33-.28l-.1,1a3.1,3.1,0,0,1-1.39.24,3,3,0,0,1-3.08-3,3,3,0,0,1,3.08-3,3.45,3.45,0,0,1,1.66.37Z"/><path class="cls-2" d="M168.13,89.8V87.39h-2.6V89.8h-1.15V84h1.15v2.39h2.6V84h1.14V89.8Z"/><path class="cls-2" d="M172.13,89.8V84h3.22v1h-2.09v1.45H175v1h-1.74v1.47h2.38v1Z"/><path class="cls-2" d="M179.5,89.87a3,3,0,0,1-1.53-.39l-.12-1.11a2.87,2.87,0,0,0,1.63.54c.56,0,.93-.28.93-.72s-.26-.67-.86-.85c-1.08-.32-1.6-.89-1.6-1.74A1.7,1.7,0,0,1,179.84,84a2.77,2.77,0,0,1,1.35.32l-.22.94a2.23,2.23,0,0,0-1.1-.32c-.53,0-.82.29-.82.63s.26.55.79.72c1,.32,1.71.83,1.71,1.85S180.85,89.87,179.5,89.87Z"/><path class="cls-2" d="M191,89.92a3,3,0,1,1,3.09-3A3,3,0,0,1,191,89.92Zm0-5a1.94,1.94,0,0,0-1.92,2v.06a1.93,1.93,0,0,0,3.86.16v-.16a2,2,0,0,0-1.88-2Z"/><path class="cls-2" d="M197.85,85v1.45h1.8v1h-1.8V89.8h-1.13V84H200v1Z"/><path class="cls-2" d="M118.33,112.53l-.72-1.74h-2.69l-.73,1.74h-1.44l3.12-7.31h.85l3.11,7.31Zm-1.78-4.42c-.09-.21-.19-.51-.28-.78h0a7.25,7.25,0,0,1-.28.78l-.63,1.55h1.84Z"/><path class="cls-2" d="M127.4,112.65l-3.28-3.41c-.54-.55-1.12-1.21-1.6-1.74h0c0,.59,0,1.17,0,1.67v3.35h-1.47V105.3h1.16l2.93,3c.41.42,1,1.07,1.43,1.57h0c0-.5,0-1,0-1.53v-3.07H128v7.34Z"/><path class="cls-2" d="M132.23,112.53h-2.46V105.3h2.46c2.15,0,4.1,1.33,4.1,3.62S134.38,112.53,132.23,112.53Zm-.19-6h-.78v4.88H132c1.51,0,2.76-.8,2.76-2.45s-1.25-2.43-2.76-2.43Z"/><path class="cls-2" d="M143,116.05a6.16,6.16,0,0,1-3-.72l-.24-2a5.82,5.82,0,0,0,3.21,1c1.1,0,1.83-.53,1.83-1.32s-.5-1.22-1.69-1.57c-2.12-.58-3.15-1.64-3.15-3.21s1.28-3,3.7-3a5.63,5.63,0,0,1,2.65.6l-.42,1.71a4.81,4.81,0,0,0-2.16-.58c-1,0-1.62.53-1.62,1.16s.54,1,1.57,1.32c2,.6,3.37,1.53,3.37,3.41S145.6,116.05,143,116.05Z"/><path class="cls-2" d="M155.69,115.93l-1.08-2.56h-4l-1.08,2.56h-2.15L152,105.21h1.26l4.64,10.72ZM153,109.45c-.12-.32-.28-.75-.41-1.15h0c-.12.39-.26.77-.41,1.15l-.95,2.28H154Z"/><path class="cls-2" d="M168.69,116.1l-4.89-5c-.81-.81-1.68-1.78-2.39-2.56l0,0c0,.87,0,1.71,0,2.44v4.92h-2.19V105.32H161l4.38,4.48c.6.61,1.53,1.58,2.13,2.29l0,0c0-.73,0-1.53,0-2.24v-4.51h2.19V116.1Z"/><path class="cls-2" d="M171.8,115.93V105.32H174v10.61Z"/><path class="cls-2" d="M179.87,115.93h-4V105.32h3.46a3,3,0,0,1,3.25,2.79,2,2,0,0,1-1,1.82,2.92,2.92,0,0,1,2,2.74C183.68,114.8,181.83,115.93,179.87,115.93Zm-.85-9h-1v2.51h1c.8,0,1.51-.36,1.51-1.24S179.82,107,179,107Zm.44,4.09H178v3.3h1.47c1,0,2-.53,2-1.65S180.5,111,179.46,111Z"/><path class="cls-2" d="M184.8,115.93V105.32h6.34v1.75H187v2.66h3.42v1.76H187v2.7h4.68v1.74Z"/><path class="cls-2" d="M193,115.93V105.32h2.24v8.87h4.65v1.74Z"/><rect class="cls-2" x="112.78" y="114.38" width="23.22" height="1.59"/><rect class="cls-2" x="120.05" y="101.41" width="8.75" height="1.6"/><path class="cls-2" d="M50.49,101.83s-1.71,1.44,1.27,1.43C51.76,103.26,51.23,101.92,50.49,101.83Z"/><path class="cls-2" d="M50.57,102s.87,0,1.69,2.78c0,0,.52,2.18,2.06,2.22,0,0,.58,0-.33-1.57,0,0-1.71-2.81-2.67-3.31C51.32,102.1,50.19,101.53,50.57,102Z"/><path class="cls-2" d="M52.71,100.71s1.3.05,2.59,5.1c0,0,.82,4,3.14,4.1,0,0,.88.11-.52-2.88,0,0-2.62-5.17-4.07-6.09C53.85,100.94,52.14,99.86,52.71,100.71Z"/><path class="cls-2" d="M54.84,99.87s1.8-.09,4.09,6.24c0,0,1.54,5,4.74,4.87,0,0,1.22,0-1-3.63,0,0-4.13-6.32-6.21-7.33C56.43,100,54,98.85,54.84,99.87Z"/><path class="cls-2" d="M67.45,93.5s2,.16,3.65,7.41c0,0,1,5.69,4.59,6,0,0,1.38.2-.59-4.13,0,0-3.69-7.49-5.88-8.9C69.22,93.9,66.62,92.25,67.45,93.5Z"/><path class="cls-2" d="M77.88,89.85S72,88.58,74,93.21a25.12,25.12,0,0,0,3.29,4s2.46,2.2,1.07,8.42c0,0-1,1.44,1,1.2a45.61,45.61,0,0,0,12.48-4.3s2.3-1.08.43,1.39a55.83,55.83,0,0,1-13.79,5.44s-.46.1-.4,1.09c0,0-.42,7,8.56,3.87,0,0,14.87-5.33,17.12-12.8a3.08,3.08,0,0,0-1.94-3.73,2.22,2.22,0,0,0-3.07,1.1s-.6,1.24.34,1.45c0,0,.21-2.42,1.92-1.44,0,0,1.66.91.15,2.73,0,0-1,1.72-4.53-1C96.64,100.57,85.48,90.84,77.88,89.85Z"/><path class="cls-2" d="M63.55,94.81a17.22,17.22,0,0,1,1.68-3s1.83-2,1.1-2a12,12,0,0,0-3.63,4C62.82,94.4,63.06,94.9,63.55,94.81Z"/><path class="cls-2" d="M77.07,112.92s-.26-2.94-6.52-4.6c0,0-8.75-3.31-7.79-10.68-.19-.55-.55-1-1.23-.26A11.7,11.7,0,0,0,62.76,104s2.83,4,4.64,5.1A3.82,3.82,0,0,1,69,112.41s-.15,2.72,2.26,1.83c0,0,.92-.6,1.41.18a1,1,0,0,0,1.8-.15s.7-.79,1.46.32C75.91,114.59,77.31,115.56,77.07,112.92Z"/><path class="cls-2" d="M51.35,103.25s.29-.06.48.31l0-.42Z"/></svg>