<svg id="Layer_1" data-name="Layer 1" xmlns="http://www.w3.org/2000/svg" viewBox="0 0 250 200"><defs><style>.cls-1{fill:#1b242f;}.cls-2{fill:#fff;}</style></defs><rect class="cls-1" width="250" height="200"/><g id="Layer_1-2" data-name="Layer 1-2"><path class="cls-2" d="M56.63,65.56c2,0,4.08-.09,6-.09.88,0,1,.27,1,.58,0,1.18-3.77-.44-3.77,3V91.45c0,1.75.7,2.94,3.6,2.94,4.6,0,7.9-3.2,9.73-6.85,1.32-2.68,1-3.6,1.68-3.6a.44.44,0,0,1,.45.42v.07a9,9,0,0,1-.18,1.27l-1.93,9.68c-4.56,0-11.94-.09-15.36-.09H56.18c-1.36,0-2.23,0-2.73,0H50.63c-.88,0-.92-.26-.92-.57,0-.57.8-.53,1.6-.62,1.07-.13,2.2-.52,2.2-2.32V69c0-3.29-3.82-1.8-3.82-2.91,0-.28,0-.62,1-.62C52.59,65.43,54.7,65.56,56.63,65.56Z"/><path class="cls-2" d="M93.68,96c-9.61,0-16.24-7.2-16.24-15.58s6.69-15.57,16.24-15.57S109.92,72,109.92,80.41,103.25,96,93.68,96Zm9-15.58c0-9.24-3.46-14.53-9.09-14.53-5.31,0-9,5-9,14.53,0,9.31,3.56,14.54,9,14.54s9-5.23,9-14.53Z"/><path class="cls-2" d="M132.65,65.35c.31,0,.48.18.53.7l.8,8.4a14,14,0,0,1,.14,1.45c0,.3-.14.44-.33.44-.48,0-.31-.71-1.68-3.82-1.74-4-4.11-6.63-8.73-6.63-3.6,0-5.61,1.75-5.61,4.7,0,2.5,2,3.73,6.1,5a46.59,46.59,0,0,1,6.23,2.11c3.74,1.75,5.5,4.21,5.5,8,0,5.8-4.88,10.31-11.55,10.31-4.3,0-6.46-2-8.12-2s-1.36,1.51-2.16,1.51a.33.33,0,0,1-.34-.28V82.83c0-.36.09-.62.44-.62.57,0,.39,1.1,1.1,3.77,1.42,5.36,4,9,9.22,9,4.52,0,7-2.28,7-5.66a5.12,5.12,0,0,0-2.81-4.65,26.35,26.35,0,0,0-5.66-2.2c-5.71-1.71-9.13-3.64-9.13-8.56,0-5.11,4.3-9,9.84-9,4.26,0,6.23,1.76,7.55,1.76C132.52,66.59,131.86,65.35,132.65,65.35Z"/><path class="cls-2" d="M75.42,105.05c.08-.4.08-.8.53-.8s.52.22.52.57V116c0,.4-.09.8-.48.8-.71,0-.34-1.6-1.81-4.9-1.67-3.79-4.56-7.11-8.6-7.11-5.66,0-8.6,5-8.6,14.51s3,14.53,8.87,14.53c4,0,7.21-3.69,8.69-6.8,1.6-3.34.88-4.8,1.71-4.8.31,0,.39.3.39.61v11.7c0,.48-.17.69-.52.69-.8,0-.09-2.41-2.15-2.41-1.72,0-4,2.11-8.91,2.11-9.05,0-15.28-6.76-15.28-15.63a15.35,15.35,0,0,1,15.11-15.58h.16c4.91,0,7.2,2.46,9.12,2.46C75.19,106.19,75.32,105.6,75.42,105.05Z"/><path class="cls-2" d="M107.44,130.55a5.19,5.19,0,0,0,1.85,2.46,4.5,4.5,0,0,0,1.23.48c.48.13.7.17.7.44s-.13.35-.67.35c-2,0-5.1-.09-6-.09l-6,.09c-.67,0-.71-.22-.71-.44s.4-.39,1.4-.57a1.74,1.74,0,0,0,1.66-1.75,7.89,7.89,0,0,0-.8-2.81c-.8-1.93-1.6-3.82-2.4-5.75H87.79c-.8,2.4-1.84,4.3-1.84,6.53a3.57,3.57,0,0,0,2.4,3.69c.8.36,1.28.48,1.28.75s0,.35-.57.35c-1.06,0-4.17-.09-4.81-.09l-5,.09c-.57,0-.67-.14-.67-.39s.34-.49,1.06-.67a5.63,5.63,0,0,0,2.76-1.8,20.3,20.3,0,0,0,3.65-6.68l5.53-14.3A3.61,3.61,0,0,0,92,109a1.13,1.13,0,0,0-.68-1c-.43-.26-.67-.4-.67-.53s.53-.39,1.37-1.06a19.15,19.15,0,0,0,2.45-2.4c.92-1,1-1.6,1.33-1.6s.48.61.69,1.19ZM88,122.15h9.33l-4.8-11.8Z"/><path class="cls-2" d="M119.09,104.43c1.09,0,5-.09,7.77-.09,6.71,0,10.62,2.94,10.62,7.21s-3,6.28-9.87,6.94v.08c7.89.23,11.36,2.91,11.36,7.47,0,3.07-1,5.09-2.76,6.41s-4.65,1.84-7.94,1.84c-2.29,0-6.85-.09-9.09-.09-2,0-4.08.09-6.11.09-1,0-1.09-.26-1.09-.57s.52-.53,1.18-.58c1.54-.08,2.59-.61,2.59-2.4V107.85c0-2-1.44-2.28-2.54-2.4-.53,0-1.23-.09-1.23-.57,0-.3,0-.57,1-.57Zm5.6,13.62c4.09,0,6.41-2.41,6.41-6.1,0-4.44-2.63-6.55-6.15-6.55h-2.79V118Zm-2.54,12.33c0,2.07,1.6,2.85,3.73,2.85,4,0,6.4-2.15,6.4-6.93,0-5.22-2.81-7.21-6.84-7.21h-3.28Z"/><path class="cls-2" d="M158.06,134.9c-9.56,0-16.24-7.21-16.24-15.59s6.68-15.58,16.24-15.58,16.25,7.11,16.25,15.58S167.64,134.9,158.06,134.9Zm9.05-15.59c0-9.26-3.47-14.53-9.09-14.53-5.3,0-9,5-9,14.53,0,9.31,3.55,14.53,9,14.53S167.11,128.62,167.11,119.31Z"/><path class="cls-2" d="M197.05,104.26c.31,0,.49.17.53.7l.8,8.4a14,14,0,0,1,.13,1.44c0,.32-.13.44-.35.44-.48,0-.31-.7-1.68-3.81-1.72-4-4.09-6.63-8.69-6.63-3.61,0-5.61,1.76-5.61,4.7,0,2.51,2,3.73,6.1,5a46.59,46.59,0,0,1,6.23,2.11c3.74,1.76,5.49,4.22,5.49,8,0,5.79-4.87,10.32-11.54,10.32-4.31,0-6.46-2-8.12-2s-1.45,1.49-2.19,1.49a.34.34,0,0,1-.36-.28V121.72c0-.33.09-.6.44-.6.57,0,.4,1.09,1.1,3.77,1.4,5.37,3.95,9,9.17,9,4.52,0,7-2.28,7-5.66a5.07,5.07,0,0,0-2.79-4.66,26.35,26.35,0,0,0-5.66-2.2c-5.66-1.71-9.09-3.64-9.09-8.56,0-5.09,4.31-9,9.83-9,4.26,0,6.24,1.75,7.55,1.75C196.91,105.48,196.25,104.26,197.05,104.26Z"/><path class="cls-2" d="M146.66,64.76v32h32v-32ZM171,84.11c.11,0,.2-.15.23-.38s0-.33.06-.59c0-.07,0-.16.19-.16s.19.09.19.15a3.45,3.45,0,0,1-.1,1c-.31.81-.65.55-.65.81a3.66,3.66,0,0,0,.15,1.61.11.11,0,0,1,0,.15.09.09,0,0,1-.09,0,1.3,1.3,0,0,0-.44-.06.1.1,0,0,1-.12-.09v0a8.66,8.66,0,0,0,0-1.61c-.62.17-.62-.79-.68-1.17a1.19,1.19,0,0,1,0-.46.18.18,0,0,1,.18-.18.25.25,0,0,1,.12,0c.16.12.12.72.21,1.06a.22.22,0,0,0,.25.18h0a9.68,9.68,0,0,1,.11-1.86.28.28,0,0,1,.36-.06,2,2,0,0,1,.06.76A5.5,5.5,0,0,0,171,84.11Zm-1.65-11.34c.17-.28,1.24-1.47,1.52-1.35s-.32,1.49-.51,1.77a.72.72,0,0,1-.8.29.45.45,0,0,1-.28-.58A.33.33,0,0,1,169.33,72.77ZM164.94,71c.33-.08.94,1.24,1,1.53a.57.57,0,0,1-.48.67.59.59,0,0,1-.72-.39c-.08-.3-.14-1.73.2-1.81Zm-1.68,6.68a2.65,2.65,0,0,1,.07-.48,3.94,3.94,0,0,1,.14-.49c.06-.15.13-.3.2-.45a3.49,3.49,0,0,1,.6-.8,1.62,1.62,0,0,1,.19-.18l.08-.08.11-.08a3.71,3.71,0,0,1,.41-.28,2.77,2.77,0,0,1,.46-.22l.12,0h.12l.23-.08a2.89,2.89,0,0,1,.5-.08,2,2,0,0,1,.49,0,2.59,2.59,0,0,1,.48,0,.12.12,0,0,1,.09.1c0,.05,0,.09-.09.09l-.43.09-.41.14a2.53,2.53,0,0,0-.37.18l-.18.1-.08,0-.08.06-.31.25a3.43,3.43,0,0,0-.27.27l-.06.08h0l-.05.07-.1.14-.17.31a2.86,2.86,0,0,0-.23.67v.34a1.93,1.93,0,0,0,0,.34,1.82,1.82,0,0,0,0,.33h0a.19.19,0,0,0,0,.15v.16a.47.47,0,0,0,.06.15,1,1,0,0,0,.07.15l.08.14,0,0h0l.05.06h0l.05,0h0l.09.06.09.07h.06l.06,0,.1,0,.25.08h1.15l.15,0a3,3,0,0,0,.6-.21l.29-.15.08,0h0l.33-.21.14-.11.19-.16.06,0a3,3,0,0,0,.41-.46l.17-.25.06-.12v-.07h0v-.28a1,1,0,0,0,0-.24.8.8,0,0,0-.13-.42h-.1l-.11-.06-.12,0h-1.14l-.16,0h0l-.14,0h-.1l-.27.1-.1,0h-.08l-.14.06h0l-.38.2a.11.11,0,0,1-.13,0,.09.09,0,0,1,0-.12l.05,0,.09-.1.14-.14h0l.23-.21.34-.24h0l.12-.07.2-.11h0l.18-.07h.09l.23-.06.24-.06a2.09,2.09,0,0,1,.5,0H169l.26.06.26.07.13.06.12.07h0l.11.07L170,76h0l.06,0h0v0h0a2,2,0,0,1,.5.94,2.09,2.09,0,0,1,0,.5,1,1,0,0,1,0,.25v.46l-.09.22a2.74,2.74,0,0,1-.21.42,4.42,4.42,0,0,1-.56.73l-.15.16-.25.23-.13.1-.37.28-.15.1-.41.23a5.08,5.08,0,0,1-.92.34l-.24,0-.24.05h-1.32l-.26-.06a4.56,4.56,0,0,1-.52-.18l-.25-.13-.1-.08-.11-.07-.22-.16-.1-.09-.1-.11-.09-.1-.16-.19-.06-.11h0v-.09l-.07-.13a2.56,2.56,0,0,1-.11-.24,2.6,2.6,0,0,1-.1-.25,1.82,1.82,0,0,1-.07-.25v-.49a3.92,3.92,0,0,1,.08-.76Zm-3.7-3c.25-.19,1.9.34,2.22.48s.36.43.1.63a1,1,0,0,1-1,.08c-.31-.14-1.56-1-1.3-1.19Zm-6.91,11a5.65,5.65,0,0,0,.55-2.25c-.09-.76-.15-1.39-.28-2.13a.76.76,0,0,1,.5-.93.8.8,0,0,1,.31,0c.52,0,.42,1,.84,1.07,1,.14.67-1.25,1.37-1.38a1.86,1.86,0,0,0,1.37-.49c.48-.44,1.16-.91,1.6-1.35a2.76,2.76,0,0,1,2.18-.8.88.88,0,0,1,.64.54,5.78,5.78,0,0,0,1.83,3.34,6,6,0,0,0,3.69.86,1,1,0,0,1,1.25.62h0a.83.83,0,0,1,.05.35,2.09,2.09,0,0,1,0,.5,1.38,1.38,0,0,0,.08,1c.22.5,1.19,2.11-.5,1.38a6.81,6.81,0,0,0-5.48.09,6.9,6.9,0,0,1-4.51.09,1.74,1.74,0,0,1-.36-.13.11.11,0,0,1-.06-.1c0-1.27,1.13-2.92-.67-3.41a1.4,1.4,0,0,0-1.66.6,2.24,2.24,0,0,0,0,2.4h0a.1.1,0,0,1,0,.15h-.06a9.38,9.38,0,0,0-2.52.38C152.28,86.22,152.56,86,152.65,85.74ZM173,89a.53.53,0,0,1-.3.27c-.24.08-.48.14-.73.2h-.06a4.11,4.11,0,0,0-.47.07h-.53a8.32,8.32,0,0,1-1.12,0,6.26,6.26,0,0,1-1.21-.21,7.61,7.61,0,0,1-.72-.25l-.4-.14a5.22,5.22,0,0,0-1-.23h-1.13a5.28,5.28,0,0,0-2.2.48,8.43,8.43,0,0,1-1.31.35,5.07,5.07,0,0,1-.68.11h-1.72l-.34,0a5.6,5.6,0,0,1-1.28-.33,4,4,0,0,1-.46-.19c-.15-.06-.41-.17-.6-.23a5.5,5.5,0,0,0-1-.24h-1.91a7,7,0,0,0-1.5.38h-.07a4.68,4.68,0,0,1-.73.21h0l-.31.06h-.09a.23.23,0,0,1-.25-.19v-.18a.21.21,0,0,1,.16-.24,7,7,0,0,0,1-.36l.15-.07.62-.27a6.33,6.33,0,0,1,.94-.28h.06a3.55,3.55,0,0,1,.47-.08h1.55a7.29,7.29,0,0,1,1.22.23c.25.07.49.16.72.24s.27.1.4.15a5.28,5.28,0,0,0,1,.23h2l.21,0h.06a6.27,6.27,0,0,0,1.15-.46,7.41,7.41,0,0,1,1.31-.42,7.09,7.09,0,0,1,1.38-.13h1l.34,0a5.82,5.82,0,0,1,1.29.33l.44.19.61.23a5.5,5.5,0,0,0,1,.24c.34,0,.67.06,1,.07h.92a4.19,4.19,0,0,0,.69-.13.42.42,0,0,1,.5.32.39.39,0,0,1,0,.26Zm.39-8.29c-.2.23-1.77-.07-2.08-.16a.34.34,0,0,1-.28-.38.33.33,0,0,1,.11-.21.94.94,0,0,1,.92-.22c.28.11,1.52.76,1.31,1Zm-.87-4.21c-.36.1-.65,0-.68-.3a.82.82,0,0,1,.6-.69c.35-.11,2-.38,2-.11s-1.61,1-2,1.11Z"/><path class="cls-2" d="M160.47,79.87a.4.4,0,0,0,.22-.45.29.29,0,0,0-.39-.15h0l0,0c-.18.09-.95.64-.9.8S160.29,80,160.47,79.87Z"/><path class="cls-2" d="M163,82.43a.27.27,0,0,0-.11-.45.57.57,0,0,0-.62.13c-.14.16-.63,1-.43,1.08S162.9,82.6,163,82.43Z"/><path class="cls-2" d="M166.2,84.42c.2,0,.55-.8.59-1a.34.34,0,0,0-.27-.39h0a.38.38,0,0,0-.44.26C166,83.5,166,84.38,166.2,84.42Z"/></g></svg>