<svg id="Layer_1" data-name="Layer 1" xmlns="http://www.w3.org/2000/svg" viewBox="0 0 250 200"><defs><style>.cls-1{fill:#1b242f;}.cls-2{fill:#fff;}</style></defs><rect class="cls-1" width="250" height="200"/><path class="cls-2" d="M117.49,95.08c5.61,3.44,7.93,1.72,10.35.14,5.84-3.8,9.14,1.32,12.9,1.83a6.36,6.36,0,0,0,3.86-.89c-4.8,8.73-10.94,3.33-13.5,2.15-2-.92-3.11-2.09-7.65.1-4,1.93-9.21,3.52-14,2.07h0c.55-1.53,1.42-3.55,2.9-3.52.43,0,2.81.15,3,.12a.64.64,0,0,0,.53-.48,1.12,1.12,0,0,0-.12-.8c0-.17.14-.22.28-.33s.24-.32.2-.47-.35-.18-.45-.23-.08-.23.09-.25c.81-.11.76-.54.67-.69-.33-.61.1-.69.32-.72a3.87,3.87,0,0,0,.48,0c.47-.08.25-.61.25-.61s-.43-2.71-.54-3.18.12-.58.53-.41a.41.41,0,0,1,.11.07h0c5.3,3.26,6,3,10.42.14,5.67-3.71,8.77,1.23,12.68,1.76a6.45,6.45,0,0,0,3.86-.9c-4.2,7.64-10.08,4-14.83,1.75-4.48-2.1-7.48,4-12.23,3.22C117.48,94.88,117.39,95,117.49,95.08ZM141,84.34c-4.8-.65-7.4-4.71-12.55-1.36-3.11,2-4.27,3.76-10.44,0a17.33,17.33,0,0,0-6.7-2.21,10,10,0,0,0-10.52,9.49v.1a9.57,9.57,0,0,0,3,7.6.4.4,0,0,0,.57,0,.47.47,0,0,0,.09-.12l.06-.14,3.17-7.59s1.71-4.48,5.94-3.08c1.37.45,2.49.88,3.51,1.19,2.41.74,4.19.76,7-1.46,1.27-1,3.37-2.42,6.09-1.17,3.8,1.75,10.16,6.09,14.72-2.13A6.39,6.39,0,0,1,141,84.34Z"/><path class="cls-2" d="M51.46,111.82c0-2.38,0-2.78,0-3.28s-.14-.78-.62-.88a2.59,2.59,0,0,0-.56,0c-.16,0-.25,0-.25-.14s.1-.14.32-.14c.76,0,1.67,0,2.08,0,.59,0,1.42,0,2.1,0a3.4,3.4,0,0,1,2.69.88,2.8,2.8,0,0,1,.72,1.85,3.53,3.53,0,0,1-3.56,3.74h-.3c-.07,0-.18,0-.18-.15s.11-.16.41-.16a2.4,2.4,0,0,0,1.94-2.56,3.12,3.12,0,0,0-.85-2.32,2.1,2.1,0,0,0-1.45-.61,1.75,1.75,0,0,0-.56.06c-.08,0-.12.12-.12.29v6.17c0,1.43,0,2.65.07,3.33,0,.43.13.77.56.83a4.71,4.71,0,0,0,.74.06c.16,0,.23.05.23.13s-.11.15-.27.15c-1,0-1.87,0-2.24,0s-1.25,0-1.82,0c-.19,0-.29,0-.29-.15s.06-.13.23-.13a2.14,2.14,0,0,0,.5-.06c.29-.06.36-.4.42-.85.07-.65.07-1.87.07-3.29Z"/><path class="cls-2" d="M78.61,116.92c0,1.21.23,1.61.53,1.72a2.4,2.4,0,0,0,.79.11c.18,0,.27,0,.27.12s-.14.15-.36.15c-1,0-1.6,0-1.89,0s-.86,0-1.66,0c-.2,0-.33,0-.33-.15s.09-.12.24-.12a3.1,3.1,0,0,0,.69-.08c.4-.13.48-.57.48-1.9l.13-9.15c0-.32,0-.53.2-.53s.31.2.56.47,2.51,2.72,4.75,5c1,1,3.1,3.28,3.36,3.52h.08l-.15-6.94c0-1-.15-1.24-.52-1.39a2.22,2.22,0,0,0-.81-.09c-.19,0-.24,0-.24-.15s.16-.15.4-.15c.8,0,1.53,0,1.86,0,.16,0,.74,0,1.49,0,.2,0,.35,0,.35.14s-.09.14-.27.14a1.57,1.57,0,0,0-.48,0c-.43.12-.55.44-.56,1.31l-.17,9.76c0,.34-.07.47-.2.47s-.35-.17-.52-.34l-4.51-4.55c-1.66-1.67-3.36-3.6-3.64-3.89h0Z"/><path class="cls-2" d="M91.44,117.56a6.18,6.18,0,0,1-.18-8.73.46.46,0,0,1,.07-.07,6.54,6.54,0,0,1,4.81-1.64,13.61,13.61,0,0,1,2.21.15c.58.07,1.06.22,1.52.26.17,0,.23.1.23.19s0,.31-.08.85,0,1.36,0,1.67,0,.36-.19.36-.15-.13-.15-.34a2.18,2.18,0,0,0-.6-1.43,4.41,4.41,0,0,0-3.08-1,4,4,0,0,0-2.85,1,5.25,5.25,0,0,0-1.42,4,5.17,5.17,0,0,0,4.79,5.51c1.35,0,2.18-.16,2.78-.87a2.54,2.54,0,0,0,.52-1c0-.25.08-.31.2-.31s.14.11.14.23a16.09,16.09,0,0,1-.34,2.06.55.55,0,0,1-.39.47,9.1,9.1,0,0,1-2.74.36A7.67,7.67,0,0,1,91.44,117.56Z"/><path class="cls-2" d="M103,111.82c0-2.38,0-2.78,0-3.28s-.14-.78-.6-.88a2.56,2.56,0,0,0-.55,0c-.16,0-.24,0-.24-.14s.1-.14.31-.14h1.14c.36,0,.68,0,.88,0h3.5q.3,0,.6-.09a.86.86,0,0,1,.23-.06c.06,0,.08.06.08.13a9.48,9.48,0,0,0-.11,1c0,.16,0,.84-.07,1a.16.16,0,0,1-.15.17c-.1,0-.12-.07-.12-.22a1.76,1.76,0,0,0-.09-.55c-.09-.28-.23-.48-1-.56-.23,0-1.7-.06-2-.06-.08,0-.1,0-.1.15v3.92c0,.11,0,.17.1.17.3,0,1.89,0,2.24,0a.93.93,0,0,0,.67-.23c.12-.16.15-.2.22-.2s.1,0,.1.12-.06.34-.11,1.13c0,.31-.06.95-.06,1s0,.3-.13.3-.12-.06-.12-.14a5.32,5.32,0,0,0-.06-.56c-.07-.31-.26-.54-.78-.6-.27,0-1.65,0-2,0-.07,0-.08.06-.08.16v3.59c0,1.07.25,1.3,1.68,1.3a3.25,3.25,0,0,0,1.31-.18c.37-.19.53-.52.63-1.15,0-.17.06-.23.16-.23s.11.12.11.28a12.08,12.08,0,0,1-.18,1.71c-.1.41-.22.41-.76.41-1,0-1.82,0-2.42,0s-1,0-1.46,0H103c-.33,0-.68,0-1,0s-.28,0-.28-.15.06-.12.23-.12a2.08,2.08,0,0,0,.5-.07c.28-.06.35-.4.41-.85.07-.65.07-1.87.07-3.29Z"/><path class="cls-2" d="M111.09,118.84c-.24-.11-.29-.19-.29-.53,0-.85.06-1.77.08-2s.06-.4.18-.4.15.13.15.26a3.64,3.64,0,0,0,.14.79,2.11,2.11,0,0,0,2.18,1.56,1.86,1.86,0,0,0,2-1.76c0-.82-.23-1.48-1.49-2.48l-.7-.56c-1.68-1.33-2.26-2.41-2.26-3.66,0-1.7,1.42-2.92,3.52-2.92a7.3,7.3,0,0,1,2,.26c.14,0,.21.07.21.18s-.06.65-.06,1.86c0,.34,0,.47-.17.47s-.15-.09-.15-.28a1.92,1.92,0,0,0-.39-1,2,2,0,0,0-1.67-.76,1.62,1.62,0,0,0-1.81,1.6c0,.71.35,1.25,1.62,2.23l.42.32c1.85,1.43,2.5,2.48,2.5,3.94a3.11,3.11,0,0,1-1.42,2.7,4.39,4.39,0,0,1-2.42.63A5.22,5.22,0,0,1,111.09,118.84Z"/><path class="cls-2" d="M119.32,118.84c-.25-.11-.29-.19-.29-.53,0-.85.06-1.77.07-2s.07-.4.18-.4.16.13.16.26a3.62,3.62,0,0,0,.13.79,2.12,2.12,0,0,0,2.19,1.56,1.86,1.86,0,0,0,2-1.76c0-.82-.23-1.48-1.5-2.48l-.7-.56c-1.67-1.33-2.25-2.41-2.25-3.66,0-1.7,1.42-2.92,3.52-2.92a7.35,7.35,0,0,1,2,.26c.13,0,.21.07.21.18s-.06.65-.06,1.86c0,.34,0,.47-.17.47s-.15-.09-.15-.28a2,2,0,0,0-2.06-1.78,1.61,1.61,0,0,0-1.81,1.6c0,.71.35,1.25,1.62,2.23l.42.32c1.84,1.43,2.5,2.48,2.5,3.94a3.14,3.14,0,0,1-1.42,2.7,4.4,4.4,0,0,1-2.43.63A5.17,5.17,0,0,1,119.32,118.84Z"/><path class="cls-2" d="M174.05,118.84c-.25-.11-.29-.19-.29-.53,0-.85.06-1.77.07-2s.06-.4.19-.4.15.13.15.26a3.13,3.13,0,0,0,.14.79,2.1,2.1,0,0,0,2.18,1.56,1.86,1.86,0,0,0,2-1.76c0-.82-.23-1.48-1.49-2.48l-.71-.56c-1.67-1.33-2.26-2.41-2.26-3.66,0-1.7,1.43-2.92,3.53-2.92a7.35,7.35,0,0,1,2,.26c.13,0,.21.07.21.18s-.06.65-.06,1.86c0,.34-.05.47-.17.47s-.15-.09-.15-.28a1.94,1.94,0,0,0-2.06-1.8,1.61,1.61,0,0,0-1.82,1.59c0,.71.36,1.25,1.62,2.23l.43.33c1.84,1.42,2.5,2.47,2.5,3.94a3.14,3.14,0,0,1-1.43,2.69,4.35,4.35,0,0,1-2.41.65A5.06,5.06,0,0,1,174.05,118.84Z"/><path class="cls-2" d="M191.17,118.84c-.25-.11-.29-.19-.29-.53,0-.85.06-1.77.07-2s.06-.4.19-.4.15.13.15.26a3.13,3.13,0,0,0,.14.79,2.11,2.11,0,0,0,2.18,1.56,1.86,1.86,0,0,0,2-1.76c0-.82-.23-1.48-1.49-2.48l-.71-.56c-1.67-1.33-2.25-2.41-2.25-3.66,0-1.7,1.42-2.92,3.52-2.92a7.3,7.3,0,0,1,2,.26c.14,0,.21.07.21.18s-.06.65-.06,1.86c0,.34-.05.47-.16.47s-.16-.09-.16-.28a1.94,1.94,0,0,0-2.06-1.8,1.61,1.61,0,0,0-1.81,1.59c0,.71.35,1.25,1.61,2.23l.43.33c1.85,1.42,2.5,2.47,2.5,3.94a3.11,3.11,0,0,1-1.42,2.69,4.38,4.38,0,0,1-2.45.65A5.23,5.23,0,0,1,191.17,118.84Z"/><path class="cls-2" d="M133.8,117.56a6.21,6.21,0,0,1-.12-8.78l0,0a6.49,6.49,0,0,1,4.79-1.64,13.48,13.48,0,0,1,2.2.15c.58.07,1.06.22,1.52.26.16,0,.23.1.23.19s-.05.31-.08.85,0,1.36-.05,1.67,0,.36-.18.36-.15-.13-.15-.34a2.24,2.24,0,0,0-.59-1.43,4.43,4.43,0,0,0-3.08-1,4,4,0,0,0-2.85,1,5.24,5.24,0,0,0-1.4,4,5.17,5.17,0,0,0,4.79,5.51c1.34,0,2.16-.16,2.77-.87a2.82,2.82,0,0,0,.52-1c0-.25.07-.31.19-.31s.14.11.14.23a16.06,16.06,0,0,1-.33,2.06.54.54,0,0,1-.4.47,9,9,0,0,1-2.73.36A7.69,7.69,0,0,1,133.8,117.56Z"/><path class="cls-2" d="M145.21,111.82c0-2.38,0-2.78,0-3.28s-.15-.78-.64-.88a2.75,2.75,0,0,0-.57,0c-.16,0-.25,0-.25-.14s.1-.14.32-.14c.78,0,1.71,0,2,0,.51,0,1.63,0,2.08,0a4.58,4.58,0,0,1,2.72.67,2.76,2.76,0,0,1,1,2.12c0,1.14-.48,2.19-2,3.46,1.32,1.73,2.33,3.11,3.21,4.07a2.94,2.94,0,0,0,1.65,1.08,2.85,2.85,0,0,0,.41,0c.12,0,.18,0,.18.13s-.11.15-.28.15h-1.4a2.85,2.85,0,0,1-1.6-.32,7.53,7.53,0,0,1-2-2.28c-.59-.85-1.27-1.9-1.46-2.13a.32.32,0,0,0-.27-.11l-1.28,0c-.08,0-.12,0-.12.12v.22c0,1.42,0,2.66.07,3.32.05.45.14.79.58.85a5.85,5.85,0,0,0,.72.07q.18,0,.18.12c0,.08-.11.15-.3.15-.85,0-1.94,0-2.17,0s-1.21,0-1.79,0c-.19,0-.3,0-.3-.15s.06-.12.23-.12a2,2,0,0,0,.54-.07c.29-.06.37-.4.42-.85.08-.65.08-1.87.08-3.29ZM147,113c0,.17,0,.23.13.28a3.56,3.56,0,0,0,1.12.15,1.41,1.41,0,0,0,1.05-.26,2.79,2.79,0,0,0,.87-2.32c0-2.2-1.38-2.85-2.26-2.85a3,3,0,0,0-.78.07c-.1,0-.13.09-.13.21Z"/><path class="cls-2" d="M155.5,111.82c0-2.38,0-2.78,0-3.28s-.14-.78-.64-.88a2.78,2.78,0,0,0-.58,0c-.16,0-.25,0-.25-.14s.1-.14.32-.14c.8,0,1.74,0,2.18,0s1.3,0,1.84,0c.22,0,.32,0,.32.14s-.09.14-.23.14a2.2,2.2,0,0,0-.44,0c-.4.07-.52.34-.55.88s0,.95,0,3.28V114c0,2.24.44,3.18,1.16,3.8a2.76,2.76,0,0,0,1.87.63,2.85,2.85,0,0,0,2.06-.84c.82-.85.86-2.24.86-3.83v-1.92c0-2.38,0-2.78,0-3.28s-.15-.78-.64-.88a2.47,2.47,0,0,0-.54,0c-.16,0-.25,0-.25-.14s.11-.14.31-.14c.76,0,1.7,0,1.72,0,.18,0,1.12,0,1.7,0,.21,0,.31,0,.31.14s-.09.14-.26.14a2.12,2.12,0,0,0-.44,0c-.4.07-.52.34-.55.88s0,.95,0,3.28v1.65c0,1.72-.17,3.55-1.42,4.66a4.33,4.33,0,0,1-3.08,1.11,4.67,4.67,0,0,1-3.32-1.07c-.76-.71-1.33-1.85-1.33-4.09Z"/><path class="cls-2" d="M168.39,111.82c0-2.38,0-2.78,0-3.28s-.17-.79-.48-.87a2.24,2.24,0,0,0-.52-.06c-.15,0-.23,0-.23-.16s.12-.12.34-.12c.56,0,1.47,0,1.9,0s1.22,0,1.77,0c.19,0,.3,0,.3.12s-.09.16-.23.16a2.1,2.1,0,0,0-.43,0c-.39.07-.51.34-.54.88s0,.95,0,3.28v2.72c0,1.5,0,2.72.06,3.39,0,.42.14.69.58.75a6,6,0,0,0,.74.07c.16,0,.23,0,.23.12s-.12.15-.28.15c-.95,0-1.86,0-2.25,0s-1.25,0-1.82,0c-.19,0-.29,0-.29-.15s0-.12.23-.12a1.86,1.86,0,0,0,.52-.07c.29-.06.38-.32.42-.77.07-.65.07-1.9.07-3.37Z"/><path class="cls-2" d="M183.05,111.82c0-2.38,0-2.78,0-3.28s-.14-.78-.61-.88a2.56,2.56,0,0,0-.55,0c-.16,0-.25,0-.25-.14s.1-.14.32-.14h1.15c.37,0,.7,0,.9,0h3.56c.21,0,.41,0,.62-.09a.86.86,0,0,1,.23-.06c.07,0,.08.06.08.13a9.48,9.48,0,0,0-.11,1c0,.16,0,.84-.07,1a.15.15,0,0,1-.15.17c-.1,0-.12-.07-.12-.22a1.76,1.76,0,0,0-.09-.55c-.1-.28-.24-.48-1-.56-.24,0-1.73-.06-2-.06-.07,0-.1,0-.1.15v3.92c0,.11,0,.17.1.17.31,0,1.95,0,2.28,0a1,1,0,0,0,.69-.23c.13-.16.16-.2.22-.2s.11,0,.11.12-.06.34-.12,1.13c0,.31,0,.95,0,1s0,.3-.13.3-.14-.06-.14-.14a3.53,3.53,0,0,0,0-.56c-.07-.31-.27-.54-.8-.6-.27,0-1.68,0-2,0-.07,0-.09.06-.09.16v3.59c0,1.07.26,1.3,1.71,1.3a3.37,3.37,0,0,0,1.34-.18c.37-.19.55-.52.65-1.15,0-.17.05-.23.15-.23s.12.12.12.28a13.76,13.76,0,0,1-.19,1.71c-.1.41-.23.41-.77.41-1.07,0-1.85,0-2.47,0s-1.06,0-1.48,0h-.82c-.33,0-.69,0-1,0s-.28,0-.28-.15,0-.12.22-.12a2.25,2.25,0,0,0,.52-.07c.28-.06.35-.4.41-.85.07-.65.07-1.87.07-3.29Z"/><path class="cls-2" d="M74.58,118.75a6,6,0,0,1-.73-.07c-.44-.06-.54-.33-.58-.75-.06-.67-.06-1.9-.06-3.39v-2.72c0-2.38,0-2.78,0-3.28s.14-.81.53-.88a2.2,2.2,0,0,1,.44,0c.14,0,.23,0,.23-.16s-.12-.12-.31-.12c-.54,0-1.4,0-1.76,0s-1.33,0-1.9,0c-.23,0-.34,0-.34.12s.08.16.23.16a2.31,2.31,0,0,1,.52.06c.31.08.47.34.47.87s0,.95,0,3.28v2.72c0,1.5,0,2.72-.07,3.37,0,.45-.13.71-.42.77a2,2,0,0,1-.48.06H70a1.5,1.5,0,0,1-.37,0,2.85,2.85,0,0,1-1.62-1c-.85-1-1.85-2.34-3.14-4.07,1.46-1.27,1.9-2.32,1.9-3.46a2.71,2.71,0,0,0-1-2.12,4.41,4.41,0,0,0-2.6-.67c-.44,0-1.54,0-2,0-.31,0-1.22,0-2,0-.22,0-.32,0-.32.14s.08.14.24.14a2.75,2.75,0,0,1,.57,0c.47.1.59.35.62.88s0,.95,0,3.28v2.72c0,1.42,0,2.64-.08,3.29,0,.45-.12.79-.41.85a1.88,1.88,0,0,1-.53.07c-.17,0-.23,0-.23.12s.11.15.29.15c.58,0,1.49,0,1.77,0s1.28,0,2.12,0c.19,0,.29,0,.29-.15s-.06-.12-.17-.12a5.69,5.69,0,0,1-.71-.07c-.44-.06-.52-.4-.56-.85-.07-.65-.07-1.87-.07-3.32v-.22c0-.09,0-.12.11-.12l1.26,0a.29.29,0,0,1,.26.11c.18.23.85,1.28,1.42,2.13a7.66,7.66,0,0,0,2,2.28,2.82,2.82,0,0,0,1.54.29h1.83C71,119,72,119,72.29,119s1.3.05,2.25.05c.16,0,.28-.05.28-.15S74.74,118.75,74.58,118.75Zm-11.29-5.28a3.34,3.34,0,0,1-1.09-.15c-.1,0-.13-.11-.13-.28v-4.7c0-.13,0-.19.13-.22a3.25,3.25,0,0,1,.76-.06c.86,0,2.21.63,2.21,2.85a2.77,2.77,0,0,1-.85,2.31A1.34,1.34,0,0,1,63.29,113.47Z"/><path class="cls-2" d="M198.37,108a.91.91,0,1,1,.95.85h0a.85.85,0,0,1-.91-.8Zm1.62,0a.7.7,0,0,0-.79-.63.64.64,0,1,0,.16,1.26A.72.72,0,0,0,200,108Zm-1.09-.14v-.24c0-.07,0-.07-.11-.07s0,0,0,0,0,0,0,0h.44c.16,0,.43,0,.43.26s0,.18-.21.3l.18.2c.12.15.14.15.17.15a0,0,0,0,1,0,0h0s0,0-.09,0a.38.38,0,0,1-.38-.19l-.13-.18h-.12v.29a.17.17,0,0,0,.1,0,0,0,0,0,1,0,0s0,0,0,0h-.41s-.06,0-.06,0,0,0,0,0h0c.08,0,.09,0,.1-.06a1,1,0,0,0,0-.25Zm.22.1a.32.32,0,0,0,.14,0,.11.11,0,0,0,.08,0,.18.18,0,0,0,.09-.17.21.21,0,0,0-.21-.21h-.1Z"/></svg>