<svg id="Layer_1" data-name="Layer 1" xmlns="http://www.w3.org/2000/svg" viewBox="0 0 250 200"><defs><style>.cls-1{fill:#1b242f;}.cls-2{fill:#fff;}</style></defs><rect class="cls-1" width="250" height="200"/><path class="cls-2" d="M77.61,93.8a1.1,1.1,0,0,0-.79.41c-3.4,4.32-6.68,7.29-7.6,7.38-.26,0-.32,0-.36-.09-.71-.76-.2-4,0-5.24.06-.39.11-.73.14-1V95.1A.28.28,0,0,0,69,95a.43.43,0,0,0,0-.11s0-.06,0-.1l0-.09a.93.93,0,0,1-.05-.1.35.35,0,0,1,0-.08.27.27,0,0,0-.07-.08l-.07-.08-.08-.07-.08,0a.27.27,0,0,0-.1-.06s0,0,0,0h0l-.11,0-.11,0-.06,0h-.26l-.09,0-.11,0-.08,0-.11,0-.07.05-.1.07-.06.06a.39.39,0,0,0-.08.1l0,.06a.75.75,0,0,0-.07.12s0,0,0,0c-.48,1-2.42,2.13-3.36,1.85-.36-.11-.45-.56-.44-1a3.94,3.94,0,0,0,0-.77A1.08,1.08,0,0,0,61,94.66q0,.34-.06.69c-.38,1.7-2.69,5.16-4.51,5.8a1.64,1.64,0,0,1-.44.09H56c-.52-.43-.09-3.51.05-4.52.06-.46.12-.9.16-1.28a2,2,0,0,0-1.12-2.31c-1.79-.7-4.41,1.59-5.2,2.67a1.08,1.08,0,1,0,1.73,1.28h0A6.46,6.46,0,0,1,54,95.22c0,.36-.09.77-.15,1.2-.35,2.48-.73,5.3.72,6.49a2.18,2.18,0,0,0,1.43.49,3.5,3.5,0,0,0,1.15-.22c1.8-.62,3.75-2.83,4.92-5a2.94,2.94,0,0,0,.87.43A4.82,4.82,0,0,0,66.44,98c-.21,2-.14,3.9.85,5a2.48,2.48,0,0,0,2.12.76c2.26-.21,6.25-4.7,8.28-7.16a10.62,10.62,0,0,1,.73,1.15c.73,1.39.83,2.54.29,3.42a1.48,1.48,0,0,1-1,.71.85.85,0,0,1-.57-.18A1.08,1.08,0,0,0,75.4,103h0A2.81,2.81,0,0,0,77.66,104h0a3.45,3.45,0,0,0,2.81-1.67l0,0c2.31-3.7-1.91-8-2.09-8.19A1.12,1.12,0,0,0,77.61,93.8Z"/><path class="cls-2" d="M101.54,90.73a8.82,8.82,0,0,0-4.62,0c.16-.76.29-1.42.38-2a1.08,1.08,0,1,0-2.13-.37h0c-.1.56-.24,1.3-.42,2.16,0,.22-.08.44-.13.66-1.07.18-1.82.17-2.31-.28a1.08,1.08,0,0,0-1.46,1.58h0a3.76,3.76,0,0,0,2.68,1c.22,0,.43,0,.65,0-.13.72-.25,1.42-.35,2.08-2.72,4.41-4.83,6-5.81,6h0a.43.43,0,0,1-.38-.14c-.74-.87-.23-4.1,0-5.49.06-.4.12-.75.15-1h0v-.17a1.18,1.18,0,0,0-.09-.37s0,0,0-.07l0-.09-.06-.08a1.07,1.07,0,0,0-.14-.16h0a.83.83,0,0,0-.15-.11h0l0,0L87,93.78a.4.4,0,0,0-.15,0l-.06,0h-.22l-.14,0a.7.7,0,0,0-.19.06l-.07,0-.1.06L86,94a1.14,1.14,0,0,0-.16.15h0a1,1,0,0,0-.11.17h0a7.65,7.65,0,0,1-2.66,3,1.08,1.08,0,0,0-.37,1.48,1.1,1.1,0,0,0,.93.52,1,1,0,0,0,.56-.16,7.28,7.28,0,0,0,.92-.65c-.13,1.79,0,3.39.87,4.38a2.57,2.57,0,0,0,2,.89h0c1.88,0,3.85-1.79,5.55-4a5,5,0,0,0,.13.77c.55,2,1.63,2.65,2.44,2.86a3,3,0,0,0,.72.09,4,4,0,0,0,2.82-1.34,15,15,0,0,0,1.68-2,1.09,1.09,0,0,0-.33-1.5,1.08,1.08,0,0,0-1.5.32,12,12,0,0,1-1.39,1.7,1.76,1.76,0,0,1-1.46.68c-.39-.1-.7-.59-.91-1.35-.33-1.18.17-4.27.68-6.88l.06,0a8.62,8.62,0,0,1,4.35-.28,1.08,1.08,0,1,0,.66-2.06h0Z"/><circle class="cls-2" cx="87.43" cy="91.2" r="1.26"/><path class="cls-2" d="M68.67,92.45a1.26,1.26,0,1,0-1.25-1.25,1.25,1.25,0,0,0,1.25,1.25Z"/><path class="cls-2" d="M108.62,101.73l.84-1.7a.49.49,0,0,1,.72-.22,7,7,0,0,0,2.84.75c.63,0,1.06-.25,1.06-.78s-.43-.9-2.09-1.56c-2.4-.93-3.53-2.22-3.53-4.12s1.4-3.68,4.59-3.68a7.29,7.29,0,0,1,3.85,1,.69.69,0,0,1,.28.85l-.78,1.59a.6.6,0,0,1-.75.22,7.41,7.41,0,0,0-2.6-.66c-.75,0-1.06.31-1.06.72,0,.56.57.75,1.72,1.22,2.4.94,4.22,2,4.22,4.4,0,2.06-1.82,3.81-5,3.81a7.11,7.11,0,0,1-4.16-1.15A.53.53,0,0,1,108.62,101.73Z"/><path class="cls-2" d="M124.67,95.32a8,8,0,0,1,2.28.34c0-1.59-.46-2.15-1.62-2.15a14.74,14.74,0,0,0-3.5.46c-.44.12-.66-.16-.72-.56l-.28-1.63a.62.62,0,0,1,.44-.78,16.43,16.43,0,0,1,4.24-.59c3.91,0,4.81,2,4.81,5.43v6.78a.61.61,0,0,1-.59.6h-1.12c-.22,0-.38-.09-.53-.44l-.38-.84a5.35,5.35,0,0,1-3.81,1.59,4,4,0,0,1-4.21-4.28C119.67,97,121.48,95.32,124.67,95.32Zm.06,5.56a2.92,2.92,0,0,0,2.16-1.22V97.94a4.81,4.81,0,0,0-1.75-.37c-1.22,0-2,.69-2,1.69a1.56,1.56,0,0,0,1.5,1.62Z"/><path class="cls-2" d="M133.46,91.32a.58.58,0,0,1,.59-.59h1.19a.53.53,0,0,1,.53.37l.44,1.16a6.13,6.13,0,0,1,4.4-1.85c4,0,5.56,3,5.56,6.21v6a.61.61,0,0,1-.59.59H143a.59.59,0,0,1-.6-.59V96.44c0-1.62-.84-2.65-2.34-2.65a3.15,3.15,0,0,0-2.94,2v6.87c0,.43-.18.59-.78.59h-2.31a.61.61,0,0,1-.59-.59Z"/><path class="cls-2" d="M152.89,101.4l1.48-1.46a.42.42,0,0,1,.6,0,1.36,1.36,0,0,0,1.11.46c.62,0,1.29-.57,1.29-1.66v-8a.42.42,0,0,1,.42-.42h2.66a.42.42,0,0,1,.42.42h0v8a4.53,4.53,0,0,1-4.7,4.78,4.22,4.22,0,0,1-3.33-1.59A.47.47,0,0,1,152.89,101.4Z"/><path class="cls-2" d="M169.08,90.52a6.56,6.56,0,1,1-6.4,6.53A6.53,6.53,0,0,1,169.08,90.52Zm0,9.74a3.19,3.19,0,0,0,0-6.37,3.05,3.05,0,0,0-3,3.16A3.08,3.08,0,0,0,169.08,100.26Z"/><path class="cls-2" d="M177.22,101.83l.84-1.7a.48.48,0,0,1,.72-.22,7,7,0,0,0,2.84.75c.63,0,1.06-.25,1.06-.78s-.43-.9-2.09-1.56c-2.4-.94-3.53-2.22-3.53-4.12s1.41-3.69,4.59-3.69a7.18,7.18,0,0,1,3.85,1,.66.66,0,0,1,.28.85L185,93.92a.6.6,0,0,1-.75.22,7.41,7.41,0,0,0-2.59-.65c-.75,0-1.06.3-1.06.72s.56.75,1.72,1.21c2.4.94,4.21,2,4.21,4.41,0,2.06-1.81,3.81-5,3.81a7.08,7.08,0,0,1-4.16-1.16A.53.53,0,0,1,177.22,101.83Z"/><path class="cls-2" d="M194,90.52a5.73,5.73,0,0,1,5.84,5.81q0,.42-.06.84a.6.6,0,0,1-.6.53h-8a3,3,0,0,0,3,2.72,4.36,4.36,0,0,0,2.44-.78c.3-.19.59-.25.81,0l1.27,1.47a.52.52,0,0,1,.07.73.39.39,0,0,1-.1.08,6.69,6.69,0,0,1-4.65,1.72,6.56,6.56,0,0,1,0-13.12Zm2.18,5a2.33,2.33,0,0,0-2.27-2.13,2.48,2.48,0,0,0-2.44,2.13Z"/><path class="cls-2" d="M111.09,112.31a2.07,2.07,0,0,1-.62-.38,1.7,1.7,0,0,1-.41-.59,2,2,0,0,1,0-1.52,1.7,1.7,0,0,1,.41-.59,2.07,2.07,0,0,1,.62-.38,2.19,2.19,0,0,1,.77-.13,1.83,1.83,0,0,1,.57.08,1.6,1.6,0,0,1,.77.53,2.64,2.64,0,0,1,.23.35l-.79.38a.82.82,0,0,0-.12-.2l-.18-.17a1,1,0,0,0-.23-.11.67.67,0,0,0-.24,0,1,1,0,0,0-.41.08.87.87,0,0,0-.32.22.79.79,0,0,0-.2.33,1.09,1.09,0,0,0,0,.82.94.94,0,0,0,.2.33,1,1,0,0,0,.32.22,1,1,0,0,0,.41.08.67.67,0,0,0,.24,0,1,1,0,0,0,.23-.11l.18-.17a.82.82,0,0,0,.12-.2l.8.38a2.54,2.54,0,0,1-.23.34,1.51,1.51,0,0,1-.77.53,1.84,1.84,0,0,1-.57.09A2.28,2.28,0,0,1,111.09,112.31Z"/><path class="cls-2" d="M122.1,111.86h-1.42l-.18.52h-1l1.36-3.6H122l1.35,3.6h-1Zm-1.16-.81h.91l-.46-1.35Z"/><path class="cls-2" d="M130,108.78h.92v2.79h1.45v.81H130Z"/><path class="cls-2" d="M138.62,108.78h.93v3.6h-.93Z"/><path class="cls-2" d="M146.67,108.78h2.64v.8H147.6v.56h1.68V111H147.6v1.42h-.93Z"/><path class="cls-2" d="M156.84,112.3a1.73,1.73,0,0,1-.62-.38,1.71,1.71,0,0,1-.4-.59,2,2,0,0,1,0-1.5,1.81,1.81,0,0,1,.4-.59,1.73,1.73,0,0,1,.62-.38,2.12,2.12,0,0,1,1.53,0,1.61,1.61,0,0,1,.61.38,1.84,1.84,0,0,1,.41.59,2,2,0,0,1,0,1.5,1.84,1.84,0,0,1-.41.59,1.61,1.61,0,0,1-.61.38A2.12,2.12,0,0,1,156.84,112.3Zm1.17-.77a.81.81,0,0,0,.3-.22.79.79,0,0,0,.2-.33,1.28,1.28,0,0,0,0-.82.94.94,0,0,0-.2-.33,1.11,1.11,0,0,0-.3-.22,1.13,1.13,0,0,0-.81,0,1,1,0,0,0-.51.55,1.28,1.28,0,0,0,0,.82.91.91,0,0,0,.2.33.84.84,0,0,0,.31.22,1,1,0,0,0,.8,0Z"/><path class="cls-2" d="M167.87,111.17h-.47v1.21h-.93v-3.6h1.81a1.38,1.38,0,0,1,.53.09,1.27,1.27,0,0,1,.39.26,1,1,0,0,1,.24.38,1.22,1.22,0,0,1,.09.46,1.23,1.23,0,0,1-.07.42,1.05,1.05,0,0,1-.17.31,1,1,0,0,1-.48.34l.73,1.33h-1.06Zm.58-.91a.33.33,0,0,0,.13-.29.31.31,0,0,0-.13-.28.47.47,0,0,0-.32-.1h-.73v.77h.73a.53.53,0,0,0,.32-.1Z"/><path class="cls-2" d="M177.44,110.29v2.09h-.93v-3.6h1l1.46,2v-2h.93v3.6H179Z"/><path class="cls-2" d="M187,108.78h.92v3.6H187Z"/><path class="cls-2" d="M197.19,111.86h-1.42l-.18.52h-1.05l1.35-3.6h1.18l1.35,3.6h-1Zm-1.17-.81h.92l-.46-1.35Z"/></svg>