<svg id="Layer_1" data-name="Layer 1" xmlns="http://www.w3.org/2000/svg" viewBox="0 0 250 200"><defs><style>.cls-1{fill:#1b242f;}.cls-2,.cls-3{fill:#fff;}.cls-3{isolation:isolate;font-size:8.67px;font-family:ArialMT, Arial;}</style></defs><rect class="cls-1" width="250" height="200"/><path class="cls-2" d="M57.62,93.32A4.34,4.34,0,0,1,52.71,93c-.65-.6,0-1.16.33-1.72.13-.2.24-.71.5-.76s.65.45.89.59a1.7,1.7,0,0,0,2.13-.2,1.13,1.13,0,0,0-.64-1.83,16.42,16.42,0,0,0-2.64-.31,4.63,4.63,0,0,1-2.51-1.16,3.2,3.2,0,0,1-.05-4.1,4.23,4.23,0,0,1,4.65-1.43c.56.25,1.73.85,1.42,1.57a3.89,3.89,0,0,1-.69.92c-.32.39-.38.48-.83.24-.8-.4-1.63-.78-2.46-.14s.16,1.5,1,1.55c1.87.15,4.71.26,5.43,2.43a3.81,3.81,0,0,1-1.58,4.64"/><path class="cls-2" d="M66.23,80.75a1.83,1.83,0,0,0-1.79,1c-.41.7,0,1.65.2,2.38s.43,1.63.65,2.44a2,2,0,0,0,1.29,1.55,2.21,2.21,0,0,0,2-.68c.51-.66.1-1.7-.06-2.42-.24-.94-.58-1.82-.82-2.74s-.53-1.38-1.43-1.49m3.9,1.06c.18.62.29,1.28.47,1.9s.41,1.51.6,2.26a3.14,3.14,0,0,1-.82,3.26A5.85,5.85,0,0,1,68,90.3a4.29,4.29,0,0,1-3.49-.22,4.5,4.5,0,0,1-1.44-2.64c-.33-1.27-.8-2.54-1.08-3.81-.24-1.11-.56-2.34.08-3.39s2-1.51,3.21-1.81a4.57,4.57,0,0,1,3.13.21c1,.63,1.34,2.09,1.69,3.17"/><path class="cls-2" d="M80.67,75c.48,0,.45.14.59.6.29,1.11.42,2.25.67,3.37.48,2.05,1,4.11,1.33,6.16.07.32.33,1,.22,1.22s-.88.37-1.14.43c-.5.14-.85.31-1.23-.11s-.53-.68-.79-1c-.63-.84-1.28-1.73-1.87-2.59-.08-.12-.79-1.51-1-1.41,0,0,.38,1.81.39,1.88.23,1,.48,2,.68,3,.06.39.31.87-.14,1.09a6.9,6.9,0,0,1-1.31.24c-.42.08-.63.14-.77-.26s-.18-1.13-.32-1.66c-.51-2.18-.86-4.42-1.42-6.61-.13-.51-.18-1-.32-1.51-.09-.34-.37-.86-.24-1.22s.63-.34,1-.42.95-.42,1.4-.14.45.73.65,1.09c.32.52.76,1,1.12,1.47a22.73,22.73,0,0,0,1.76,2.49,19,19,0,0,0-.67-3.15c0-.21-.69-2.57-.37-2.63A13.27,13.27,0,0,1,80.66,75"/><path class="cls-2" d="M91.4,75.48a1.86,1.86,0,0,0-1.89.75c-.47.66-.18,1.65-.06,2.39s.24,1.67.37,2.51a2,2,0,0,0,1.11,1.68,2.25,2.25,0,0,0,2-.46c.58-.6.28-1.68.21-2.41-.13-1-.37-1.87-.51-2.82s-.37-1.42-1.26-1.64M95.15,77c.12.64.15,1.31.26,1.94s.24,1.55.35,2.31a3.15,3.15,0,0,1-1.19,3.15,5.61,5.61,0,0,1-2.46.79,4.25,4.25,0,0,1-3.44-.6,4.43,4.43,0,0,1-1.14-2.78c-.18-1.3-.5-2.62-.63-3.9-.12-1.13-.3-2.39.46-3.36s2.2-1.27,3.39-1.43a4.5,4.5,0,0,1,3.09.56c1,.74,1.09,2.23,1.31,3.34"/><path class="cls-2" d="M109.89,76.42c.24,1.82.18,3.68.48,5.52,0,.3.15.69-.12.92s-.82,0-1.16.09-.7.28-.94-.2a4.18,4.18,0,0,1-.13-1.41c0-.9-.1-1.83-.21-2.72-.07-.5-.08-1-.16-1.5a5.52,5.52,0,0,1-.07-.8c-.06.18-.88,4.21-1,4.61A8.26,8.26,0,0,1,106.2,83a1.44,1.44,0,0,1-1.61.33c-.48-.36-2.31-6.68-2.56-6.62a17.08,17.08,0,0,0,.25,2.45c.08.89.14,1.77.23,2.66,0,.57.45,1.64-.29,1.79-.32.09-.72,0-1,.1s-.59.22-.77.07-.08-.55-.1-.71l-.1-1.47c-.13-1.65-.28-3.26-.48-4.9-.1-.85-.2-1.73-.24-2.59,0-.41,0-.81-.06-1.2,0-.15-.21-.74-.1-.88s.8-.09,1-.11.51-.13.77-.18a1,1,0,0,1,1.26.77c.27.81.67,1.59,1,2.38s.58,1.64.92,2.44c.16.32.42,1,.52,1.25.18.42.2.29.23.07.12-.7.19-.88.23-1.09.35-1.72.75-3.46,1.13-5.2.18-.92.36-1.14,1.35-1.16.18,0,1.55-.21,1.57,0,.16,1.74.34,3.47.57,5.2"/><path class="cls-2" d="M119.1,76.14c0-.18-.22-1.2-.48-1.19a21.86,21.86,0,0,0-.58,2.38c-.08.42-.06.37.37.36.2,0,1.06.06,1.11,0s-.38-1.31-.42-1.51m.16-5.52c.79.07.76.91.94,1.53.44,1.48.89,3,1.31,4.45s.89,3,1.29,4.49c.12.41.63,1.08.14,1.32-.23.13-.79-.06-1.08,0s-.66.2-.87.06-.45-1-.51-1.33-.1-1.09-.52-1.26c-.18-.07-.59,0-.79,0q-.54,0-1.08,0c-.83,0-.7.45-.87,1.11a4.6,4.6,0,0,1-.37,1.47c-.23.26-.39.12-.68.11s-.74,0-1.11.05c-.83,0-.46-.58-.32-1.18.21-.85.35-1.73.58-2.58.35-1.4.77-2.83,1-4.22a6.71,6.71,0,0,0,.25-.83,7.69,7.69,0,0,1,.32-1.34c.06-.24.15-1.71.51-1.72a14.25,14.25,0,0,1,1.85-.12"/><path class="cls-2" d="M140.31,78.11c.34,0,.63-.06.81.3s0,.75,0,1C140.87,81.36,140,82.73,138,83c-1.74.22-4.1-.28-4.84-2.06a4.93,4.93,0,0,1-.22-2.46c.16-1.06.16-2.21.22-3.28.08-1.8.46-3.93,2.58-4.26,1.89-.29,4.24-.2,5.28,1.7a3.84,3.84,0,0,1,.41,2.22c-.16.78-1.42.5-2,.36-.34-.07-.34-.07-.39-.44s0-.73-.44-1.11a2.06,2.06,0,0,0-2.52,0c-.68.68-.54,1.92-.59,2.79a8.51,8.51,0,0,0,.07,3.3,1.7,1.7,0,0,0,2,.84c1.11-.22,1.2-1.37,1.25-2.32,0-.39,1.29-.12,1.54-.11"/><path class="cls-2" d="M150.56,74.52a1.86,1.86,0,0,0-2,.22c-.63.51-.61,1.54-.7,2.29s-.21,1.68-.3,2.52a2,2,0,0,0,.63,1.91,2.21,2.21,0,0,0,2.06.1c.72-.43.72-1.55.84-2.27.13-1,.15-1.91.26-2.85s0-1.48-.77-1.92M153.78,77c-.05.64-.2,1.3-.26,1.94s-.18,1.55-.28,2.32a3.14,3.14,0,0,1-2,2.71,5.81,5.81,0,0,1-2.58.12,4.28,4.28,0,0,1-3.15-1.51,4.51,4.51,0,0,1-.36-3c.17-1.3.22-2.65.42-3.93a4.46,4.46,0,0,1,1.34-3.11c1-.79,2.46-.64,3.64-.48a4.52,4.52,0,0,1,2.83,1.36c.72,1,.46,2.44.38,3.57"/><path class="cls-2" d="M165.62,74.39c.27,0,.76,0,1,.2s0,1-.06,1.27c-.11,1-.37,2-.5,2.94s-.37,1.92-.52,2.88c-.29,1.88-.9,3.94-3.11,4.17-1.44.16-3.64-.27-4.57-1.47-1.17-1.55-.58-3.33-.33-5.08.13-.89.36-1.78.52-2.67.11-.51.14-1,.21-1.53a8.16,8.16,0,0,1,.23-1.56c.15-.3.24-.32.56-.31s1,.19,1.42.27.54.22.42.74-.25,1.14-.32,1.75c-.11.85-.3,1.71-.44,2.56-.08.45-.14.89-.21,1.33a10.44,10.44,0,0,0-.35,1.82,1.76,1.76,0,0,0,1.82,1.7c1.28,0,1.59-.91,1.74-2,.32-2.35.81-4.71,1.22-7.05.06-.38,1.09,0,1.3.06"/><path class="cls-2" d="M177.92,77c.59.23.34.55.21,1-.17.75-.35,1.39-.45,2-.37,2.11-1,4.23-1.48,6.33a8.6,8.6,0,0,1-.3,1.87c-.24.41-.64.33-1.05.24s-1.13-.15-1.33-.38-.23-1.19-.29-1.54c-.19-1-.42-2-.63-3.07a15,15,0,0,0-.35-1.77,12,12,0,0,0-.41,1.65c-.19.82-.32,1.73-.56,2.51-.1.38-.15.81-.25,1.18-.16.59-.6.37-1.09.28-.32-.07-1.13-.09-1.27-.4-.06-.14.11-.42.14-.56a7.85,7.85,0,0,0,.16-1c.42-2.24,1-4.39,1.48-6.63.11-.58.31-1.16.47-1.74.07-.3.07-1.35.4-1.51s1.06.2,1.4.26c.72.14.83.24.95,1,.22,1.21.36,2.44.67,3.62a12.88,12.88,0,0,0,.38,2,13.87,13.87,0,0,0,.54-2.6c.05-.15.65-3.19.93-3.12a12.51,12.51,0,0,1,1.72.36"/><path class="cls-2" d="M182.12,79.09a1.89,1.89,0,0,1,.16-.71c.37-.47,1.41.14,1.88.26.75.19,1.48.47,2.21.7s1.59.3,2.38.57c.5.18,1.17.11,1.07.79,0,.36-.31,1.55-.67,1.66-.18,0-.48-.14-.66-.19a5.52,5.52,0,0,1-1.06-.28c-.83-.29-.78,0-1,.7-.36,1.35-.86,2.7-1.19,4.08-.16.69-.43,1.32-.62,2l-.23,1.1c-.07.24-.1.81-.27,1s-1-.05-1.37-.18c-.74-.26-1-.25-.79-1.11.45-1.53.81-3.13,1.31-4.65a17,17,0,0,0,.7-2.54c.07-.31.23-.6.28-.92s0-.37-.33-.47-2.3-.32-2.18-.75.26-.67.33-1"/><path class="cls-2" d="M200,83.74c0,.2-.45.63-.57.74-.4.4-.66.9-1,1.3s-.85.81-1.26,1.24-.79,1-1.19,1.4a2.69,2.69,0,0,0-.57,1.19l0,.14c-.17.62-.5,1.19-.65,1.82s-.45,1.23-.57,1.86-.41.54-1,.36c-.28-.08-.5-.21-.77-.3s-.59,0-.71-.28.27-.85.37-1.14a18.58,18.58,0,0,0,.62-2,20.85,20.85,0,0,0,.71-2.06,11.09,11.09,0,0,0-.16-1.82c0-1.25-.25-2.51-.32-3.77,0-.58-.37-1.3.5-1.06.46.14,1.44.33,1.64.82a10.46,10.46,0,0,1,.29,2c0,.18,0,1.19.17,1.23s2.46-2.45,2.45-2.45c.25-.14,1.22.37,1.42.42s.62.08.66.38"/><path class="cls-2" d="M65,126.08l-.32,0-.15.31a1.67,1.67,0,0,1-1.7,1.24,8.26,8.26,0,0,1-1.92-.11c-.29,0-.57-.08-.86-.1l-.35,0V115c0-.22-.13-.58-1-.58-1.16,0-1.44,0-1.54.35l0,.3.18.14a1.71,1.71,0,0,1,.46.72,10.68,10.68,0,0,1,.21,2c0,4.79,0,7.36,0,8.8s0,1.74,0,2l.05.58.5-.28a2.49,2.49,0,0,1,1.14-.21A13.71,13.71,0,0,1,61,129a18.46,18.46,0,0,0,2,.16c1.33-.06,2.1-.48,2.36-1.3a2.55,2.55,0,0,0,.12-.67c0-.1,0-1-.47-1.08"/><path class="cls-2" d="M72,115l-.09-.24c-.08-.23-.31-.36-1.26-.36s-1.11.13-1.2.39l0,.26.17.16c.07.06.25.48.28,1.71v9.69a4.27,4.27,0,0,1-.28,1.82l-.21.21.09.23c.09.24.28.35,1.22.35s1.14-.11,1.24-.38l0-.25-.16-.16a3.92,3.92,0,0,1-.27-1.83v-9.67c0-1.5.25-1.71.27-1.72Z"/><path class="cls-2" d="M84.36,114.44H76.17l.5.61a2.52,2.52,0,0,1,.53,1.23v12.4c0,.48.67.48.89.48a1.75,1.75,0,0,0,.46,0c.41-.09.48-.33.48-.48l0-5c.79,0,1.25,0,1.73,0s1-.68,1.09-.94a.48.48,0,0,0,0-.58.42.42,0,0,0-.44-.09l-.21,0h-.76c-.52,0-.92,0-1.36,0v-6.22H82.2c.37,0,.72,0,.89,0a1.16,1.16,0,0,1,.57.18l.09.05.32.06.13-.12c.14-.13.27-.38.19-1.33Z"/><path class="cls-2" d="M92.64,115.93c.38,0,.73,0,.9,0a1.22,1.22,0,0,1,.56.17.76.76,0,0,0,.18.09l.25,0,.13-.12c.18-.17.21-.42.13-1.33l0-.35H86.67l.49.61a2.73,2.73,0,0,1,.56,1.25v6.18c-.27,0-.63.17-.83,1.11l-.1.46.93,0v5H93.6a1.09,1.09,0,0,0,1.22-1.18v-.48c0-.32,0-.48-.15-.66l-.15-.11h-.34l-.11.16a1.39,1.39,0,0,1-.82.69,3.85,3.85,0,0,1-1.27.14H89.4v-3.56h1.73c.58,0,1-.68,1.1-.94a.48.48,0,0,0-.06-.57.4.4,0,0,0-.44-.1l-.21,0H89.4v-6.56Z"/><path class="cls-2" d="M113,121.16c0,2.39-1.22,6.85-4.16,6.85a1.88,1.88,0,0,1-.53-.07c-1.75-.43-2.87-2.84-2.86-6.14.11-3.08,1.75-6.37,4-6.37a2.1,2.1,0,0,1,.5,0c2.09.47,3,3.29,3,5.7m-2.86-7a4.88,4.88,0,0,0-.76-.07c-3.09,0-5.62,3.38-5.75,7.7,0,3.11,1.24,6.66,4.51,7.35a4.14,4.14,0,0,0,.93.1c3.17,0,5.6-3.33,5.67-7.77,0-3.15-1.44-6.79-4.6-7.31"/><path class="cls-2" d="M120.32,115.93a5.32,5.32,0,0,1,.69,0,4.24,4.24,0,0,1,2.83.94,2.53,2.53,0,0,1,.75,1.8,3.43,3.43,0,0,1-1.21,2.54,5.69,5.69,0,0,1-2.75,1.09l-.32,0Zm4.58-.28h0c-1.6-1.25-3.68-1.25-5.51-1.25h-.09c-1.17,0-1.45,0-1.55.36a.41.41,0,0,0,.14.44,1.49,1.49,0,0,1,.46.72,10.61,10.61,0,0,1,.23,2v10.68c0,.48.63.48.87.48s.87,0,.87-.48v-5.92a.51.51,0,0,0,.19.29,2.63,2.63,0,0,0,1.58.21,4.64,4.64,0,0,0,4.28-4.68,3.87,3.87,0,0,0-1.47-2.88"/><path class="cls-2" d="M135.15,115.93c.37,0,.72,0,.89,0a1.22,1.22,0,0,1,.56.17.51.51,0,0,0,.18.09l.24,0,.13-.12c.19-.17.21-.42.13-1.33l0-.35h-8.08l.49.61a2.73,2.73,0,0,1,.56,1.25v6.18c-.27,0-.64.17-.83,1.11l-.1.46.93,0v5h5.88a1.08,1.08,0,0,0,1.21-1.18c0-.19,0-.34,0-.48,0-.32,0-.48-.16-.66l-.15-.11h-.34l-.11.16a1.36,1.36,0,0,1-.82.69,3.75,3.75,0,0,1-1.27.14H131.9v-3.56h1.73c.58,0,1-.68,1.1-.94a.48.48,0,0,0-.06-.57.42.42,0,0,0-.44-.1l-.21,0H131.9v-6.56Z"/><path class="cls-2" d="M149.65,114.33c-.34,0-1.23,0-1.23.61v10.5c-1.52-3.34-4.66-10.31-4.81-10.69s-.52-.37-1-.37c-1.16,0-1.44,0-1.55.36l0,.3.18.14a1.49,1.49,0,0,1,.46.72,10.69,10.69,0,0,1,.22,2v10.72c0,.48.62.48.88.48s.88,0,.88-.48V119l1.92,4.2.08.19c1.22,2.67,2.37,5.19,2.51,5.48a.73.73,0,0,0,.68.38,2.66,2.66,0,0,0,1-.32l.21-.1v-11.3a6.87,6.87,0,0,1,.21-1.63,1.5,1.5,0,0,1,.43-.7l.23-.2-.08-.25c-.07-.2-.26-.39-1.22-.39"/><path class="cls-2" d="M161.16,122.46h0a14.57,14.57,0,0,0-1.72-1.42l-.88-.66a10,10,0,0,1-1.36-1.15,2.89,2.89,0,0,1-.82-1.39,2,2,0,0,1,.45-1.53,2.35,2.35,0,0,1,1.89-.87,3,3,0,0,1,1.62.5,6.08,6.08,0,0,1,1,.92.41.41,0,0,0,.5.17.46.46,0,0,0,.26-.3,2.36,2.36,0,0,0,.09-.91h0c0-.37-.32-.7-.94-1.11a4.86,4.86,0,0,0-2.5-.65,4.5,4.5,0,0,0-3.29,1.29,3.46,3.46,0,0,0-.95,2.73,4.08,4.08,0,0,0,1.43,2.56c.76.63,1.63,1.32,2.34,1.81a7.63,7.63,0,0,1,1.82,1.81,2.34,2.34,0,0,1,.4,1.3,2.4,2.4,0,0,1-.71,1.72,2.16,2.16,0,0,1-1.62.58,3.46,3.46,0,0,1-2.54-1.65.4.4,0,0,0-.44-.3c-.5.06-.56,1.12-.56,1.13,0,.37.23.77.79,1.21a4.6,4.6,0,0,0,2.73,1h.25a4.06,4.06,0,0,0,2.93-1.15,3.94,3.94,0,0,0,1.05-3.07,4.47,4.47,0,0,0-1.27-2.54"/><path class="cls-2" d="M179.69,114.41c-.33,0-1,0-1,.47v3.27a58.86,58.86,0,0,1-.21,7.21,3.22,3.22,0,0,1-1.36,2.38,2,2,0,0,1-2.32-.06,3.42,3.42,0,0,1-1.06-2.39,30.42,30.42,0,0,1-.11-3.31v-7.06l0-.13-.11-.15c-.1-.15-.29-.23-.86-.23s-1.3,0-1.53.31l-.11.16,0,.35.17.09c.34.16.41.46.48.86v.11c0,.26.05.65.05,1.1,0,1.38.06,2.94.08,4.31v.24c0,.79,0,1.55,0,2.26.06,2.63,1.05,4.29,3,4.92a5.29,5.29,0,0,0,1.58.27,3.58,3.58,0,0,0,1.08-.16c2.43-.69,2.83-3,2.9-5,0-1.17,0-2.36,0-3.42v-.1c0-1.08,0-2.19,0-3.3,0-.35,0-.68.06-.94,0-.1,0-.18,0-.22.07-.46.13-.73.47-.89l.19-.09,0-.41-.11-.12c-.22-.26-.95-.31-1.51-.31"/><path class="cls-2" d="M186.85,115.93a5.32,5.32,0,0,1,.69,0,4.24,4.24,0,0,1,2.83.94,2.55,2.55,0,0,1,.75,1.8,3.43,3.43,0,0,1-1.21,2.54,5.69,5.69,0,0,1-2.75,1.09l-.32,0Zm6.05,2.6h0a3.84,3.84,0,0,0-1.47-2.88c-1.6-1.25-3.68-1.25-5.52-1.25h-.08c-1.17,0-1.46,0-1.56.36a.4.4,0,0,0,.15.44,1.49,1.49,0,0,1,.46.72,9.86,9.86,0,0,1,.22,2v10.68c0,.48.64.48.88.48s.87,0,.87-.48v-5.92a.5.5,0,0,0,.18.29,2.67,2.67,0,0,0,1.59.21c2.24-.32,4.43-2,4.27-4.68"/><path class="cls-2" d="M98.16,99.59c.17,0,.3,0,.4.12a.89.89,0,0,1,0,.51A1.69,1.69,0,0,1,97.13,102a2.22,2.22,0,0,1-2.42-.87,2.41,2.41,0,0,1-.18-1.19,14.41,14.41,0,0,0,0-1.61c0-.88.12-1.93,1.15-2.15a2.35,2.35,0,0,1,2.62.68A1.89,1.89,0,0,1,98.57,98c0,.39-.68.29-1,.24s-.16,0-.2-.21,0-.36-.25-.52a1,1,0,0,0-1.23,0c-.31.35-.21,1-.21,1.38a4.1,4.1,0,0,0,.13,1.6.84.84,0,0,0,1,.36c.54-.14.55-.71.55-1.17,0-.19.62-.1.74-.1"/><path class="cls-2" d="M103.7,98.87c0-.09-.08-.59-.22-.59s-.3,1.09-.31,1.16,0,.18.17.18a2.51,2.51,0,0,0,.55,0c.06-.08-.17-.65-.19-.75m.15-2.69c.39,0,.36.45.44.76.2.73.4,1.46.58,2.19s.4,1.47.57,2.21c0,.2.3.53,0,.65s-.38,0-.52,0-.33.09-.43,0-.21-.51-.23-.66,0-.53-.24-.62a1.6,1.6,0,0,0-.38,0l-.53,0c-.41,0-.35.21-.44.53a2.4,2.4,0,0,1-.2.72c-.12.12-.2,0-.33,0s-.36,0-.55,0c-.4,0-.22-.29-.14-.58s.19-.84.32-1.26c.19-.67.41-1.37.55-2a2.67,2.67,0,0,0,.13-.4,3.46,3.46,0,0,1,.18-.65c0-.12.09-.84.27-.84a6.82,6.82,0,0,1,.9,0"/><path class="cls-2" d="M109.72,100c0,.31.06.59.06.91,0,.09.49,0,.66,0s.57,0,.86,0,.45,0,.44.38c0,.19.09.65-.09.71a3.57,3.57,0,0,1-.87,0h-1.53a2.9,2.9,0,0,1-.51,0c-.25-.07-.14-.33-.15-.55s0-.62,0-.94c0-.62,0-1.24,0-1.86,0-.42,0-.81,0-1.23s-.13-.84,0-1.11.46-.12.67-.12.47,0,.47.09c0,1.2-.13,2.46,0,3.65"/><path class="cls-2" d="M114.73,100.61c0-.48,0-1,0-1.44s0-.92,0-1.39c0-.25,0-.5,0-.75s-.09-.62,0-.77.35-.07.5-.07.44-.09.57,0,.09.36.07.51a3.86,3.86,0,0,0,0,.68c.07,1,0,2.1,0,3.14,0,.32,0,.63,0,.95,0,.11.07.42,0,.5s-.5,0-.64,0-.49.08-.49-.09Z"/><path class="cls-2" d="M119.24,97.74c0-.39,0-.76,0-1.16,0-.11,0-.23.07-.32s.52-.06.69-.05c.33,0,.67,0,1,0l.62,0a2.18,2.18,0,0,1,.72,0c.13.07.06.39.06.62s0,.32-.09.43-.43,0-.58,0l-1.1,0c-.42,0-.3.41-.32.7a1,1,0,0,0,.11.52c.08.08.28,0,.61,0s.82-.06.88,0a.83.83,0,0,1,0,.35,5.68,5.68,0,0,1,0,.59c0,.15-.49.08-.74.08s-.73,0-.79.09a3.3,3.3,0,0,0,0,.63c0,.21,0,.41,0,.61s0,.4,0,.62.08.35,0,.43-.3.06-.42.06l-.66,0a41.46,41.46,0,0,1-.08-4.3"/><path class="cls-2" d="M127.67,97.35a.92.92,0,0,0-1,.22c-.28.28-.21.78-.21,1.15s0,.83,0,1.24a1,1,0,0,0,.42.89,1.07,1.07,0,0,0,1-.07c.32-.24.26-.79.28-1.14s0-.94,0-1.4-.07-.72-.48-.89m1.7,1c0,.32,0,.64,0,1s0,.77,0,1.15a1.53,1.53,0,0,1-.81,1.42,2.81,2.81,0,0,1-1.25.2,2,2,0,0,1-1.61-.55,2.18,2.18,0,0,1-.35-1.43c0-.63,0-1.3,0-1.93a2.13,2.13,0,0,1,.47-1.58,2.41,2.41,0,0,1,1.75-.44,2.2,2.2,0,0,1,1.45.5,2.65,2.65,0,0,1,.38,1.71"/><path class="cls-2" d="M133.87,97.34c-.27,0-.28.16-.26.4a7.85,7.85,0,0,1,0,1,1.39,1.39,0,0,0,.08.57c.08.08.46,0,.59,0,.65-.05.57-.76.57-1.25s-.44-.78-1-.7m1.86,3.87c.08.16.38.61.21.75s-.41,0-.51,0a1.83,1.83,0,0,1-.47,0c-.24-.07-.35-.54-.45-.75s-.21-.71-.43-.83c-.41-.19-.37.34-.38.55s.1.85-.1,1a1,1,0,0,1-.38,0,2.26,2.26,0,0,1-.52,0c-.27-.07-.2-.51-.19-.76l0-1.3c0-.75,0-1.54,0-2.31,0-.33,0-.64,0-1a.7.7,0,0,1,0-.38c.09-.12.28-.07.41-.07a10.92,10.92,0,0,1,1.14,0,2.48,2.48,0,0,1,1.2.2,2,2,0,0,1,.71,1.85c0,.75.08,1.65-.74,2a1.69,1.69,0,0,0,.23.44c.08.17.13.34.23.51"/><path class="cls-2" d="M142.61,96.19c.3,0,.22.22.21.46s0,.7,0,1c0,1,0,2.12,0,3.17a4.14,4.14,0,0,1,.06.92c-.07.22-.27.23-.48.23s-.55,0-.67,0-.24-.54-.31-.7c-.2-.46-.42-.93-.63-1.39a7,7,0,0,0-.36-.81,4.39,4.39,0,0,0,0,.83c0,.42,0,.86,0,1.26,0,.19,0,.4,0,.59s-.25.24-.49.25-.55.08-.65,0,0-.21,0-.28a3.85,3.85,0,0,0,0-.48c0-1.11,0-2.2,0-3.32,0-.29,0-.58,0-.88s-.12-.65,0-.77.53,0,.7,0c.36,0,.42,0,.56.36.23.55.44,1.12.71,1.65a7.09,7.09,0,0,0,.39.89,6.34,6.34,0,0,0,0-1.3c0-.08,0-1.58.1-1.58a6.21,6.21,0,0,1,.86,0"/><path class="cls-2" d="M146.3,99.75c0-.67,0-1.34,0-2,0-.32,0-.63,0-.94a3.23,3.23,0,0,1,0-.44c.07-.16.06-.14.22-.17a4.21,4.21,0,0,1,.71,0c.28,0,.29.17.27.4-.05,1.11-.05,2.2,0,3.31,0,.35,0,.7,0,1.06a5.61,5.61,0,0,1,0,.82c-.07.31-.34.22-.61.22-.05,0-.56,0-.56-.08,0-.72,0-1.44,0-2.17"/><path class="cls-2" d="M152.7,98.87c0-.09-.09-.59-.22-.59a10.15,10.15,0,0,0-.32,1.16c0,.2,0,.18.18.18a2.41,2.41,0,0,0,.54,0c.06-.08-.16-.65-.18-.75m.15-2.69c.38,0,.36.45.44.76.19.73.39,1.46.57,2.19s.4,1.47.58,2.21c.05.2.29.53.05.65s-.39,0-.53,0-.32.09-.43,0-.2-.51-.23-.66,0-.53-.23-.62a1.7,1.7,0,0,0-.39,0l-.53,0c-.4,0-.35.21-.43.53a2.41,2.41,0,0,1-.21.72c-.11.12-.19,0-.33,0s-.36,0-.54,0c-.41,0-.22-.29-.15-.58s.2-.84.32-1.26c.2-.67.42-1.37.56-2,0-.13.1-.26.13-.4a4.42,4.42,0,0,1,.17-.65c0-.12.1-.84.27-.84a6.92,6.92,0,0,1,.91,0"/><path class="cls-2" d="M162.83,99.28c.08,1.48-2.43,1.52-2.43,0s2.35-1.46,2.43,0"/><path class="cls-2" d="M89.59,99.28c.08,1.48-2.43,1.52-2.43,0s2.35-1.46,2.43,0"/><text class="cls-3" transform="translate(193.6 120.18)">®</text></svg>