<svg id="Layer_1" data-name="Layer 1" xmlns="http://www.w3.org/2000/svg" xmlns:xlink="http://www.w3.org/1999/xlink" viewBox="0 0 250 200"><defs><style>.cls-1{fill:none;}.cls-2{fill:#1b242f;}.cls-3{fill:#fff;}.cls-4{clip-path:url(#clip-path);}</style><clipPath id="clip-path"><path class="cls-1" d="M79.15,101.82c0,3.21,2.85,5.28,6.06,5.28,1.78,0,4.16-1.08,4.86-2.63-.77-.2-4-.17-4-3.9,0-2.81,2.59-3.89,4.52-3.83a11.34,11.34,0,0,0-5.12-1.36,6,6,0,0,0-6.36,6.44m71,0c0,3.21,2.85,5.28,6,5.28,1.79,0,4.17-1.08,4.86-2.63-.76-.2-4-.17-4-3.9,0-2.81,2.6-3.9,4.52-3.84a11.47,11.47,0,0,0-5.12-1.36,6,6,0,0,0-6.36,6.44M120.83,85.43c-2.17,0-6.14-.13-6.14-.13v2.93h.51c2,0,2.56.81,3.33,3,1.4,4,4.21,12.43,5.12,15.46.54,0,3.77,0,4.27,0,.23-.83.47-1.62.84-2.79-.85-3-3.23-10.91-3.77-13.12-.49-1.9.41-2.58,1.54-2.58h.5c0-.28,0-2.62,0-2.94,0,0-4,.14-6.19.14m13.42,0c-2.12,0-5.42-.14-5.42-.14v2.93h.63a1.63,1.63,0,0,1,1.68.84c1.31,3.7,4.44,14.45,5.34,17.66.63,0,4.14,0,4.77,0,.18-.6.36-1.18.68-2.16-1-2.9-3.65-11.67-4.15-13.75-.41-1.58.05-2.58,1.53-2.58h.5V85.3s-3.43.13-5.56.13m7.37,2.8h.63a1.63,1.63,0,0,1,1.68.84c.49.68.77,3.18.07,5.78,2.92.37,7.42-2,6.6-9.53,0,0-2.51.11-4.3.11s-4.68-.13-4.68-.13c0,1.13,0,1.79,0,2.93m-38.7-2.88a7.7,7.7,0,0,1,2.85,5.33c0,1.77.09,8.13,0,10.21s-.55,2.49-2.4,2.54h-.85v3c.31,0,4.11-.13,6.36-.13s5.74.13,6.33.13v-3h-.82c-1.76,0-2.39-.41-2.48-2.58s0-14.82,0-15.63c-2,.09-6.68.13-9,.13m70.52,0v2.89h.68c2.17,0,2.44,1,2.54,2.76s.08,7.23,0,9.58c-.1,2.13-.55,2.82-2.4,2.85h-.86v3c.32,0,4.07-.14,6.33-.14s5.69.14,6.24.14v-3h-.77c-1.72,0-2.4-.72-2.4-2.89V85.21c-1.76.13-7.32.13-9.36.13M81.21,89.22a2.7,2.7,0,0,0,.22,1.43A8.15,8.15,0,0,1,86.77,89c3.93,0,4.9,2.38,4.8,5.58s-.09,5.46-.08,6.18a13.57,13.57,0,0,0,.24,2.54c.44,2.37,1.91,3.7,5,3.7,2.92,0,4.38-2.07,3.41-4.49a1.46,1.46,0,0,1-1.47,1.19c-.67-.07-1-.45-1-2.57V93.38c0-5.33-1.9-8.68-8.73-8.68-4.52,0-7.37,1.5-7.73,4.51m71,0a2.61,2.61,0,0,0,.23,1.43A8.12,8.12,0,0,1,157.73,89c3.94,0,4.91,2.38,4.8,5.58s-.09,5.46-.07,6.18a12.77,12.77,0,0,0,.23,2.54c.44,2.37,1.92,3.7,5,3.7,2.92,0,4.38-2.07,3.42-4.49a1.47,1.47,0,0,1-1.47,1.19c-.68-.07-1-.45-1-2.57V93.38c0-5.33-1.9-8.68-8.72-8.68-4.53,0-7.37,1.5-7.74,4.51M184.05,89a3.92,3.92,0,0,1,3.06-.89c2.62,0,3.43,2.08,3.57,5.47q.13,3.87,0,7c-.09,2.08-.73,2.85-2.35,2.85h-.73v3c.27,0,3.94-.14,6.15-.14s5.65.14,6.19.14c0-.32,0-2.35,0-3h-.59c-1.95,0-2.44-.72-2.53-2.89,0-1.76,0-4.79,0-7.43.09-5.06-1.85-8.41-7-8.41-2.79,0-5.22,1.28-5.72,4.25M61.25,75.1s.12,1.61.16,3.56c.14,5.61.14,19.12,0,21.33-.09,1.76-.77,2.81-2.8,2.81H56.45v3.58s5.37-.09,8.35-.09,8.36.09,8.36.09v-3.6h-2.3c-2.08,0-2.58-1.08-2.67-2.81-.13-2.21,0-20.84,0-21.32.06-2,.17-3.57.17-3.57Zm-11.09,12c.41,0,3.44,0,3.8,0l.18-4.2c.15-2.61,1.17-4.25,4.38-4.25H59.8c0-2-.15-3.56-.15-3.56h-2c-4,0-6.14,0-7.72-.18.22,2.93.36,9.26.22,12.19M72,75.1h-2s-.12,1.61-.17,3.56h1.37c3.21,0,4.24,1.64,4.38,4.25l.18,4.2c.36,0,3.33,0,3.71,0-.14-2.93,0-9.26.22-12.19-1.67.13-3.25.18-7.63.18M104.92,78a3.49,3.49,0,0,0,3.61,3.71,3.68,3.68,0,1,0,0-7.36A3.49,3.49,0,0,0,104.93,78"/></clipPath></defs><rect class="cls-2" width="250" height="200"/><path class="cls-3" d="M79.15,101.82c0,3.21,2.85,5.28,6.06,5.28,1.78,0,4.16-1.08,4.86-2.63-.77-.2-4-.17-4-3.9,0-2.81,2.59-3.89,4.52-3.83a11.34,11.34,0,0,0-5.12-1.36,6,6,0,0,0-6.36,6.44m71,0c0,3.21,2.85,5.28,6,5.28,1.79,0,4.17-1.08,4.86-2.63-.76-.2-4-.17-4-3.9,0-2.81,2.6-3.9,4.52-3.84a11.47,11.47,0,0,0-5.12-1.36,6,6,0,0,0-6.36,6.44M120.83,85.43c-2.17,0-6.14-.13-6.14-.13v2.93h.51c2,0,2.56.81,3.33,3,1.4,4,4.21,12.43,5.12,15.46.54,0,3.77,0,4.27,0,.23-.83.47-1.62.84-2.79-.85-3-3.23-10.91-3.77-13.12-.49-1.9.41-2.58,1.54-2.58h.5c0-.28,0-2.62,0-2.94,0,0-4,.14-6.19.14m13.42,0c-2.12,0-5.42-.14-5.42-.14v2.93h.63a1.63,1.63,0,0,1,1.68.84c1.31,3.7,4.44,14.45,5.34,17.66.63,0,4.14,0,4.77,0,.18-.6.36-1.18.68-2.16-1-2.9-3.65-11.67-4.15-13.75-.41-1.58.05-2.58,1.53-2.58h.5V85.3s-3.43.13-5.56.13m7.37,2.8h.63a1.63,1.63,0,0,1,1.68.84c.49.68.77,3.18.07,5.78,2.92.37,7.42-2,6.6-9.53,0,0-2.51.11-4.3.11s-4.68-.13-4.68-.13c0,1.13,0,1.79,0,2.93m-38.7-2.88a7.7,7.7,0,0,1,2.85,5.33c0,1.77.09,8.13,0,10.21s-.55,2.49-2.4,2.54h-.85v3c.31,0,4.11-.13,6.36-.13s5.74.13,6.33.13v-3h-.82c-1.76,0-2.39-.41-2.48-2.58s0-14.82,0-15.63c-2,.09-6.68.13-9,.13m70.52,0v2.89h.68c2.17,0,2.44,1,2.54,2.76s.08,7.23,0,9.58c-.1,2.13-.55,2.82-2.4,2.85h-.86v3c.32,0,4.07-.14,6.33-.14s5.69.14,6.24.14v-3h-.77c-1.72,0-2.4-.72-2.4-2.89V85.21c-1.76.13-7.32.13-9.36.13M81.21,89.22a2.7,2.7,0,0,0,.22,1.43A8.15,8.15,0,0,1,86.77,89c3.93,0,4.9,2.38,4.8,5.58s-.09,5.46-.08,6.18a13.57,13.57,0,0,0,.24,2.54c.44,2.37,1.91,3.7,5,3.7,2.92,0,4.38-2.07,3.41-4.49a1.46,1.46,0,0,1-1.47,1.19c-.67-.07-1-.45-1-2.57V93.38c0-5.33-1.9-8.68-8.73-8.68-4.52,0-7.37,1.5-7.73,4.51m71,0a2.61,2.61,0,0,0,.23,1.43A8.12,8.12,0,0,1,157.73,89c3.94,0,4.91,2.38,4.8,5.58s-.09,5.46-.07,6.18a12.77,12.77,0,0,0,.23,2.54c.44,2.37,1.92,3.7,5,3.7,2.92,0,4.38-2.07,3.42-4.49a1.47,1.47,0,0,1-1.47,1.19c-.68-.07-1-.45-1-2.57V93.38c0-5.33-1.9-8.68-8.72-8.68-4.53,0-7.37,1.5-7.74,4.51M184.05,89a3.92,3.92,0,0,1,3.06-.89c2.62,0,3.43,2.08,3.57,5.47q.13,3.87,0,7c-.09,2.08-.73,2.85-2.35,2.85h-.73v3c.27,0,3.94-.14,6.15-.14s5.65.14,6.19.14c0-.32,0-2.35,0-3h-.59c-1.95,0-2.44-.72-2.53-2.89,0-1.76,0-4.79,0-7.43.09-5.06-1.85-8.41-7-8.41-2.79,0-5.22,1.28-5.72,4.25M61.25,75.1s.12,1.61.16,3.56c.14,5.61.14,19.12,0,21.33-.09,1.76-.77,2.81-2.8,2.81H56.45v3.58s5.37-.09,8.35-.09,8.36.09,8.36.09v-3.6h-2.3c-2.08,0-2.58-1.08-2.67-2.81-.13-2.21,0-20.84,0-21.32.06-2,.17-3.57.17-3.57Zm-11.09,12c.41,0,3.44,0,3.8,0l.18-4.2c.15-2.61,1.17-4.25,4.38-4.25H59.8c0-2-.15-3.56-.15-3.56h-2c-4,0-6.14,0-7.72-.18.22,2.93.36,9.26.22,12.19M72,75.1h-2s-.12,1.61-.17,3.56h1.37c3.21,0,4.24,1.64,4.38,4.25l.18,4.2c.36,0,3.33,0,3.71,0-.14-2.93,0-9.26.22-12.19-1.67.13-3.25.18-7.63.18M104.92,78a3.49,3.49,0,0,0,3.61,3.71,3.68,3.68,0,1,0,0-7.36A3.49,3.49,0,0,0,104.93,78"/><g class="cls-4"><rect class="cls-3" x="49.94" y="74.38" width="150.01" height="32.72"/></g><polygon class="cls-3" points="83.21 119.51 83.21 125.5 82.24 125.5 82.24 119.51 80.17 119.51 80.17 118.63 85.28 118.63 85.28 119.51 83.21 119.51"/><polygon class="cls-3" points="90.6 125.5 90.6 122.34 87.41 122.34 87.41 125.5 86.45 125.5 86.45 118.63 87.41 118.63 87.41 121.46 90.6 121.46 90.6 118.63 91.56 118.63 91.56 125.5 90.6 125.5"/><polygon class="cls-3" points="93.22 125.5 93.22 118.63 97.49 118.63 97.49 119.5 94.18 119.5 94.18 121.43 96.53 121.43 96.53 122.3 94.18 122.3 94.18 124.62 97.69 124.62 97.69 125.5 93.22 125.5"/><polygon class="cls-3" points="106.01 125.5 106.01 122.34 102.83 122.34 102.83 125.5 101.86 125.5 101.86 118.63 102.83 118.63 102.83 121.46 106.01 121.46 106.01 118.63 106.97 118.63 106.97 125.5 106.01 125.5"/><polygon class="cls-3" points="108.63 125.5 108.63 118.63 112.9 118.63 112.9 119.5 109.6 119.5 109.6 121.43 111.95 121.43 111.95 122.3 109.6 122.3 109.6 124.62 113.09 124.62 113.09 125.5 108.63 125.5"/><path class="cls-3" d="M118.49,125.5l-.61-1.87h-2.59l-.6,1.87h-1l2.31-6.88h1.16l2.3,6.88Zm-1.89-5.89h0l-1,3.17h2.06Z"/><path class="cls-3" d="M124.54,125.5l-1.39-2.93H121.6v2.93h-1v-6.87h2.5c1.66,0,2.44.75,2.44,2a1.82,1.82,0,0,1-1.42,1.84l1.47,3.07Zm-1.45-6H121.6v2.27h1.46c1,0,1.53-.3,1.53-1.17s-.52-1.1-1.49-1.1"/><polygon class="cls-3" points="129.36 119.51 129.36 125.5 128.4 125.5 128.4 119.51 126.33 119.51 126.33 118.63 131.44 118.63 131.44 119.51 129.36 119.51"/><path class="cls-3" d="M138.15,125.62c-1.78,0-2.93-1.38-2.93-3.56s1.15-3.56,2.93-3.56,2.92,1.38,2.92,3.56-1.14,3.56-2.92,3.56m0-6.27c-1.21,0-2,1-2,2.71s.74,2.72,2,2.72,1.94-1,1.94-2.72-.74-2.71-1.94-2.71"/><polygon class="cls-3" points="143.39 119.5 143.39 121.58 145.56 121.58 145.56 122.45 143.39 122.45 143.39 125.5 142.42 125.5 142.42 118.63 146.52 118.63 146.52 119.5 143.39 119.5"/><path class="cls-3" d="M154.72,125.5l-.62-1.87h-2.58l-.6,1.87h-1l2.31-6.88h1.16l2.3,6.88Zm-1.89-5.89h0l-1,3.17h2Z"/><path class="cls-3" d="M158.93,125.62a2.41,2.41,0,0,1-2.56-1.73l.88-.29a1.63,1.63,0,0,0,1.71,1.21c.91,0,1.48-.42,1.48-1.09s-.39-.93-1.58-1.29c-1.46-.47-2.27-.86-2.27-2.07a2,2,0,0,1,2.26-1.86,2.31,2.31,0,0,1,2.37,1.47l-.84.35a1.54,1.54,0,0,0-1.52-1c-.84,0-1.31.44-1.31,1s.37.86,1.59,1.25c1.6.48,2.26,1,2.26,2.13s-1,2-2.46,2"/><rect class="cls-3" x="162.89" y="118.63" width="0.97" height="6.87"/><path class="cls-3" d="M169.93,125.5l-.61-1.87h-2.59l-.6,1.87h-1l2.31-6.88h1.16l2.3,6.88ZM168,119.61h0l-1,3.17h2.05Z"/></svg>