<svg id="Layer_1" data-name="Layer 1" xmlns="http://www.w3.org/2000/svg" viewBox="0 0 250 200"><defs><style>.cls-1{fill:#1b242f;}.cls-2{fill:#fff;}</style></defs><rect class="cls-1" width="250" height="200"/><path class="cls-2" d="M86.73,100.48A7.29,7.29,0,0,0,94,107.75a7.42,7.42,0,0,0,2.51-.45V93.67A7.27,7.27,0,0,0,87.18,98a7.36,7.36,0,0,0-.45,2.5"/><path class="cls-2" d="M81.29,100.48A12.68,12.68,0,0,1,96.52,88V77.46l-30.47,23,30.47,23.26v-10.8a12.72,12.72,0,0,1-15.23-12.45"/><polygon class="cls-2" points="64.28 77.22 64.28 95 87.81 77.22 64.28 77.22"/><polygon class="cls-2" points="50 112.6 50 123.74 58.84 123.74 58.84 105.92 50 112.6"/><polygon class="cls-2" points="50 105.78 57.06 100.45 50 95.07 50 105.78"/><polygon class="cls-2" points="87.57 123.74 64.28 105.97 64.28 123.74 87.57 123.74"/><polygon class="cls-2" points="50 77.22 50 88.22 58.84 94.97 58.84 77.22 50 77.22"/><path class="cls-2" d="M97.14,121.8a2,2,0,1,1,2,2,2,2,0,0,1-2-2h0m3.71,0a1.74,1.74,0,1,0-1.73,1.74,1.73,1.73,0,0,0,1.73-1.74h0m-.75,1.11h-.32l-.63-1h-.5v1h-.27V120.7h1a.93.93,0,0,1,.54.11.54.54,0,0,1,.24.48c0,.43-.31.59-.7.6Zm-1-1.23c.31,0,.79,0,.79-.4s-.3-.39-.58-.39h-.63v.79Z"/><polygon class="cls-2" points="102.33 91.94 106.61 91.94 110.81 103.07 110.85 103.07 115.12 91.94 119.13 91.94 112.12 108.93 109.12 108.93 102.33 91.94"/><rect class="cls-2" x="122.02" y="91.94" width="3.74" height="16.99"/><path class="cls-2" d="M137.69,96.28a3.48,3.48,0,0,0-2.58-1.07c-1,0-2.39.46-2.39,1.67,0,3,7.45,1.06,7.45,6.72,0,3.62-2.9,5.33-6.24,5.33a7.63,7.63,0,0,1-5.43-2L131,104.1a4,4,0,0,0,3.11,1.53c1.17,0,2.47-.54,2.47-1.68,0-3-7.59-1.37-7.59-6.75,0-3.45,3-5.26,6.17-5.26a7.35,7.35,0,0,1,5,1.67Z"/><rect class="cls-2" x="143.19" y="91.94" width="3.74" height="16.99"/><polygon class="cls-2" points="155.14 95.25 150.3 95.25 150.3 91.94 163.74 91.94 163.74 95.25 158.89 95.25 158.89 108.93 155.14 108.93 155.14 95.25"/><polygon class="cls-2" points="169.86 91.94 173.6 91.94 173.6 98.99 180.2 91.94 185.09 91.94 177.54 99.83 185.74 108.93 180.51 108.93 173.6 100.86 173.6 108.93 169.86 108.93 169.86 91.94"/><path class="cls-2" d="M196.86,96.55a3.88,3.88,0,0,0-3.08-1.33c-2.7,0-4.69,2.2-4.69,5.23s2,5.22,4.58,5.22a3.88,3.88,0,0,0,3.35-1.74l3,2.23a7.08,7.08,0,0,1-5.87,2.82c-5.07,0-8.76-3.32-8.76-8.52s3.69-8.53,8.76-8.53a7,7,0,0,1,5.48,2.39Z"/></svg>