<svg xmlns="http://www.w3.org/2000/svg" viewBox="0 0 540.9 50.3"><path d="M6.5 28.6H0l.8-5h6.5L8.7 16H2.2l.9-5h6.4l2-11H17l-1.9 10.9h7.5L24.5 0H30l-1.9 10.9h6.6l-.8 5h-6.6l-1.4 7.6h6.5l-.8 5H25l-1.7 10.2h-5.6l1.7-10.2H12l-1.8 10.2H4.8l1.7-10.1zm13.9-5l1.4-7.6h-7.5l-1.4 7.6h7.5zM47 33.4h4.6V5.7h-7.3v5.8h-6.1V0h34v11.6h-6.1V5.7h-7.4v27.7h4.7v5.4H47v-5.4zm29 .2h4V17.3c0-.8-.4-1.2-1.2-1.2h-3.1v-5.2H83c2.5 0 3.7 1 3.7 3.4V16c0 1-.1 1.7-.1 1.7h.1c1.3-4 4.6-7.2 8.8-7.2.7 0 1.3.1 1.3.1v6.8s-.7-.1-1.7-.1c-5.6 0-8.1 4.9-8.1 10.2v6.1h4v5.2H76v-5.2zm39-12h1.7v-.9c0-3.6-2.2-4.8-5.1-4.8-4.2 0-7.9 2.7-7.9 2.7l-2.6-4.8s4.3-3.4 11-3.4c7.5 0 11.5 3.9 11.5 11v11.1c0 .8.4 1.2 1.2 1.2h2.5v5.2h-6.6c-2.6 0-3.6-1.4-3.6-2.9v-.3c0-.9.2-1.4.2-1.4h-.1s-2.3 5.4-8.8 5.4c-4.8 0-9.2-2.8-9.2-8.5.1-8.7 11.3-9.6 15.8-9.6zm-4.6 12.7c3.8 0 6.4-4 6.4-7.5v-.9h-1.1c-2.7 0-9.3.4-9.3 4.6-.1 2 1.4 3.8 4 3.8zm18.1-23.4h13.4v5.2h-3.1l4.8 13.8c.5 1.4.7 3.1.7 3.1h.2s.2-1.6.7-3.1l4.9-13.8h-3.2v-5.2h13.4v5.2H157l-8.5 22.7h-8L132 16.1h-3.4v-5.2zm48.3-.6c8 0 12.4 5.8 12.4 13.2 0 .8-.2 2.3-.2 2.3h-19.3c.4 5.1 4.2 7.8 8.4 7.8 4.5 0 8.1-2.9 8.1-2.9l2.7 4.9s-4.3 3.9-11.3 3.9c-9.2 0-15-6.7-15-14.6 0-8.6 5.8-14.6 14.2-14.6zm5.2 11.4c-.1-3.8-2.5-6.1-5.4-6.1-3.6 0-6.1 2.5-6.7 6.1H182zm13.3-16.5H191V0h11.2v29.5c0 2.5.5 3.8 2.8 3.8.8 0 1.3-.1 1.3-.1v5.6s-1.1.2-2.5.2c-4.4 0-8.5-1.5-8.5-9.1V5.2zm15.5 28.2h4.6v-28h-4.6V0h17.1c2.8 0 5.2.2 7.4.8 4.3 1.4 7.2 4.9 7.2 10.4 0 5.4-2.8 9.2-7.3 10.8v.1s1.1.6 1.9 2l4.5 8.1c.5 1 1.3 1.3 2.6 1.3h1.3v5.4H241c-3.2 0-4.2-.7-5.4-2.9l-5.5-10c-.8-1.5-1.5-2-3.8-2h-3.6v9.5h4.5v5.4h-16.3v-5.5zM229 18.2c3.8 0 6.2-2.2 6.2-6.4 0-2.5-.9-4.5-3.1-5.4-1.1-.5-2.6-.7-4.4-.7h-5.2v12.5h6.5zm33.8-7.9c8 0 12.4 5.8 12.4 13.2 0 .8-.2 2.3-.2 2.3h-19.3c.4 5.1 4.2 7.8 8.4 7.8 4.5 0 8.1-2.9 8.1-2.9l2.7 4.9s-4.3 3.9-11.3 3.9c-9.2 0-15-6.7-15-14.6 0-8.6 5.8-14.6 14.2-14.6zm5.2 11.4c-.1-3.8-2.5-6.1-5.4-6.1-3.6 0-6.1 2.5-6.7 6.1H268zm11.1 7.8h5.9v1.6c0 1.9 2.6 2.9 5.5 2.9 2.8 0 4.8-1 4.8-2.8 0-2.3-2.6-3-6.3-4.3-4.1-1.4-8.8-3.3-8.8-8.6 0-5.9 5.9-8 11-8 4 0 10.1 1.6 10.1 5.8v3.6h-6V18c0-1.4-1.6-2.3-4.1-2.3-2.2 0-4 .8-4 2.5 0 2.3 2.7 3.2 5.8 4.2 4.3 1.4 9.3 3.1 9.3 8.6 0 5.6-5.4 8.5-11.7 8.5-5.1 0-11.3-2.2-11.3-6.7v-3.3zm30.9 15V17.3c0-.8-.4-1.2-1.2-1.2h-3.1v-5.2h7.2c2.6 0 3.4 1.2 3.4 2.6v.2c0 .7-.1 1.3-.1 1.3h.1s2.4-4.7 9-4.7c7.5 0 12.3 6 12.3 14.6 0 8.8-5.4 14.6-12.7 14.6-5.5 0-8-3.9-8-3.9h-.1s.2 1 .2 2.4v6.6h4v5.2h-15v-5.2h4zm13.7-10.9c3.8 0 7-3.1 7-8.6 0-5.3-2.8-8.7-6.9-8.7-3.6 0-7 2.6-7 8.8 0 4.2 2.4 8.5 6.9 8.5zm33.1-23.3c8.5 0 15.4 6.1 15.4 14.6 0 8.6-6.8 14.6-15.3 14.6s-15.3-6-15.3-14.6c-.1-8.6 6.7-14.6 15.2-14.6zm.1 23.2c4.5 0 8.2-3.5 8.2-8.7 0-5.1-3.8-8.7-8.2-8.7-4.5 0-8.3 3.6-8.3 8.7 0 5.2 3.7 8.7 8.3 8.7zm19.6.1h4V17.3c0-.8-.4-1.2-1.2-1.2h-3.1v-5.2h7.3c2.5 0 3.6 1.1 3.6 3.1v1.3c0 .6-.1 1.2-.1 1.2h.1c.3-.9 3.3-6.2 10.3-6.2 6 0 9.3 3.2 9.3 10.6v12.7h4v5.2h-10.9V22.3c0-3.4-.9-5.7-4.4-5.7-5 0-8 4.8-8 9.7v7.3h4v5.2h-15v-5.2zm37.5-4.1h5.9v1.6c0 1.9 2.6 2.9 5.5 2.9 2.8 0 4.8-1 4.8-2.8 0-2.3-2.6-3-6.3-4.3-4.1-1.4-8.8-3.3-8.8-8.6 0-5.9 5.9-8 11-8 4 0 10.1 1.6 10.1 5.8v3.6h-6V18c0-1.4-1.6-2.3-4.1-2.3-2.2 0-4 .8-4 2.5 0 2.3 2.7 3.2 5.8 4.2 4.3 1.4 9.3 3.1 9.3 8.6 0 5.6-5.4 8.5-11.7 8.5-5.1 0-11.3-2.2-11.3-6.7v-3.3zm27.5 4.1h4V16.1h-4.3v-5.2h11.3v22.7h4v5.2h-15v-5.2zm4-33.6h7v6.2h-7V0zm17 5.2h-4.3V0h11.2v12.1c0 1.4-.1 2.3-.1 2.3h.1s2.5-4.2 8.4-4.2c7.5 0 12.4 6 12.4 14.6 0 8.8-5.5 14.6-12.8 14.6-6.1 0-8.3-4.4-8.3-4.4h-.1s.1 1 .1 2.1v1.7h-6.6V5.2zm13.6 28.4c3.8 0 7-3.1 7-8.6 0-5.3-2.8-8.7-6.9-8.7-3.6 0-7 2.6-7 8.8 0 4.2 2.3 8.5 6.9 8.5zm20.1-28.4h-4.3V0h11.2v29.5c0 2.5.5 3.8 2.8 3.8.8 0 1.3-.1 1.3-.1v5.6s-1.1.2-2.5.2c-4.4 0-8.5-1.5-8.5-9.1V5.2zm19.9 39.4c2.2 0 4-1.2 4.9-3.2l.8-1.7-9.6-23.5h-3.3V11h13.7v5.2h-3.3l5.1 14.1c.5 1.4.6 2.9.6 2.9h.2s.2-1.5.8-2.9l5-14.1h-3.2V11H541v5.2h-3.2l-10.3 26.3c-2.1 5.5-6.3 7.9-11 7.9-4 0-6.8-1.9-6.8-1.9l2.2-5.1c0-.1 1.6 1.2 4.2 1.2z" fill="#fff"/></svg>