<svg xmlns="http://www.w3.org/2000/svg" viewBox="0 0 369.3 208"><path d="M90.5 0h2.2l24.4 51.4H104l-2.5-5.1H81.8l-2.4 5.1H66.3L90.5 0zm6.8 37.6L91.6 25h-.2l-5.8 12.6h11.7zm40.4-35.9h20.8c10.7 0 17.7 6.5 17.7 15.8 0 8.7-4.4 13.6-11.8 15.4l13.4 18.5h-15.3l-12.7-18.6v18.6h-12.2V1.7zm22 21.5c2.7 0 4.6-2.8 4.6-5.7 0-2.9-2.2-5.5-4.9-5.5h-9.5v11.2h9.8zm20.4-21.5H213v10.8h-20.7v9h19.2V32h-19.2v9H214v10.5h-33.9V1.7zM239.4 0h2.2L266 51.4h-13.1l-2.5-5.1h-19.7l-2.4 5.1h-13.1L239.4 0zm6.8 37.6L240.5 25h-.2l-5.8 12.6h11.7zm23-35.9h12.2V41H303v10.5h-33.9V1.7zM0 79.1h20.8c10.7 0 17.7 6.5 17.7 15.8 0 8.7-4.4 13.6-11.8 15.4l13.4 18.5H24.9l-12.7-18.6v18.6H0V79.1zm22 21.6c2.7 0 4.6-2.8 4.6-5.7s-2.2-5.5-4.9-5.5h-9.5v11.2H22zm20.4-21.6h32.9v10.8H54.6v9h19.2v10.6H54.6v9h21.7V129H42.4V79.1zm65.1-1.7c9.5 0 16 3.6 21.3 9.1l-8.4 8c-3.5-3.4-8-5.6-12.9-5.6-8.9 0-14.6 6.6-14.6 15s5.7 15 14.6 15c5 0 9.5-2.2 12.9-5.6l8.1 8c-5 5.2-11.9 9.1-21.1 9.1-15.8 0-27-11.7-27-26.6.2-14.7 11.4-26.4 27.1-26.4zm25.2 1.7h12.2v19.6h19.5V79.1h12.1v49.8h-12.1v-19.7h-19.5v19.7h-12.2V79.1zm71.3-1.7h2.2l24.4 51.4h-13.1l-2.5-5.1h-19.7l-2.4 5.1h-13.1L204 77.4zm6.8 37.6l-5.7-12.6h-.2l-5.8 12.6h11.7zm22.9-35.9h20.8c10.7 0 17.7 6.5 17.7 15.8 0 8.7-4.4 13.6-11.8 15.4l13.4 18.5h-15.3l-12.7-18.6v18.6h-12.2V79.1zm22 21.6c2.7 0 4.6-2.8 4.6-5.7s-2.2-5.5-4.9-5.5h-9.5v11.2h9.8zm47.2-23.3c9.2 0 15.6 3.4 20.8 8.7l-8.5 7.8c-3.4-3.1-7.6-5-12.4-5-8.9 0-14.6 6.6-14.6 15 0 9.2 6.6 15 14.9 15 8.7 0 12.9-4.8 13.3-9.6h-14.2V98.9h27.4v4.7c0 14.7-8.6 27-26.7 27-15.8 0-27-11.7-27-26.6 0-14.9 11.2-26.6 27-26.6zm32.6 1.7h32.9v10.8h-20.7v9h19.2v10.6h-19.2v9h21.7V129h-33.9V79.1zM81.9 191.7c0 2.9 2.3 5.2 5.1 5.2 3.1 0 5-1.7 5-4.3 0-3.7-4.9-4.8-9-6.2-8.4-3-13-6.9-13-15.4 0-8.8 7.6-16.1 16.9-16.1 11 0 16.3 7.1 16.9 16.3H92.4c0-2.8-1.7-5.1-5.1-5.1-2.7 0-5.2 1.6-5.2 4.8 0 3.7 4.6 4.4 8.8 5.6 8.9 2.7 13 7.6 13 15.4 0 8.8-7.5 16.1-16.8 16.1-10.9 0-17-7.3-17-16.3h11.8zm36.1-24.4h-11.1v-10.8h34.7v10.8h-11.3v39H118v-39zm41.2-12.4h2.2l24.4 51.4h-13.1l-2.5-5.1h-19.7l-2.4 5.1H135l24.2-51.4zm6.8 37.6l-5.7-12.6h-.2l-5.8 12.6H166zm23-36h20.8c10.7 0 17.7 6.5 17.7 15.8 0 8.7-4.4 13.6-11.8 15.4l13.4 18.5h-15.3l-12.7-18.6v18.6H189v-49.7zm22 21.6c2.7 0 4.6-2.8 4.6-5.7s-2.2-5.5-4.9-5.5h-9.5v11.2h9.8zm28.4-10.8h-11.1v-10.8H263v10.8h-11.3v39h-12.3v-39zm37.9 24.4c0 2.9 2.3 5.2 5.1 5.2 3.1 0 5-1.7 5-4.3 0-3.7-4.9-4.8-9-6.2-8.4-3-13-6.9-13-15.4 0-8.8 7.6-16.1 16.9-16.1 11 0 16.3 7.1 16.9 16.3h-11.5c0-2.8-1.7-5.1-5.1-5.1-2.7 0-5.2 1.6-5.2 4.8 0 3.7 4.6 4.4 8.8 5.6 8.9 2.7 13 7.6 13 15.4 0 8.8-7.5 16.1-16.8 16.1-10.9 0-17-7.3-17-16.3h11.9z" fill="#099aad"/></svg>