<svg xmlns="http://www.w3.org/2000/svg" viewBox="0 0 296.6 211.4"><path d="M0 15.2h15.8v4.3h-5.7l8 25.7c.5 1.4.6 3 .6 3h.2s.2-1.6.6-3l9.6-29.8h5.1l9.6 29.8c.4 1.4.6 3 .6 3h.2s.2-1.6.5-3l8.1-25.7h-5.7v-4.3h15.8v4.3h-4.9l-10.9 34h-5.6l-9.4-28.7c-.5-1.4-.7-3-.7-3h-.2s-.2 1.7-.7 3l-9.4 28.7h-5.6L5 19.5H0v-4.3zm67.5 34H74V19.5h-6.8v-4.3h12v34h6.5v4.3H67.5v-4.3zM73.6 0h5.9v6.5h-5.9V0zm22.1 19.5h-6.8v-4.3h6.9V4.6h5.1v10.6h9.7v4.3h-9.7v19.6c0 9 5.7 10.2 8.7 10.2 1.1 0 1.7-.2 1.7-.2v4.5s-.9.2-2.2.2c-4.4 0-13.4-1.4-13.4-14.2V19.5zm19.8 29.7h6.5V4.3h-6.8V0h12v21c0 1.7-.3 3.1-.3 3.1h.2c1.5-3.6 6.7-9.8 15.4-9.8 9.4 0 12.8 5.4 12.8 14.8v20.1h6.5v4.3H150v-23c0-6-.9-11.3-8.3-11.3-8.2 0-14.5 6.8-14.5 16v14.1h6.5v4.3h-18.1v-4.4zm75-29.7h-6.8v-4.3h6.9V4.6h5.1v10.6h9.7v4.3h-9.7v19.6c0 9 5.7 10.2 8.7 10.2 1.1 0 1.7-.2 1.7-.2v4.5s-.9.2-2.2.2c-4.4 0-13.4-1.4-13.4-14.2V19.5zm19.8 29.7h6.5V4.3H210V0h12v21c0 1.7-.3 3.1-.3 3.1h.2c1.5-3.6 6.7-9.8 15.4-9.8 9.4 0 12.8 5.4 12.8 14.8v20.1h6.5v4.3h-11.7v-23c0-6-.9-11.3-8.3-11.3-8.2 0-14.5 6.8-14.5 16v14.1h6.5v4.3h-18.1v-4.4zm70.2-34.9c10.6 0 16 8.1 16 17.6 0 .9-.2 2.4-.2 2.4H267c.2 9.8 6.9 15.4 14.8 15.4 7 0 11.6-4.6 11.6-4.6l2.4 3.9s-5.5 5.3-14.1 5.3c-11.4 0-20-8.2-20-20 0-12.5 8.5-20 18.8-20zm10.7 16.3c-.3-8.1-5.2-11.9-10.8-11.9-6.4 0-11.9 4.2-13.2 11.9h24zM63.8 120.2h5.9V92.1c0-1.1-.6-1.7-1.7-1.7h-5.2v-4.3H70c3.2 0 4.6 1.3 4.6 4.3V93c0 1.6-.2 2.9-.2 2.9h.2c1.9-5.8 6.2-10.2 12.1-10.2 1.1 0 2.1.2 2.1.2V91s-1-.2-2-.2c-8.6 0-12.1 9.7-12.1 17.3V120h5.9v4.3h-17v-4.1zm29.9 0h6.5V90.4h-6.8v-4.3h12v34h6.5v4.3H93.7v-4.2zM99.9 71h5.9v6.5h-5.9V71zm33.4 64.8c7.5 0 13.4-3.5 13.4-12.1v-3.8c0-1.4.2-2.7.2-2.7h-.2c-2.3 4.3-6.2 7-12.2 7-10.3 0-17-8.1-17-19.6s6.3-19.3 16.6-19.3c5.4 0 10.8 2.1 12.9 6.8h.2s-.2-.5-.2-1.7c0-2.8 1.1-4.2 4.4-4.2h6.8v4.3h-4.7c-1.1 0-1.7.5-1.7 1.6v31.5c0 12.2-9 16.9-18.4 16.9-4.3 0-8.7-1.1-12.5-3l2-4.2c0-.1 4.7 2.5 10.4 2.5zm13.4-31.2c0-11.2-5.3-14.7-12.1-14.7-7.5 0-11.8 5.5-11.8 14.6 0 9.2 4.9 15.1 12.5 15.1 6.1 0 11.4-3.8 11.4-15zm15.9 15.6h6.5v-45h-6.8V71h12v21c0 1.7-.3 3.1-.3 3.1h.2c1.5-3.6 6.7-9.8 15.4-9.8 9.4 0 12.8 5.4 12.8 14.8v20.1h6.5v4.3h-11.7v-23c0-6-.9-11.3-8.3-11.3-8.2 0-14.5 6.8-14.5 16v14.1h6.5v4.3h-18.1v-4.4zm55.5-29.8h-6.8v-4.3h6.9V75.6h5.1v10.6h9.7v4.3h-9.7v19.6c0 9 5.7 10.2 8.7 10.2 1.1 0 1.7-.2 1.7-.2v4.5s-.9.2-2.2.2c-4.4 0-13.4-1.4-13.4-14.2V90.4zM43.9 156.2c10.6 0 16 8.1 16 17.6 0 .9-.2 2.4-.2 2.4H30.4c.2 9.8 6.9 15.4 14.8 15.4 7 0 11.6-4.6 11.6-4.6l2.4 3.9s-5.5 5.3-14.1 5.3c-11.4 0-20-8.2-20-20 0-12.4 8.5-20 18.8-20zm10.7 16.3c-.3-8.1-5.2-11.9-10.8-11.9-6.4 0-11.9 4.2-13.2 11.9h24zm10.5 18.7h6.5v-28.1c0-1.1-.6-1.7-1.7-1.7h-5.2v-4.3H72c3.2 0 4.6 1.4 4.6 4.3v2.2c0 1.5-.3 2.7-.3 2.7h.2c1.1-2.9 6-10.1 15.6-10.1 9.4 0 12.7 5.4 12.7 14.8v20.1h6.5v4.3H99.6v-23c0-6-1-11.3-8.4-11.3-8.4 0-14.5 7.5-14.5 15.9v14.1h6.5v4.3H65.1v-4.2zm68.2-35c10.6 0 16 8.1 16 17.6 0 .9-.2 2.4-.2 2.4h-29.4c.2 9.8 6.9 15.4 14.8 15.4 7 0 11.6-4.6 11.6-4.6l2.4 3.9s-5.5 5.3-14.1 5.3c-11.4 0-20-8.2-20-20 .1-12.4 8.6-20 18.9-20zm10.7 16.3c-.3-8.1-5.2-11.9-10.8-11.9-6.4 0-11.9 4.2-13.2 11.9h24zm10.9 18.7h5.9v-28.1c0-1.1-.6-1.7-1.7-1.7h-5.2v-4.3h7.2c3.2 0 4.6 1.3 4.6 4.3v2.6c0 1.6-.2 2.9-.2 2.9h.2c1.9-5.8 6.2-10.2 12.1-10.2 1.1 0 2.1.2 2.1.2v5.1s-1-.2-2-.2c-8.6 0-12.1 9.7-12.1 17.3V191h5.9v4.3h-17v-4.1zm43.7 15.6c7.5 0 13.4-3.5 13.4-12.1v-3.8c0-1.4.2-2.7.2-2.7h-.2c-2.3 4.3-6.2 7-12.2 7-10.3 0-17-8.1-17-19.6 0-11.5 6.3-19.3 16.6-19.3 5.4 0 10.8 2.1 12.9 6.8h.2s-.2-.5-.2-1.7c0-2.8 1.1-4.2 4.4-4.2h6.8v4.3h-4.7c-1.1 0-1.7.5-1.7 1.6v31.5c0 12.2-9 16.9-18.4 16.9-4.3 0-8.7-1.1-12.5-3l2-4.2c0-.1 4.8 2.5 10.4 2.5zm13.4-31.2c0-11.2-5.3-14.7-12.1-14.7-7.5 0-11.8 5.5-11.8 14.6 0 9.2 4.9 15.1 12.5 15.1 6.1-.1 11.4-3.8 11.4-15zm21.6 31.2c3.4 0 5.9-2.7 7.3-6.1l2.1-5.1-13.7-34.2h-5v-4.3h16v4.3h-5.6l10 26.1c.5 1.4.6 2.7.6 2.7h.2s.2-1.3.8-2.7l10-26.1H251v-4.3h15.8v4.3h-5l-16.3 41.1c-2.2 5.5-6.4 8.9-11.7 8.9-4.3 0-7.2-2.3-7.2-2.3l2-4.1c-.1 0 2.2 1.8 5 1.8zm31.8-17.7h6.2v6.3h-6.2v-6.3z" fill="#099aad"/></svg>