<svg xmlns="http://www.w3.org/2000/svg" viewBox="0 0 786.9 850"><path fill="#fdd109" d="M136 1.4h476.8L507.5 249.5l105.3 402.8H136l115.3-404.9z"/><path d="M733.7 692.5c0-14.4 11.6-25.4 25.7-25.4 13.7 0 25.7 10.6 25.7 25.4 0 14.8-11.6 25.4-25.7 25.4-13.7-.1-25.7-10.6-25.7-25.4zm25.7 21.1c11.6 0 20.4-9.2 20.4-21.1 0-12-9.2-21.1-20.4-21.1-11.6 0-20.8 9.2-20.8 21.1.4 12.3 9.2 21.1 20.8 21.1zm-5.3-6.3h-4.6V678h11.3c7 0 10.2 2.8 10.2 8.5 0 5.3-3.2 7.4-7.4 8.1l8.1 12.7h-4.9l-7.8-12.7h-4.9v12.7zm5.3-16.6c3.9 0 7-.4 7-4.6 0-3.5-3.2-4.2-6.3-4.2h-6v9.2l5.3-.4zM380.9 97.3c26.8 0 48.6-21.8 48.6-48.6S407.7 0 380.9 0s-48.6 21.8-48.6 48.6 21.5 48.7 48.6 48.7z"/><path d="M379.9 241L524.7 1.4h127.9C605.4 84.2 556.1 167 507.5 249.5l233.6 402.8H613.9l-233-394.7-238.5 394.7H19S176.2 383.8 250.9 247L111 1.4h126.9l142 239.6z" fill="#e63840"/><path d="M505.7 652.3H255.1l125.1-209.7zM93 733l65.5-49.3h113.8l-101.1 69.1c32.1 31 65.9 59.2 99.4 89.2H153.3L93 781.6l-.7 60.3H0V683.3l93 .4V733zm599.5-49.3H570.9l-96.6 157.9h108.9l14.8-24.7 68.7-.4 16.2 25 104 .4-94.4-158.2zm-75.8 93l14.4-32.1 14.1 32.1h-28.5z"/><path d="M373.9 677.3c-68.4 0-124 38.8-124 86.3 0 47.6 55.3 86.3 124 86.3 68.4 0 124-38.8 124-86.3.4-47.5-55.3-86.3-124-86.3zm0 122c-15.9 0-28.5-15.9-28.5-35.6s12.7-35.6 28.5-35.6c15.9 0 28.5 15.9 28.5 35.6s-12.6 35.6-28.5 35.6z"/></svg>