<svg xmlns="http://www.w3.org/2000/svg" viewBox="0 0 314.2 340.6"><path d="M294.4 340.6c10.9 0 19.7-9 19.7-20.2V20.1C314.2 9 305.3 0 294.4 0H19.7C8.8 0 0 9 0 20.1v300.3c0 11.1 8.8 20.2 19.7 20.2h274.7z" fill="#fdd109"/><path d="M270.7 254.9c0-4.7 3.8-8.1 8.3-8.1 4.5 0 8.3 3.4 8.3 8.1 0 4.7-3.8 8.2-8.3 8.2-4.5 0-8.3-3.4-8.3-8.2zm8.3 6.9c3.7 0 6.6-2.9 6.6-6.8 0-3.8-2.9-6.8-6.6-6.8-3.7 0-6.7 2.9-6.7 6.8s2.9 6.8 6.7 6.8zm-1.8-2.1h-1.4v-9.4h3.6c2.2 0 3.3.9 3.3 2.7 0 1.7-1.1 2.4-2.4 2.6l2.7 4.1h-1.6l-2.5-4.1h-1.6v4.1zm1.7-5.3c1.2 0 2.3-.1 2.3-1.5 0-1.2-1.1-1.4-2.1-1.4h-1.9v2.9h1.7zM156.8 62.9c8.7 0 15.7-7.1 15.7-15.7 0-8.7-7-15.7-15.7-15.7s-15.7 7-15.7 15.7c0 8.6 7.1 15.7 15.7 15.7z"/><path d="M156.6 109.3L203.3 32h41.2c-15.2 26.7-31.2 53.4-46.8 80L273 242h-41l-75.2-127.4L79.9 242H40.1s50.7-86.6 74.8-130.7L69.8 32l40.9-.1 45.9 77.4z" fill="#e63840"/><path d="M197.1 241.9l-80.8.1 40.3-67.7zM64 268l21.1-16h36.7l-32.6 22.2c10.4 10 21.3 19.1 32 28.7H83.4L64 283.5l-.2 19.5H34v-51l30 .1V268zm193.4-16h-39.2L187 303h35.1l4.7-8 22.2-.1 5.3 8.1 33.5.1-30.4-51.1zm-24.5 30.1l4.6-10.4 4.5 10.4h-9.1z"/><path d="M154.6 250c-22.1 0-40 12.5-40 27.8 0 15.4 17.9 27.8 40 27.8s40-12.4 40-27.8c.1-15.3-17.9-27.8-40-27.8zm0 39.3c-5.1 0-9.2-5.1-9.2-11.5 0-6.3 4.1-11.5 9.2-11.5s9.2 5.1 9.2 11.5-4.1 11.5-9.2 11.5z"/></svg>