<svg version="1.1" id="Layer_1" xmlns="http://www.w3.org/2000/svg" x="0" y="0" viewBox="0 0 536.8 575.5" xml:space="preserve"><style>.st0{fill:#fff}</style><path class="st0" d="M33.8 91c1.2-7.5 6-26.3 11.6-44.6-13 20-27.8 43.9-36.8 64.5-1 2.3-3.5 2.8-5.7.7-1.8-1.8-3-4.7-3-8.3 0-3.2.8-6.8 2.3-10.5C9.1 76.2 35.3 32.6 52.7 9.1c2-2.7 4.7-3.7 7.8-1.2 4.5 3.8 6.8 8.2 6.8 13.5 0 3-.8 7.1-2.3 12-5.2 15-8.5 25.1-14.5 47.4 17.5-26.4 35.3-42.7 53.7-72 2.2-3.5 4.3-3.7 7.5-.7 3.3 3.5 4.8 7.5 4.8 11.5 0 4.5-1.8 9.1-4 13.6-11.5 21.5-27.9 54.4-36.1 77.7-1.2 3.3-2.7 3.3-5.3 1-2-1.8-3.8-4.7-3.8-9.5 0-2.7.3-5.8 1.3-9.5v.2c2-7.8 10.1-25.3 18.3-41.9-14.6 18.8-30.8 41.2-40.6 59-1.8 3.3-3.3 3.3-5.8 1.5-4.5-3.5-7.3-8-7.3-15 .1-1.7.2-3.6.6-5.7zm107.4-47.8c6 0 9.6 3 11.1 7.3l3.2-5.2c2-3.3 4.8-3.5 6.8-1.2 2.8 3.3 4.3 10.6 0 19.3-4.3 9.1-18.3 27.3-18.3 38.4 0 2.5.7 4 2.3 4 6 0 14.3-11.3 19.8-22.1 1.8-3.3 3.3-3.5 5 0 .7 1.5 1.7 6-.7 10.8-4.3 9.1-15 18-25.1 18-8.3 0-13.1-4.3-14.5-10.5-4.8 4.7-12.3 9.8-19 9.8-9.8 0-15.1-7.2-15.1-17 0-7.1 3-16.5 9-24.8 13.4-19 27-26.8 35.5-26.8zm-5.8 37.3c6.5-11.3 9.5-19.5 9.5-23.8 0-2-.3-3.2-2-3.2-3.3 0-14.8 10.5-23.3 24.1-5 7.8-7.8 16.6-7.8 22 0 3 .7 5 2.3 5 5.5 0 13.2-10.1 21.3-24.1z"/><path class="st0" d="M200.9 46.4c3-2.2 5.8-3.3 8.6-4.3 7.5-2.7 12 0 15.6 7.7 1.3 2.5 2 5.2 2 8 0 4-1.7 8.2-5.8 12.1-5.3 5.2-12.1 9.8-22 13.1.7 12.5 4.7 21.6 9.6 21.6 5.7 0 14.8-11.6 19.5-21.3 2-4 4.2-4.3 5.7-.2.8 2.2.5 6.3-2 10.6-3.2 5.8-11.6 17.8-25.8 17.6-12.3-.2-22.3-9.8-22.3-33.1-4.5 8-9 18.1-14.3 30.6-1.2 2.3-3.8 3.2-5.8.7-1.7-1.8-2.7-4.2-2.7-7.7 0-2.7.5-6.3 2.2-11.1C171 69.5 195 22.6 209.6 2.5c2.7-3.3 5.3-3.3 7.2.2 1 2 1.7 4.2 1.7 6.5-.1 6.4-7.6 19.1-17.6 37.2zm.4 9.6c-5.7 4.3-10.3 10.3-15.3 18.6 4.8-1.7 16.5-6.8 22-11.3 6.7-5.5 9.6-11 8.2-13.1-1.5-2-7.3 0-14.9 5.8z"/><path class="st0" d="M254.8 87c-4 0-8-1.2-11.8-3.7-1 3.3-1.5 6.8-1.5 9.8 0 7.3 3 12.5 8 12.5 12.6 0 23.8-12.3 30.6-22.6 1.8-2.7 4-3 5.3.3.5 1.5.7 6.3-2.3 10.8-7 10.1-20.3 18-33.3 18.1-15.5.2-24-10-24-23.3 0-6 1.7-12.5 5.2-19.1 8.7-17.6 22.1-26.4 31.8-26.4 2.3 0 4.2.3 5.8 1.3 4.7 2.7 8 5.3 10.3 8.7 1 1.5 1.7 4 1.7 6.2 0 9.9-11.1 27.4-25.8 27.4zm-9.4-10c1.3.8 2.5 1.2 3.7 1.2 4 0 9.3-5 12.6-9.5 4.8-6.5 8.3-14.3 6.5-15.8-2.5-2-14.9 8.1-22.8 24.1zm69.5 33.6c-1.2 3.2-2.8 4-5.3 1.8-2.2-1.8-4-6-4-10.1 0-2.5.3-5.3 1.2-8.2 1.8-5.5 5.5-14.1 10.1-23.6.3-19.6 1.5-45.2 4.7-60.5.8-4 2.5-4.3 5.2-2.8 4 2.5 8 9.3 7.6 20.1-.3 9.1-1.7 16-2.3 27.9 15-16.1 35.3-35.8 48.1-47.4 3-2.8 5.3-2.3 6 .3 1.2 5 0 13.5-10 23.3C357 49.5 345 60.9 330 77c-6.1 12.1-11.8 24.1-15.1 33.6zm166.2-16.1c-4.8 9.6-16.6 18-26.9 18-9.5 0-14.3-5.2-15.3-12.1-5.5 6-13.1 11.5-21.5 11.5-8.7 0-11.8-6.3-11.8-13.5 0-3.5.7-7.5 2-11.5 1.2-3.3 2.8-7.5 4.8-11.3-3.3 1.2-6.7 1.8-10.1 1.8-4.5 16-18.3 34.4-32.3 34.4-5.5 0-11.8-2.2-16.5-8.5-3.2-4.2-4.5-9.3-4.5-14.6 0-7 2.5-15.6 6.8-23.1C362 55 372.9 45 383.2 44.1c5.7-.3 9 1.3 12.6 6.2.8 1 1.7 1.7 2.5 2.5 3.3 3.5 6 7.8 5.3 18 7.5-1.3 15.1-8.7 20.3-16.1l6.2-9c2-3 4.2-3.2 6.5-.5 2 2.3 3 5.7 3 8 0 4-2 9-5.5 15.1-5.7 9.1-9.3 15.8-12.6 23.6-1.2 3.2-1.8 6.2-1.8 8.7 0 2.3.5 4 2 4 4.7 0 13.1-10.5 21.6-24.3 10.1-16 13.6-25.9 19.8-34.8 2-3 4.7-3.5 6.8-1 1.7 2 2.8 5 2.8 8.6 0 3.2-.7 6.7-2.7 10.6-3.2 6.8-11.1 17.8-15.1 27.4-1.7 3.5-2.7 7-2.7 9.8 0 3 1 4.7 3.2 4.7 5.7 0 15.5-10.8 21.5-22 1.5-3.2 3.8-3.3 5.7-.2.9 1.7.9 6.2-1.5 11.1zm-115.6 8.6c4.2 0 11.3-6 17.6-17.3 2.7-4.7 4.2-8.5 5.5-12.3-4.3-2.8-8.7-8.7-10.1-13.3-3.5 3.3-6.5 7.5-9.6 12.8-4.3 7.8-6.8 17-6.8 23.1-.1 4.7.7 7 3.4 7zm28.1-45.2c0-2.5-1.3-3.5-2.5-3.5-1 0-2.5 1.3-2.5 4 0 3 .8 7.3 2.7 9.5 1.6-3.9 2.3-7.9 2.3-10z"/><path class="st0" d="M508.8 42.7c0 3.2-1.2 8-3 13.3 4-1 8.5-3.3 13.5-7 2.8-2 4.5-2.3 6.7-.2 2.3 2.3 4.8 6.7 4.8 10.6 0 2-.8 4.3-2.7 6.5-9 10.3-18.5 23.5-18.5 33.3 0 4.3 1.3 7 3.7 7 5.7 0 12.3-9.3 17.5-20.8 1.3-3 3.7-3.2 5.2-.2 1.2 2.3 1.3 6.3-.5 10.8-4 9.5-13.8 16.6-23.3 16.6-10.1 0-15.6-7.2-15.6-16.1 0-10.6 8.8-23.5 17.1-33.6-4.3 1.8-8.5 2.5-12.1 2.7-12.5 21.6-22 36.9-24.3 48.4-.7 3-2.8 4.5-5.8 1.3-2.8-2.7-4.2-6.2-4.2-9.8 0-3.7 1.2-7.6 3.5-12 2.8-5.3 11.3-19 20.5-30.3-2-1.8-3.2-4-3.2-6.2 0-8.5 10.6-20.3 15.8-20.3 3.5.2 4.9 2.2 4.9 6zM162.8 241h-3.4l-15.9-113.4H86L71.5 241H68l-9-113.4H2.5l22.4 214h71.3l15.5-94.8h2.8l18.6 94.8h71l19.3-214H169L162.8 241zm101.1-113.3l-39.3 214h54.8l6.5-33.8h40.7l6.5 33.8h57.6l-39.3-214h-87.5zm29.6 139.9l12.1-76.5h2.4l12.1 76.5h-26.6zM469 127.7l-14.8 69.6h-2.8L436 127.7h-64.8l50.3 147.8v66.2h58.6v-66.2l51-147.8H469zM98.9 354.5c-30.1 0-51.8 8.6-65 25.9-13.2 17.2-19.8 45-19.8 83.2s6.5 66.5 19.6 84.6c13.1 18.2 34.6 27.2 64.5 27.2s51.5-9.2 64.8-27.6c13.3-18.4 20-46.7 20-85s-6.5-65.9-19.5-82.9c-12.9-16.8-34.5-25.4-64.6-25.4zm24.8 119.6c0 20.9-1.5 34.7-4.5 41.4-3 6.7-9.6 10-19.8 10s-17-3.5-20.3-10.5c-3.3-7-5-21.7-5-43.9v-8.3c0-20.9 1.5-35.1 4.5-42.6S88.2 409 98.4 409c10.2 0 17 3.7 20.3 11.2 3.3 7.5 5 21.8 5 42.9v11zM368.2 410h42.4v162h58.9V410h40l3.4-52H371.6zm-47.6-52h-44.1l41.1 69.4h-26.9l35.4 59.8h-36.7v36.4h-23v-36.4h-39.6l35.4-59.8h-26.9l41.1-69.4h-78.3v147.5c0 24.4 6.4 42.1 19.1 53.2 12.7 11.1 32.2 16.7 58.2 16.7 26.1 0 45.8-5.6 59.3-16.9 13.4-11.3 20.2-29.2 20.2-53.8V358h-34.3z"/></svg>